<?xml version="1.0" encoding="UTF-8" standalone="no"?>
<svg 
  version="1.1" 
  xmlns="http://www.w3.org/2000/svg" 
  xmlns:xlink="http://www.w3.org/1999/xlink" 
  xmlns:svg="http://www.w3.org/2000/svg"
  xmlns:rdf="http://www.w3.org/1999/02/22-rdf-syntax-ns#"
  xmlns:cc="http://creativecommons.org/ns#"
  xmlns:dc="http://purl.org/dc/elements/1.1/"
  viewBox="0 0 768 768"
  width="768"
  height="768"
>
<style>svg {background-color: white; }</style>"
<metadata id="metadata1">
Created by https://svgstud.io and licensed under CC-BY-SA 4.0 license. Please attribute https://svgstud.io
</metadata>
<metadata id="prompt">
cartoon style!!, monochrome, robot saying hi, plain background
</metadata>
<metadata id="version">
7
</metadata>
<metadata id="metadata2">
<rdf:RDF>
<cc:Work
    rdf:about="">
    <cc:license
    rdf:resource="http://creativecommons.org/licenses/by-sa/4.0/" />
    <dc:creator>
        <cc:Agent>
            <dc:title>https://svgstud.io</dc:title>
        </cc:Agent>
    </dc:creator>
</cc:Work>
<cc:License
    rdf:about="http://creativecommons.org/licenses/by-sa/4.0/">
    <cc:permits
    rdf:resource="http://creativecommons.org/ns#Reproduction" />
    <cc:permits
    rdf:resource="http://creativecommons.org/ns#Distribution" />
    <cc:requires
    rdf:resource="http://creativecommons.org/ns#Notice" />
    <cc:requires
    rdf:resource="http://creativecommons.org/ns#Attribution" />
    <cc:permits
    rdf:resource="http://creativecommons.org/ns#DerivativeWorks" />
    <cc:requires
    rdf:resource="http://creativecommons.org/ns#ShareAlike" />
</cc:License>
</rdf:RDF>
</metadata>
<metadata id="uid">
09a40276ecb848c6ce779ac418c9c13588a7d8868df109c26d01e9e4d7ec5de5
</metadata>
<path stroke="none" fill="black" fill-rule="evenodd" d="M344.00,757.78C326.68,757.67 308.23,757.47 303.00,757.32C297.77,757.17 285.43,756.57 275.56,755.99C265.69,755.40 249.24,754.06 239.00,753.00C228.76,751.95 214.11,750.13 206.44,748.97C198.77,747.80 188.00,745.97 182.50,744.89C177.00,743.81 167.79,741.78 162.04,740.36C156.28,738.95 147.73,736.45 143.04,734.80C138.34,733.16 130.97,729.95 126.66,727.67C122.17,725.29 116.97,721.54 114.48,718.88C111.75,715.96 109.88,712.88 109.46,710.61C109.08,708.63 109.09,705.33 109.47,703.29C110.00,700.49 111.84,697.94 116.92,692.94C122.40,687.56 126.03,685.14 136.09,680.15C142.91,676.76 153.90,672.16 160.50,669.92C167.10,667.67 179.85,664.10 188.84,661.97C197.83,659.84 208.63,657.55 212.84,656.87C217.05,656.19 221.04,655.24 221.70,654.74C222.36,654.24 224.26,651.43 225.92,648.49C227.58,645.55 230.41,641.45 232.22,639.39C234.02,637.33 238.08,633.98 241.23,631.94C244.58,629.76 249.88,627.51 253.99,626.50C257.86,625.56 261.18,624.49 261.38,624.14C261.59,623.79 261.47,604.49 261.13,581.26C260.50,539.02 260.50,539.02 256.09,534.76C253.67,532.42 250.43,527.80 248.89,524.50C247.14,520.74 245.67,515.22 244.95,509.72C244.09,503.09 244.09,499.31 244.96,494.28C245.60,490.62 247.32,485.18 248.78,482.20C250.23,479.23 253.21,475.27 255.38,473.40C257.56,471.54 261.77,469.11 264.74,467.99C267.72,466.88 274.73,465.40 280.32,464.69C290.50,463.42 290.50,463.42 290.80,447.46C290.97,438.68 290.84,429.68 290.52,427.45C289.94,423.43 289.88,423.38 279.22,418.23C273.32,415.39 266.82,411.67 264.77,409.98C262.44,408.04 260.69,405.52 260.09,403.20C259.57,401.16 258.39,390.27 257.47,379.00C256.55,367.73 255.49,356.93 255.12,355.00C254.68,352.77 253.63,351.14 252.22,350.51C251.00,349.97 250.00,348.93 250.00,348.20C250.00,347.47 250.52,345.89 251.16,344.69C251.80,343.50 254.51,339.89 257.18,336.69C259.85,333.48 263.02,328.98 264.23,326.68C265.87,323.56 266.42,320.84 266.38,316.00C266.34,311.36 265.67,308.12 264.02,304.69C262.76,302.04 260.40,298.55 258.78,296.94C257.17,295.32 254.79,293.73 253.50,293.41C251.99,293.03 249.62,293.69 246.83,295.26C244.45,296.60 237.83,300.32 232.12,303.53C221.73,309.36 221.73,309.36 224.12,311.25C225.43,312.28 228.36,314.90 230.62,317.07C232.89,319.23 235.82,322.58 237.12,324.50C238.43,326.42 239.88,327.99 240.35,327.99C240.82,328.00 244.34,325.30 248.16,322.00C251.98,318.70 255.54,316.00 256.06,316.00C256.58,316.00 257.00,316.60 257.00,317.33C257.00,318.06 253.66,321.55 249.58,325.08C245.50,328.61 241.89,332.11 241.57,332.86C241.24,333.61 242.62,338.05 244.63,342.72C248.05,350.71 248.24,351.66 247.66,358.52C247.32,362.53 246.06,368.44 244.87,371.66C243.64,374.95 241.11,379.09 239.07,381.14C237.08,383.14 233.67,385.29 231.48,385.92C229.29,386.54 224.57,387.33 221.00,387.66C217.43,387.99 213.82,388.84 213.00,389.53C212.18,390.23 209.70,391.29 207.50,391.90C205.30,392.50 199.22,392.99 194.00,392.99C187.28,393.00 181.49,392.27 174.19,390.50C168.52,389.13 161.46,386.85 158.49,385.45C155.11,383.85 152.38,381.71 151.17,379.70C150.11,377.94 148.77,374.25 148.19,371.50C147.60,368.75 146.59,362.11 145.93,356.75C145.25,351.17 145.04,343.99 145.43,339.96C145.82,336.10 146.77,330.78 147.55,328.16C148.48,325.01 150.81,321.34 154.36,317.41C157.33,314.13 162.00,310.23 164.74,308.74C167.60,307.18 172.63,305.61 176.61,305.04C180.40,304.49 187.81,304.03 193.08,304.02C198.35,304.01 205.15,304.50 208.19,305.11C213.03,306.08 214.26,305.98 218.11,304.27C220.52,303.19 224.02,301.03 225.88,299.46C227.76,297.87 230.51,293.83 232.06,290.36C234.11,285.79 235.89,283.46 238.68,281.67C240.78,280.32 245.65,278.19 249.50,276.95C253.35,275.70 257.62,273.87 259.00,272.89C260.38,271.91 264.20,270.44 267.50,269.62C270.80,268.81 278.00,267.63 283.50,266.99C289.00,266.36 294.16,265.63 294.97,265.37C295.77,265.11 291.97,263.10 286.51,260.90C281.05,258.71 271.82,254.44 266.01,251.41C260.19,248.39 254.12,244.88 252.53,243.60C249.95,241.55 249.50,240.33 248.55,232.89C247.47,224.50 247.47,224.50 238.99,223.91C233.92,223.56 229.14,222.62 227.14,221.58C225.29,220.62 221.86,218.07 219.52,215.91C217.07,213.66 214.15,209.49 212.62,206.08C211.16,202.83 209.47,197.54 208.88,194.33C208.28,191.13 207.98,183.32 208.21,177.00C208.58,166.52 208.91,164.89 211.88,158.70C214.19,153.90 216.35,151.03 219.26,148.92C221.53,147.28 226.33,145.08 229.94,144.02C233.55,142.97 239.04,141.61 242.15,141.00C247.81,139.90 247.81,139.90 248.17,122.20C248.41,110.76 248.97,103.74 249.75,102.34C250.43,101.15 252.44,99.29 254.24,98.21C256.03,97.13 262.23,94.64 268.00,92.68C273.77,90.73 284.35,87.76 291.50,86.10C298.65,84.44 310.35,82.14 317.50,80.98C324.65,79.83 332.98,78.35 336.00,77.69C341.50,76.50 341.50,76.50 341.80,71.23C342.04,67.15 341.65,65.37 340.10,63.40C339.00,62.00 337.80,58.82 337.42,56.33C337.03,53.72 337.23,50.19 337.88,48.01C338.53,45.82 340.70,42.69 343.01,40.61C346.60,37.36 347.57,37.00 352.63,37.00C356.53,37.00 359.27,37.62 361.53,39.02C363.32,40.12 365.51,42.55 366.39,44.42C367.28,46.28 368.00,50.29 368.00,53.32C368.00,57.76 367.51,59.43 365.50,61.82C364.13,63.45 363.00,65.40 363.01,66.14C363.01,66.89 363.47,69.14 364.02,71.14C365.03,74.78 365.03,74.78 377.27,75.49C384.00,75.87 392.69,76.79 396.59,77.52C400.48,78.24 410.61,81.12 419.09,83.90C427.56,86.68 437.65,90.48 441.50,92.34C445.35,94.20 449.24,96.57 450.15,97.61C451.06,98.65 452.30,101.30 452.91,103.50C453.53,105.70 454.70,113.73 455.51,121.34C456.33,128.96 457.21,135.53 457.47,135.95C457.73,136.37 460.71,137.72 464.10,138.95C468.16,140.44 471.72,142.66 474.56,145.51C477.52,148.46 479.38,151.49 480.49,155.16C481.38,158.10 482.36,164.32 482.68,169.00C482.99,173.68 482.73,180.82 482.09,184.88C481.46,188.95 480.00,194.46 478.84,197.14C477.69,199.82 475.16,203.41 473.23,205.11C471.29,206.81 467.80,209.02 465.46,210.02C463.13,211.02 460.97,212.25 460.65,212.75C460.34,213.25 459.59,218.80 458.98,225.08C458.37,231.36 457.44,238.15 456.92,240.18C456.39,242.20 454.60,245.00 452.93,246.40C451.27,247.80 447.59,249.64 444.77,250.48C441.94,251.32 435.55,252.70 430.56,253.55C425.58,254.41 419.72,255.57 417.54,256.15C414.71,256.89 414.00,257.42 415.04,257.99C415.84,258.43 422.77,260.43 430.43,262.44C438.09,264.45 447.71,267.48 451.79,269.19C457.06,271.38 461.05,273.99 465.49,278.14C469.50,281.89 473.03,286.44 475.32,290.80C477.29,294.54 479.89,298.48 481.09,299.55C482.30,300.62 490.21,309.46 498.66,319.18C507.11,328.91 515.20,337.80 516.64,338.93C518.09,340.07 520.01,341.00 520.91,341.00C521.82,341.00 524.98,338.24 527.95,334.87C530.92,331.49 535.37,327.46 537.82,325.90C540.28,324.34 544.48,322.34 547.15,321.45C549.83,320.56 555.05,319.53 558.76,319.17C565.50,318.50 565.50,318.50 567.15,311.00C568.06,306.88 568.85,302.73 568.90,301.78C568.96,300.84 567.65,298.53 566.00,296.65C564.34,294.77 562.32,291.62 561.50,289.65C560.58,287.46 560.00,282.89 560.00,277.90C560.00,269.74 560.00,269.74 553.75,263.09C550.05,259.15 545.39,252.58 542.33,246.97C539.48,241.76 535.73,233.45 534.00,228.50C531.54,221.51 530.93,218.33 531.25,214.24C531.55,210.45 532.34,208.26 534.08,206.40C535.41,204.97 537.72,203.18 539.20,202.40C540.69,201.63 543.30,201.00 545.00,201.00C546.70,201.00 549.35,201.65 550.87,202.43C552.40,203.22 554.23,204.57 554.95,205.43C555.66,206.30 556.64,207.00 557.11,207.00C557.59,207.00 557.72,202.39 557.39,196.75C556.97,189.41 557.19,185.39 558.15,182.60C558.89,180.45 560.77,177.75 562.32,176.60C564.64,174.87 566.41,174.53 572.32,174.68C576.27,174.78 580.85,174.95 582.50,175.05C584.15,175.15 587.30,174.75 589.50,174.16C592.32,173.40 594.68,173.39 597.50,174.13C599.70,174.70 602.70,176.31 604.18,177.70C605.65,179.10 607.40,181.54 608.06,183.14C609.05,185.53 609.64,185.91 611.38,185.28C612.55,184.85 615.38,184.55 617.69,184.62C619.99,184.69 623.36,185.60 625.19,186.65C627.01,187.71 629.31,190.13 630.31,192.03C631.91,195.11 632.05,197.19 631.47,210.50C630.83,225.50 630.83,225.50 634.49,227.45C636.51,228.52 638.86,230.77 639.73,232.45C641.12,235.13 641.16,236.92 640.09,247.35C639.41,253.88 638.00,262.61 636.93,266.76C635.87,270.91 633.89,275.77 632.52,277.56C631.16,279.35 628.52,281.75 626.67,282.90C623.42,284.90 623.27,285.27 622.71,292.60C622.25,298.70 621.67,300.72 619.82,302.71C618.54,304.08 615.85,306.04 613.82,307.08C611.80,308.12 609.91,309.76 609.62,310.73C609.33,311.70 607.90,318.75 606.44,326.38C603.78,340.26 603.78,340.26 605.89,344.02C607.05,346.08 608.00,349.39 608.00,351.36C608.00,353.33 606.95,357.32 605.66,360.22C604.38,363.13 602.11,369.17 600.62,373.65C599.12,378.13 596.24,384.54 594.20,387.89C592.17,391.24 588.55,396.65 586.16,399.92C583.77,403.18 580.07,407.01 577.94,408.42C575.80,409.84 572.12,411.51 569.76,412.14C566.68,412.97 563.51,413.00 558.49,412.27C552.43,411.39 551.03,411.49 547.94,413.05C545.98,414.04 541.64,415.56 538.30,416.42C534.95,417.29 530.25,418.00 527.86,417.99C525.46,417.99 521.91,417.55 519.97,417.01C518.02,416.47 514.40,414.73 511.91,413.16C509.34,411.53 505.81,407.91 503.73,404.78C500.57,400.02 499.53,399.18 496.11,398.63C493.94,398.29 490.70,396.78 488.93,395.28C487.15,393.79 484.83,390.60 483.76,388.20C482.70,385.80 481.58,380.38 481.26,376.17C480.69,368.61 480.62,368.44 476.24,364.58C473.80,362.42 467.33,355.11 461.86,348.33C456.39,341.55 451.52,336.00 451.04,336.00C450.56,336.00 449.91,337.24 449.60,338.75C449.30,340.26 448.58,348.93 448.01,358.00C447.44,367.07 446.27,381.91 445.41,390.96C444.55,400.02 443.25,408.85 442.53,410.58C441.81,412.32 439.56,415.00 437.54,416.54C435.52,418.08 430.41,420.56 426.18,422.05C418.50,424.76 418.50,424.76 418.22,439.88C418.07,448.20 418.30,455.06 418.72,455.14C419.15,455.22 425.80,455.38 433.50,455.50C442.72,455.64 449.71,456.29 453.98,457.40C457.54,458.32 462.33,460.18 464.63,461.52C466.93,462.87 470.27,465.82 472.06,468.08C473.85,470.34 476.43,475.18 477.80,478.84C479.91,484.48 480.36,487.75 480.76,500.17C481.16,512.27 480.95,515.69 479.55,519.67C478.13,523.72 477.76,530.27 477.28,560.25C476.70,596.00 476.70,596.00 481.74,596.00C484.52,596.00 491.45,596.48 497.14,597.06C502.84,597.64 510.88,599.24 515.00,600.60C519.41,602.06 525.92,605.38 530.79,608.66C535.35,611.73 543.07,618.23 547.94,623.10C552.82,627.98 557.75,633.91 558.90,636.29C560.05,638.66 561.73,645.13 562.64,650.65C564.29,660.70 564.29,660.70 571.39,662.95C575.30,664.19 583.01,666.96 588.53,669.09C594.04,671.23 601.92,675.04 606.03,677.56C610.14,680.09 615.00,683.58 616.84,685.33C618.67,687.07 621.04,690.17 622.09,692.21C623.14,694.25 624.00,697.75 624.00,699.99C624.00,702.23 623.39,705.52 622.64,707.31C621.90,709.10 618.88,712.72 615.93,715.37C612.99,718.02 607.94,721.52 604.71,723.15C601.47,724.78 595.38,727.45 591.17,729.08C586.95,730.70 577.88,733.58 571.00,735.46C564.12,737.34 553.10,740.00 546.50,741.37C539.90,742.74 527.08,745.00 518.00,746.40C508.93,747.79 491.60,750.05 479.50,751.41C467.40,752.78 451.43,754.37 444.00,754.96C436.57,755.55 418.12,756.47 403.00,757.00C387.88,757.54 361.32,757.89 344.00,757.78zM338.50,724.49C348.40,724.24 360.32,723.56 365.00,722.99C369.68,722.42 377.10,721.24 381.50,720.38C385.90,719.52 391.02,718.10 392.88,717.23C396.25,715.65 396.25,715.65 395.54,702.21C395.15,694.82 394.26,686.60 393.58,683.95C392.89,681.31 390.79,676.60 388.91,673.50C387.04,670.40 382.92,664.41 379.76,660.19C376.61,655.98 371.34,649.73 368.05,646.32C363.80,641.90 361.08,639.92 358.65,639.46C356.76,639.11 344.26,639.99 330.86,641.42C317.46,642.85 304.96,644.28 303.08,644.59C300.70,644.98 297.70,647.02 293.19,651.33C289.62,654.72 285.42,659.50 283.85,661.95C282.28,664.39 281.01,667.54 281.02,668.95C281.03,670.35 281.96,673.52 283.08,676.00C284.21,678.48 286.11,681.56 287.31,682.85C288.52,684.14 291.52,686.22 294.00,687.47C296.48,688.72 301.20,690.52 304.50,691.47C307.80,692.41 310.99,693.60 311.60,694.09C312.20,694.59 313.25,700.51 313.92,707.25C314.59,713.99 315.22,720.38 315.32,721.46C315.42,722.59 316.56,723.74 318.00,724.19C319.38,724.61 328.60,724.75 338.50,724.49zM308.73,722.91C311.96,723.00 311.96,723.00 311.34,718.25C311.00,715.64 310.22,709.91 309.61,705.53C308.50,697.56 308.50,697.56 301.00,695.45C296.88,694.29 289.90,691.85 285.50,690.03C279.35,687.48 276.31,685.48 272.34,681.36C269.50,678.41 266.91,676.00 266.59,676.00C266.26,676.00 266.00,678.81 266.00,682.25C266.01,685.69 266.48,693.67 267.07,700.00C267.65,706.33 268.66,712.01 269.32,712.63C269.97,713.24 273.88,714.78 278.00,716.05C282.12,717.31 290.00,719.35 295.50,720.58C301.00,721.82 306.95,722.86 308.73,722.91zM237.21,700.37C237.65,700.10 238.00,696.20 238.01,691.69C238.01,687.19 238.70,677.65 239.52,670.50C240.35,663.35 241.24,656.94 241.48,656.25C241.73,655.56 242.85,655.00 243.95,655.00C245.06,655.00 249.65,657.03 254.15,659.52C258.64,662.01 264.50,665.61 267.16,667.52C270.70,670.06 272.00,670.58 272.00,669.45C272.00,668.60 272.74,666.46 273.64,664.70C274.54,662.94 276.63,659.78 278.28,657.68C279.93,655.57 284.43,651.65 288.27,648.95C295.25,644.05 295.25,644.05 292.48,642.99C290.95,642.41 286.06,640.95 281.60,639.74C275.46,638.08 270.83,637.56 262.50,637.60C253.64,637.64 250.41,638.08 245.90,639.84C242.82,641.05 238.65,643.68 236.63,645.70C234.61,647.72 230.98,653.00 228.57,657.44C226.15,661.87 223.46,668.28 222.58,671.67C221.70,675.07 220.71,680.47 220.38,683.67C219.88,688.48 220.10,689.89 221.64,691.75C222.66,692.99 226.41,695.54 229.96,697.43C233.52,699.31 236.78,700.64 237.21,700.37zM501.55,697.82C511.69,697.97 521.44,697.50 528.05,696.56C533.80,695.74 541.88,694.12 546.00,692.97C550.12,691.82 554.57,690.18 555.88,689.33C558.26,687.78 558.26,687.78 557.56,673.14C557.18,665.09 556.44,655.44 555.93,651.69C555.41,647.95 554.26,643.45 553.37,641.69C552.47,639.94 549.80,636.21 547.43,633.40C545.05,630.60 539.32,625.10 534.70,621.17C530.07,617.24 523.70,612.47 520.55,610.57C517.39,608.67 511.73,606.42 507.96,605.56C504.19,604.70 497.40,604.00 492.87,604.00C485.89,604.00 481.21,604.94 462.07,610.17C442.82,615.43 437.96,616.40 429.00,616.77C420.56,617.12 415.66,616.68 404.00,614.53C396.02,613.06 388.26,611.82 386.75,611.78C385.23,611.73 383.12,612.48 382.06,613.45C380.99,614.41 379.39,617.29 378.50,619.85C377.61,622.41 376.62,628.58 376.30,633.56C375.73,642.62 375.73,642.62 378.97,646.31C380.75,648.33 382.54,649.78 382.96,649.52C383.38,649.27 384.02,646.47 384.39,643.32C384.76,640.16 385.32,636.56 385.64,635.30C385.96,634.04 386.62,633.26 387.11,633.57C387.60,633.87 388.00,635.43 388.00,637.04C388.00,638.65 387.46,643.11 386.80,646.95C385.60,653.94 385.60,653.94 388.70,658.22C390.41,660.58 392.41,662.50 393.15,662.50C394.15,662.50 394.76,659.39 395.50,650.32C396.05,643.63 396.81,637.84 397.20,637.46C397.58,637.08 400.28,637.34 403.20,638.03C406.11,638.72 412.01,640.62 416.31,642.25C420.60,643.88 428.07,647.82 432.90,650.99C437.74,654.17 442.72,658.20 443.97,659.95C445.22,661.71 446.84,665.13 447.57,667.56C448.30,669.99 449.40,676.59 450.02,682.23C450.65,687.86 451.62,692.77 452.19,693.12C452.77,693.47 456.61,694.31 460.74,694.97C464.86,695.64 472.12,696.50 476.87,696.89C481.62,697.27 492.72,697.69 501.55,697.82zM360.91,695.58C356.66,696.00 354.03,695.86 353.61,695.19C353.26,694.61 353.34,693.91 353.79,693.63C354.24,693.35 360.38,692.17 367.42,691.01C374.47,689.85 380.49,689.16 380.80,689.47C381.11,689.78 380.87,690.53 380.27,691.13C379.67,691.73 376.56,692.83 373.37,693.57C370.17,694.31 364.57,695.22 360.91,695.58zM445.38,690.96C447.09,691.00 447.20,690.45 446.59,684.75C446.22,681.31 445.28,676.24 444.50,673.49C443.59,670.28 441.81,667.24 439.56,665.05C437.62,663.17 435.76,661.91 435.43,662.23C435.10,662.56 435.32,667.67 435.92,673.59C436.51,679.51 437.00,685.19 437.00,686.22C437.00,687.38 438.24,688.64 440.25,689.51C442.04,690.29 444.35,690.94 445.38,690.96zM499.03,666.88C492.69,666.82 485.26,666.39 482.51,665.93C479.77,665.47 476.51,664.84 475.26,664.53C474.02,664.22 473.00,663.52 473.00,662.98C473.00,662.41 476.93,662.00 482.42,662.00C487.60,662.00 498.74,661.52 507.17,660.93C515.60,660.34 527.67,658.94 534.00,657.82C540.33,656.70 546.39,655.71 547.47,655.64C548.59,655.56 549.59,656.23 549.78,657.18C549.97,658.11 549.20,659.36 548.07,659.96C546.94,660.57 541.85,661.93 536.76,662.98C531.67,664.04 523.69,665.37 519.03,665.95C514.37,666.53 505.37,666.95 499.03,666.88zM366.11,634.95C367.38,634.99 367.87,633.54 368.40,628.25C368.78,624.54 369.51,619.88 370.04,617.90C370.56,615.93 372.36,612.42 374.04,610.11C375.71,607.79 379.20,604.56 381.79,602.92C384.38,601.27 389.09,598.98 392.25,597.83C398.00,595.73 398.00,595.73 397.91,583.62C397.85,576.95 397.51,562.27 397.13,551.00C396.48,531.42 396.33,530.25 393.74,525.00C392.14,521.74 390.58,516.25 389.93,511.54C389.33,507.16 389.13,501.65 389.48,499.29C389.96,496.09 389.79,495.00 388.81,495.00C388.09,495.00 384.09,495.65 379.91,496.45C375.74,497.25 368.17,498.22 363.08,498.60C357.87,498.99 353.65,499.78 353.43,500.40C353.21,501.01 352.64,508.17 352.15,516.33C351.42,528.60 350.93,531.62 349.30,533.83C348.22,535.30 345.12,537.71 342.42,539.19C337.68,541.78 337.48,542.07 336.87,547.19C336.53,550.11 335.66,568.38 334.95,587.78C334.17,609.15 334.03,623.37 334.58,623.85C335.09,624.28 339.79,625.63 345.04,626.86C350.29,628.08 356.82,630.39 359.54,631.99C362.27,633.59 365.23,634.92 366.11,634.95zM452.00,634.89C451.18,634.87 448.59,634.01 446.25,632.97C443.92,631.94 437.76,629.68 432.57,627.97C427.37,626.26 422.58,624.19 421.91,623.39C421.02,622.32 420.99,621.61 421.78,620.82C422.57,620.03 424.20,620.06 427.68,620.94C430.32,621.61 435.86,623.91 439.99,626.07C444.12,628.23 448.85,631.10 450.50,632.46C452.31,633.95 452.91,634.91 452.00,634.89zM302.50,633.81C309.10,633.82 317.07,633.51 320.22,633.12C323.36,632.72 326.28,632.05 326.72,631.62C327.15,631.19 327.79,620.86 328.15,608.67C328.51,596.48 329.12,577.16 329.52,565.75C330.16,547.20 330.07,545.00 328.65,545.00C327.78,545.00 326.62,545.84 326.07,546.87C325.52,547.91 322.91,549.80 320.28,551.07C316.25,553.03 313.64,553.44 303.68,553.68C297.18,553.84 291.44,554.23 290.93,554.54C290.42,554.86 289.99,560.38 289.98,566.81C289.98,573.24 289.56,579.15 289.06,579.94C288.33,581.09 287.30,580.55 283.85,577.21C280.92,574.36 279.34,573.43 278.88,574.27C278.51,574.95 278.50,587.74 278.86,602.70C279.26,619.82 279.90,630.30 280.57,630.97C281.16,631.56 283.64,632.43 286.07,632.91C288.51,633.39 295.90,633.79 302.50,633.81zM434.50,608.87C441.01,608.96 446.33,608.31 453.74,606.52C459.37,605.15 465.48,603.41 467.33,602.64C470.68,601.24 470.68,601.24 471.34,585.37C471.70,576.64 471.99,560.16 472.00,548.75C472.00,533.81 471.68,528.00 470.85,528.00C470.22,528.00 467.86,529.50 465.60,531.34C463.35,533.18 459.70,535.81 457.50,537.18C455.30,538.55 450.20,540.92 446.16,542.46C439.48,544.99 438.51,545.73 435.40,550.59C433.51,553.54 431.12,556.40 430.07,556.96C429.02,557.53 426.11,557.70 423.58,557.36C419.24,556.76 418.94,556.51 417.83,552.61C417.19,550.35 416.25,548.05 415.74,547.50C415.17,546.89 414.95,558.00 415.16,576.17C415.35,592.49 415.85,606.18 416.27,606.60C416.69,607.03 418.94,607.68 421.27,608.06C423.60,608.44 429.55,608.81 434.50,608.87zM298.26,537.86C305.33,537.94 315.57,537.32 321.26,536.47C326.89,535.63 334.08,534.22 337.23,533.34C340.39,532.47 343.54,531.06 344.23,530.22C345.16,529.10 345.50,523.45 345.50,509.10C345.50,490.01 345.43,489.36 342.88,484.00C341.43,480.98 338.67,477.00 336.75,475.17C334.72,473.24 331.50,471.45 329.10,470.91C326.50,470.33 321.72,470.35 316.23,470.98C311.43,471.52 300.30,472.26 291.50,472.62C282.70,472.98 275.31,473.44 275.07,473.65C274.83,473.86 276.02,475.49 277.71,477.26C279.41,479.04 281.95,482.83 283.37,485.68C284.80,488.52 286.47,494.14 287.09,498.15C287.71,502.16 287.94,507.93 287.59,510.97C287.24,514.01 286.24,518.68 285.36,521.35C284.43,524.20 282.03,528.02 279.56,530.60C277.24,533.02 274.48,535.05 273.42,535.12C272.36,535.18 274.65,535.80 278.50,536.48C282.35,537.17 291.24,537.79 298.26,537.86zM424.68,529.90C430.35,529.99 431.14,529.73 434.32,526.73C436.59,524.60 438.34,521.60 439.39,518.05C440.30,514.98 441.00,509.05 441.00,504.36C441.00,498.40 440.41,494.50 438.91,490.48C437.75,487.40 435.23,483.30 433.30,481.37C431.37,479.44 428.83,477.50 427.65,477.07C426.07,476.48 424.64,476.93 422.24,478.77C420.44,480.14 418.73,482.23 418.43,483.43C418.09,484.77 419.24,488.43 421.44,493.02C424.37,499.13 425.00,501.57 425.00,506.82C425.00,510.54 424.35,514.57 423.43,516.51C422.57,518.33 420.62,520.33 419.11,520.95C417.09,521.79 415.60,521.80 413.43,520.98C411.82,520.37 409.20,518.66 407.62,517.19C406.04,515.71 403.21,512.14 401.34,509.25C399.47,506.36 397.67,504.00 397.34,504.00C397.01,504.00 397.05,506.35 397.44,509.23C397.82,512.11 399.08,516.15 400.24,518.21C401.40,520.28 404.13,523.14 406.31,524.58C408.48,526.02 412.12,527.79 414.38,528.50C416.65,529.22 421.28,529.85 424.68,529.90zM444.84,528.00C445.30,528.00 449.08,527.13 453.24,526.07C457.40,525.00 463.06,522.99 465.81,521.60C468.55,520.21 471.80,517.81 473.02,516.28C475.12,513.64 475.21,512.82 474.73,500.00C474.34,489.55 473.75,485.24 472.11,480.92C470.94,477.85 468.42,473.52 466.51,471.29C464.61,469.06 461.12,466.46 458.77,465.52C456.42,464.57 451.01,463.55 446.75,463.25C442.49,462.96 439.00,463.08 439.00,463.53C439.00,463.98 439.74,465.17 440.65,466.17C442.23,467.92 442.11,468.00 437.82,468.00C435.35,468.00 433.04,468.29 432.69,468.64C432.34,468.99 433.78,471.36 435.89,473.89C438.01,476.43 440.86,480.75 442.24,483.50C443.62,486.25 445.26,490.88 445.88,493.80C446.49,496.71 446.99,502.56 446.98,506.80C446.98,511.03 446.32,517.20 445.52,520.50C444.72,523.80 444.06,526.84 444.04,527.25C444.02,527.66 444.38,528.00 444.84,528.00zM260.15,516.00C261.42,516.00 262.36,514.54 263.46,510.82C264.31,507.97 265.00,504.24 265.00,502.53C265.00,500.82 263.99,497.42 262.75,494.96C261.51,492.51 259.72,490.36 258.78,490.18C257.71,489.98 256.26,491.12 254.96,493.18C253.28,495.85 252.96,497.61 253.34,502.18C253.61,505.50 254.75,509.56 256.08,511.93C257.42,514.31 259.11,516.00 260.15,516.00zM412.78,515.97C413.49,515.99 414.45,514.99 414.91,513.75C415.49,512.20 415.21,510.42 414.00,508.00C413.03,506.07 411.93,503.04 411.55,501.26C411.16,499.48 410.44,497.77 409.95,497.47C409.46,497.17 407.67,497.64 405.96,498.52C403.19,499.95 402.94,500.45 403.56,503.31C403.93,505.06 405.09,508.16 406.12,510.20C407.14,512.23 408.78,514.35 409.74,514.92C410.71,515.48 412.08,515.95 412.78,515.97zM365.33,489.83C376.10,489.47 378.38,489.11 380.74,487.36C382.26,486.23 384.78,483.50 386.35,481.29C388.02,478.92 389.92,474.13 390.96,469.66C391.93,465.48 392.49,461.82 392.20,461.53C391.91,461.24 389.97,461.00 387.89,461.00C385.82,461.00 383.87,460.59 383.56,460.09C383.25,459.59 383.26,458.49 383.59,457.64C383.91,456.79 386.50,455.42 389.34,454.61C392.18,453.80 397.43,452.62 401.00,452.00C404.57,451.37 408.51,450.20 409.75,449.40C411.79,448.09 412.00,447.17 412.00,439.48C412.00,433.12 411.67,431.00 410.68,431.00C409.95,431.00 407.14,431.74 404.43,432.64C401.72,433.54 398.98,434.69 398.34,435.19C397.70,435.69 396.88,438.24 396.52,440.85C396.16,443.46 395.51,446.17 395.08,446.87C394.61,447.64 394.05,446.06 393.67,442.90C393.33,440.01 392.69,437.29 392.24,436.84C391.79,436.39 387.79,436.72 383.35,437.55C378.90,438.39 370.59,439.62 364.88,440.29C354.50,441.50 354.50,441.50 354.21,449.75C353.92,458.00 353.92,458.00 364.03,458.00C374.13,458.00 374.13,458.00 373.82,460.75C373.50,463.47 373.39,463.51 363.75,464.40C354.00,465.30 354.00,465.30 353.99,469.40C353.99,471.65 353.69,477.27 353.34,481.88C352.68,490.25 352.68,490.25 365.33,489.83zM401.09,487.58C403.89,487.21 407.04,486.37 408.09,485.71C409.14,485.06 410.73,482.99 411.61,481.12C412.52,479.21 413.60,473.07 414.08,467.12C414.61,460.39 414.57,456.17 413.95,455.55C413.31,454.91 411.84,455.03 409.74,455.89C407.96,456.62 404.14,458.13 401.25,459.25C396.00,461.28 396.00,461.28 396.00,474.77C396.00,488.26 396.00,488.26 401.09,487.58zM346.69,477.00C346.86,477.00 347.00,469.12 347.00,459.50C347.00,442.00 347.00,442.00 334.47,442.00C321.93,442.00 321.93,442.00 322.22,452.15C322.50,462.29 322.50,462.29 327.45,463.74C330.17,464.53 334.22,466.44 336.45,467.99C338.68,469.53 341.82,472.20 343.44,473.90C345.05,475.61 346.51,477.00 346.69,477.00zM307.28,461.98C313.07,462.00 313.07,462.00 312.78,451.45C312.50,440.91 312.50,440.91 305.75,438.55C299.00,436.19 299.00,436.19 298.86,440.85C298.79,443.41 298.84,448.88 298.97,453.00C299.11,457.24 299.72,460.82 300.36,461.23C300.99,461.64 304.10,461.98 307.28,461.98zM347.00,422.47C356.07,422.21 369.80,421.09 377.50,420.00C385.20,418.90 397.80,416.87 405.50,415.49C413.20,414.12 421.86,412.36 424.75,411.58C427.64,410.81 431.44,409.34 433.20,408.32C435.13,407.19 436.69,405.28 437.15,403.48C437.57,401.84 438.63,392.62 439.50,383.00C440.36,373.38 441.34,350.20 441.67,331.50C442.07,308.88 441.89,293.99 441.13,287.00C440.24,278.78 439.58,276.15 438.07,274.90C437.02,274.02 431.78,271.85 426.44,270.08C420.85,268.23 413.70,266.65 409.61,266.36C402.50,265.86 402.50,265.86 406.50,269.18C408.69,271.01 411.74,273.85 413.27,275.50C414.80,277.15 415.92,279.16 415.77,279.97C415.61,280.78 413.44,282.20 410.95,283.13C408.45,284.05 400.81,285.78 393.96,286.97C387.11,288.16 375.20,289.38 367.50,289.69C357.70,290.07 349.30,289.75 339.50,288.60C331.80,287.70 321.39,286.12 316.38,285.09C311.36,284.05 304.39,281.81 300.89,280.10C297.39,278.40 293.48,277.00 292.20,277.00C290.07,277.00 290.34,277.55 295.12,283.04C298.48,286.90 303.20,290.77 308.19,293.74C314.76,297.64 316.18,298.96 317.04,301.94C317.60,303.90 318.58,312.46 319.21,320.96C320.08,332.66 320.07,343.25 319.17,364.58C318.52,380.07 317.48,394.21 316.85,396.00C315.98,398.50 315.53,398.90 314.88,397.76C314.36,396.82 311.71,396.00 307.77,395.57C304.32,395.18 296.77,393.30 291.00,391.38C285.23,389.46 278.70,386.66 276.50,385.15C273.00,382.76 272.36,381.70 271.37,376.71C270.74,373.57 269.50,369.47 268.62,367.60C267.73,365.73 267.00,363.70 267.00,363.10C267.00,362.41 269.58,362.00 274.00,362.00C277.85,362.00 281.00,361.65 281.00,361.23C281.00,360.80 282.54,359.62 284.43,358.61C286.31,357.60 289.09,355.47 290.60,353.89C292.12,352.31 293.10,350.77 292.80,350.46C292.49,350.16 291.61,350.49 290.85,351.20C290.08,351.92 288.79,352.67 287.98,352.88C287.16,353.09 284.55,353.65 282.17,354.12C279.61,354.62 274.95,354.56 270.77,353.97C266.88,353.42 263.50,353.17 263.25,353.42C263.00,353.67 263.49,356.04 264.33,358.69C265.27,361.65 266.11,369.63 266.50,379.50C266.86,388.30 267.59,397.23 268.14,399.34C269.08,403.00 269.63,403.42 280.31,408.54C286.47,411.49 295.73,415.11 300.89,416.59C306.06,418.06 314.83,420.10 320.39,421.11C328.50,422.58 333.77,422.85 347.00,422.47zM543.50,407.35C545.15,407.03 546.72,406.56 547.00,406.30C547.27,406.05 546.15,404.89 544.50,403.74C542.85,402.58 539.47,399.58 536.98,397.06C534.32,394.36 531.96,390.80 531.23,388.38C530.55,386.12 530.00,380.95 530.01,376.88C530.02,371.06 530.75,367.39 533.49,359.50C536.97,349.50 536.97,349.50 534.81,347.70C533.63,346.71 531.51,346.04 530.11,346.20C528.32,346.41 526.42,348.13 523.76,351.95C521.67,354.95 519.29,359.64 518.48,362.38C517.67,365.12 517.00,370.80 517.00,375.00C517.00,379.20 517.66,384.86 518.47,387.58C519.27,390.29 521.32,394.40 523.02,396.71C524.71,399.01 527.71,401.89 529.68,403.11C531.65,404.33 534.89,405.91 536.88,406.63C538.87,407.35 541.85,407.67 543.50,407.35zM566.11,405.00C568.85,405.00 572.36,404.35 573.90,403.55C575.44,402.75 578.21,400.39 580.05,398.30C583.39,394.50 583.39,394.50 573.94,393.88C568.75,393.55 563.35,392.80 561.95,392.23C560.30,391.57 558.79,391.54 557.69,392.15C556.75,392.68 555.54,392.83 554.99,392.50C554.45,392.16 554.00,390.78 554.00,389.43C554.00,388.08 554.90,382.96 555.99,378.04C557.09,373.12 558.42,364.13 558.95,358.05C559.48,351.98 560.34,345.32 560.86,343.25C561.38,341.19 562.09,336.40 562.44,332.60C563.09,325.71 563.09,325.71 557.03,326.34C553.70,326.69 549.12,327.92 546.85,329.08C544.57,330.24 540.50,333.26 537.78,335.80C535.07,338.34 532.38,341.28 531.82,342.35C530.91,344.04 531.07,344.21 533.14,343.77C534.44,343.49 536.29,342.92 537.26,342.52C538.67,341.92 539.44,342.73 541.20,346.64C543.12,350.91 543.46,353.84 543.94,370.68C544.45,388.10 544.69,390.12 546.59,392.66C547.74,394.20 551.48,397.61 554.90,400.23C560.41,404.46 561.68,405.00 566.11,405.00zM502.64,390.89C503.41,390.97 503.90,387.49 504.16,380.25C504.51,370.46 504.82,369.01 507.63,364.00C509.33,360.98 511.79,356.62 513.09,354.32C515.47,350.13 515.47,350.13 513.06,347.57C511.74,346.16 509.55,345.00 508.19,345.00C506.84,345.00 504.24,345.92 502.41,347.05C500.59,348.18 497.48,351.30 495.51,353.99C493.53,356.68 491.21,360.97 490.33,363.54C489.24,366.73 488.90,370.29 489.22,374.86C489.48,378.52 490.46,383.00 491.40,384.81C492.34,386.62 493.64,388.24 494.30,388.41C494.96,388.59 496.85,389.19 498.50,389.76C500.15,390.32 502.01,390.84 502.64,390.89zM197.10,385.78C204.25,385.59 208.24,385.05 209.35,384.13C210.68,383.02 211.00,380.83 211.00,372.77C211.00,362.92 210.97,362.79 208.75,363.32C207.51,363.62 203.61,364.38 200.07,365.01C196.54,365.64 191.36,366.01 188.57,365.83C183.50,365.50 183.50,365.50 183.50,374.79C183.50,381.94 183.85,384.31 185.00,385.07C185.83,385.62 191.23,385.94 197.10,385.78zM580.69,384.98C585.72,385.00 587.36,384.58 589.41,382.75C590.79,381.51 592.85,378.10 593.98,375.18C595.11,372.25 595.82,369.52 595.56,369.10C595.31,368.69 591.25,368.56 586.55,368.80C579.54,369.17 576.72,368.84 570.91,366.97C564.94,365.05 563.67,364.91 562.92,366.09C562.43,366.87 562.02,369.79 562.02,372.60C562.00,376.21 562.51,378.15 563.77,379.29C564.74,380.17 567.55,381.80 570.02,382.92C572.95,384.25 576.64,384.96 580.69,384.98zM176.79,376.22C176.95,372.31 176.70,367.62 176.23,365.81C175.75,363.97 174.63,362.36 173.69,362.18C172.29,361.91 172.00,362.68 172.02,366.68C172.04,369.33 172.51,373.51 173.08,375.96C173.64,378.41 174.64,381.07 175.30,381.87C176.26,383.03 176.56,381.90 176.79,376.22zM166.17,380.86C166.53,380.94 167.01,380.48 167.22,379.85C167.43,379.22 167.19,375.51 166.69,371.60C166.19,367.70 165.16,363.30 164.41,361.84C163.39,359.86 161.99,359.00 158.93,358.49C156.47,358.07 154.39,358.21 153.78,358.82C153.07,359.53 153.14,361.95 154.01,366.55C154.91,371.33 156.10,374.18 158.18,376.56C159.79,378.38 162.09,380.07 163.30,380.30C164.51,380.54 165.80,380.79 166.17,380.86zM225.23,380.00C227.34,380.00 230.59,379.36 232.45,378.58C234.32,377.80 236.51,376.12 237.33,374.83C238.15,373.55 239.56,370.28 240.46,367.57C241.36,364.86 242.11,359.64 242.12,355.96C242.13,352.00 241.48,347.68 240.52,345.38C239.62,343.25 237.71,340.26 236.26,338.75C234.31,336.71 232.66,336.00 229.89,336.00C227.84,336.00 225.45,336.27 224.58,336.61C223.31,337.09 223.00,338.88 223.00,345.65C223.00,352.11 222.53,355.00 221.00,358.00C219.50,360.93 219.00,363.89 219.00,369.76C219.00,374.52 219.47,378.07 220.20,378.80C220.86,379.46 223.12,380.00 225.23,380.00zM588.50,358.91C592.35,358.94 596.62,358.40 598.00,357.71C599.51,356.95 601.07,354.81 601.94,352.31C603.05,349.11 603.11,347.84 602.20,346.75C601.28,345.63 598.82,345.42 590.76,345.77C582.04,346.15 579.60,345.89 574.50,344.06C571.20,342.88 567.71,341.65 566.75,341.34C565.28,340.86 565.00,341.40 565.00,344.69C565.00,346.85 565.56,349.33 566.25,350.20C566.94,351.07 569.30,352.89 571.50,354.23C573.70,355.58 576.85,357.17 578.50,357.76C580.15,358.36 584.65,358.87 588.50,358.91zM206.69,356.94C209.71,356.98 211.65,356.34 213.59,354.67C215.98,352.62 216.38,351.37 217.04,343.92C217.45,339.29 218.13,333.97 218.55,332.10C219.30,328.74 219.28,328.72 216.40,329.47C214.81,329.88 210.68,330.44 207.24,330.70C202.13,331.08 200.77,331.57 199.83,333.33C199.19,334.51 198.46,339.86 198.20,345.22C197.74,354.75 197.79,354.99 200.12,355.92C201.43,356.44 204.39,356.90 206.69,356.94zM483.81,354.00C484.04,354.00 486.79,351.64 489.90,348.75C493.02,345.86 497.70,342.38 500.29,341.00C502.88,339.63 505.00,337.80 505.00,336.94C505.00,336.08 501.25,330.91 496.67,325.44C492.09,319.97 485.67,312.69 482.40,309.25C479.12,305.81 475.92,303.00 475.28,303.00C474.64,303.00 472.12,305.59 469.68,308.75C467.24,311.91 464.25,315.39 463.03,316.49C461.81,317.58 460.39,319.27 459.87,320.25C459.15,321.60 459.70,323.16 462.16,326.76C463.94,329.37 468.08,335.10 471.37,339.50C474.65,343.90 478.70,348.96 480.37,350.75C482.03,352.54 483.58,354.00 483.81,354.00zM185.13,352.90C186.57,352.95 188.25,352.41 188.85,351.69C189.45,350.96 190.37,346.58 190.90,341.94C191.42,337.30 192.34,332.22 192.94,330.67C193.53,329.11 193.76,327.42 193.45,326.92C193.14,326.41 189.62,326.00 185.63,326.00C180.95,326.00 177.69,326.50 176.44,327.42C174.73,328.67 174.50,330.10 174.50,339.34C174.50,345.11 174.81,350.15 175.20,350.53C175.58,350.92 177.38,351.58 179.20,352.01C181.01,352.44 183.68,352.84 185.13,352.90zM164.20,351.91C164.59,351.96 165.14,350.54 165.41,348.75C165.69,346.96 166.14,342.12 166.42,338.00C166.69,333.88 167.23,329.19 167.61,327.60C168.29,324.69 168.29,324.69 162.42,325.30C158.65,325.69 156.11,326.50 155.33,327.56C154.66,328.48 153.81,331.64 153.44,334.60C153.07,337.56 153.06,341.49 153.41,343.35C153.75,345.21 154.88,347.49 155.91,348.42C156.94,349.35 159.07,350.50 160.64,350.97C162.21,351.44 163.82,351.87 164.20,351.91zM277.90,342.34C279.33,342.00 281.62,341.15 283.00,340.45C284.38,339.76 286.49,338.13 287.70,336.83C288.91,335.53 290.68,332.68 291.62,330.49C292.79,327.78 293.35,323.77 293.36,318.00C293.38,312.37 292.75,307.50 291.50,303.58C290.47,300.32 288.24,295.61 286.56,293.11C284.88,290.61 281.56,287.21 279.19,285.55C275.55,283.01 273.74,282.48 267.69,282.19C263.73,282.00 259.47,282.23 258.22,282.70C256.02,283.54 256.10,283.68 260.26,286.62C262.64,288.29 266.20,292.10 268.17,295.08C270.15,298.06 273.02,304.10 274.54,308.50C276.07,312.90 277.93,317.21 278.66,318.08C279.40,318.95 280.00,321.51 280.00,323.77C280.00,326.03 280.45,328.16 280.99,328.49C281.62,328.88 281.41,330.47 280.44,332.80C279.59,334.84 277.79,337.66 276.43,339.07C275.08,340.48 274.27,341.94 274.63,342.30C275.00,342.67 276.47,342.68 277.90,342.34zM590.50,341.46C593.80,341.13 596.79,340.56 597.14,340.18C597.49,339.81 599.18,332.84 600.89,324.69C602.60,316.55 604.00,309.46 604.00,308.94C604.00,308.42 600.67,308.00 596.59,308.00C589.18,308.00 589.18,308.00 587.12,312.25C585.99,314.59 584.23,321.81 583.20,328.29C581.49,339.02 581.47,340.17 582.91,341.07C583.80,341.62 587.15,341.79 590.50,341.46zM576.08,338.00C578.63,338.00 578.94,337.58 579.88,332.75C580.44,329.86 581.03,324.59 581.20,321.04C581.48,315.02 581.33,314.49 579.02,313.33C577.65,312.64 576.03,311.40 575.42,310.56C574.52,309.34 574.10,310.05 573.21,314.27C572.61,317.15 571.60,322.79 570.96,326.81C569.92,333.38 569.98,334.32 571.55,336.06C572.52,337.13 574.56,338.00 576.08,338.00zM233.75,330.15C234.44,329.95 235.00,329.26 235.00,328.62C235.00,327.97 234.26,326.33 233.35,324.97C232.44,323.61 230.32,321.03 228.63,319.22C226.76,317.23 223.61,315.37 220.60,314.47C217.87,313.66 215.06,313.00 214.35,313.00C213.64,313.00 211.48,314.59 209.53,316.53C207.59,318.48 206.00,320.17 206.00,320.30C206.00,320.43 207.91,321.52 210.25,322.72C212.59,323.92 216.17,325.17 218.22,325.49C220.27,325.82 222.54,326.93 223.26,327.97C224.09,329.14 226.08,329.98 228.54,330.19C230.72,330.37 233.06,330.36 233.75,330.15zM355.39,326.00C353.96,326.00 352.37,324.97 351.32,323.37C350.38,321.92 349.60,319.27 349.60,317.46C349.60,315.66 350.20,313.47 350.92,312.59C351.65,311.72 353.28,311.00 354.55,311.00C355.81,311.00 358.23,312.17 359.92,313.59C362.03,315.36 363.00,317.07 363.00,319.02C363.00,320.89 362.11,322.56 360.37,323.93C358.92,325.07 356.68,326.00 355.39,326.00zM199.24,320.71C200.75,320.22 203.34,318.10 204.99,316.01C206.65,313.92 208.00,311.77 208.00,311.22C208.00,310.68 206.99,309.96 205.75,309.63C204.51,309.30 201.70,309.03 199.50,309.03C197.20,309.03 193.84,309.98 191.59,311.27C189.45,312.49 186.78,314.73 185.66,316.23C184.55,317.74 183.87,319.21 184.17,319.50C184.46,319.79 187.36,320.39 190.60,320.82C193.86,321.26 197.73,321.21 199.24,320.71zM415.99,322.00C415.02,322.00 413.29,321.21 412.15,320.25C411.01,319.29 409.99,317.38 409.88,316.00C409.78,314.62 409.76,312.32 409.84,310.89C409.93,309.45 411.19,307.09 412.64,305.64C414.09,304.19 416.15,303.00 417.21,303.00C418.28,303.00 420.47,304.32 422.08,305.92C423.79,307.64 425.00,309.91 425.00,311.42C425.00,312.97 423.57,315.58 421.38,318.00C419.39,320.20 416.97,322.00 415.99,322.00zM168.75,320.69C173.94,320.16 174.92,319.66 178.75,315.61C181.09,313.14 183.00,310.64 183.00,310.06C183.00,309.48 182.10,309.00 181.01,309.00C179.92,309.00 176.70,309.88 173.85,310.96C171.01,312.04 167.41,314.15 165.84,315.65C164.28,317.15 163.00,319.03 163.00,319.83C163.00,321.00 164.12,321.17 168.75,320.69zM451.00,317.00C451.44,317.00 455.90,312.67 460.90,307.39C467.51,300.40 470.00,297.07 470.00,295.20C470.00,293.79 469.06,290.69 467.91,288.32C466.76,285.95 464.67,283.10 463.26,281.99C461.85,280.88 460.55,280.12 460.36,280.30C460.18,280.48 460.57,282.05 461.22,283.78C461.88,285.51 462.07,287.26 461.65,287.68C461.24,288.10 459.83,287.07 458.52,285.41C457.22,283.74 454.31,281.10 452.06,279.54C449.81,277.98 447.70,276.96 447.38,277.28C447.06,277.60 447.31,283.63 447.92,290.68C448.54,297.73 449.30,306.54 449.62,310.25C449.94,313.96 450.56,317.00 451.00,317.00zM599.08,301.91C601.60,301.96 606.24,301.48 609.38,300.85C612.69,300.19 615.43,299.03 615.91,298.10C616.36,297.22 616.99,294.14 617.31,291.25C617.91,286.00 617.91,286.00 615.03,286.00C613.44,286.00 608.66,286.48 604.40,287.08C598.70,287.87 593.87,287.84 586.08,286.97C580.26,286.32 573.97,285.15 572.10,284.38C570.22,283.61 568.50,283.16 568.27,283.39C568.04,283.63 568.53,285.13 569.36,286.73C570.19,288.34 572.72,291.32 574.99,293.37C577.25,295.42 580.32,297.58 581.80,298.18C583.29,298.78 586.75,299.85 589.50,300.55C592.25,301.26 596.56,301.87 599.08,301.91zM361.00,284.90C364.57,284.95 371.55,284.50 376.50,283.89C381.45,283.29 386.31,282.36 387.29,281.84C388.83,281.02 389.04,279.73 388.79,272.69C388.56,266.13 388.20,264.53 387.00,264.64C386.18,264.71 380.91,265.73 375.30,266.90C369.69,268.06 361.71,269.30 357.55,269.66C350.00,270.29 350.00,270.29 349.83,275.15C349.74,277.82 349.63,280.77 349.58,281.70C349.53,282.71 350.52,283.69 352.00,284.11C353.38,284.49 357.43,284.84 361.00,284.90zM600.54,279.97C606.39,279.99 613.07,279.36 616.54,278.47C619.82,277.63 623.62,276.14 625.00,275.16C626.38,274.18 628.32,271.71 629.33,269.69C630.34,267.67 631.79,262.41 632.56,258.02C633.32,253.62 634.24,246.51 634.60,242.21C635.15,235.62 634.99,234.13 633.56,232.70C632.18,231.32 629.92,231.00 621.56,231.00C613.16,231.00 610.83,230.67 608.88,229.18C607.57,228.18 605.04,226.78 603.26,226.06C600.97,225.15 597.80,224.97 592.50,225.47C588.36,225.86 583.16,225.87 580.94,225.49C578.56,225.09 577.06,224.33 577.28,223.65C577.49,223.02 578.53,222.34 579.58,222.15C580.64,221.96 581.84,221.48 582.26,221.09C582.68,220.70 582.52,212.30 581.90,202.44C581.15,190.45 580.31,183.75 579.36,182.25C578.22,180.42 577.05,180.00 573.13,180.00C569.58,180.00 567.83,180.53 566.50,182.00C564.85,183.83 564.74,185.51 565.28,201.27C565.61,210.77 566.40,219.88 567.05,221.52C567.70,223.16 568.34,225.40 568.48,226.50C568.63,227.60 568.80,228.77 568.87,229.09C568.94,229.41 571.68,231.76 574.95,234.30C579.59,237.90 581.04,239.68 581.55,242.40C581.91,244.32 582.04,246.38 581.84,246.98C581.64,247.58 579.87,245.91 577.90,243.28C575.63,240.26 571.86,237.07 567.64,234.61C561.22,230.86 560.81,230.39 556.96,222.17C554.76,217.48 551.82,212.14 550.43,210.32C548.76,208.12 547.05,207.00 545.40,207.00C544.03,207.00 541.80,208.10 540.45,209.45C539.10,210.80 538.00,212.98 538.00,214.30C538.00,215.61 538.87,219.22 539.94,222.33C541.01,225.43 543.76,231.57 546.05,235.98C548.35,240.39 550.57,244.00 551.00,244.00C551.43,244.00 552.04,243.35 552.34,242.55C552.65,241.75 552.72,240.14 552.50,238.98C552.27,237.81 552.45,237.01 552.89,237.18C553.34,237.36 556.47,240.02 559.85,243.10C564.61,247.43 566.43,249.92 567.89,254.10C568.93,257.07 571.03,262.43 572.55,266.00C574.07,269.57 576.04,273.26 576.91,274.18C577.78,275.10 581.20,276.77 584.50,277.89C588.92,279.40 593.14,279.94 600.54,279.97zM308.00,256.89C311.57,256.95 322.82,256.54 333.00,255.98C343.18,255.42 358.02,254.29 366.00,253.47C373.98,252.65 388.38,250.84 398.00,249.46C407.62,248.07 421.57,245.79 429.00,244.40C436.43,243.01 444.19,241.38 446.26,240.77C449.36,239.87 450.19,239.06 451.01,236.09C451.55,234.12 452.47,228.22 453.05,223.00C453.63,217.78 454.36,202.70 454.67,189.50C455.11,170.38 454.89,163.06 453.58,153.50C452.68,146.90 451.01,133.85 449.88,124.50C448.74,115.15 447.35,106.94 446.78,106.25C446.18,105.52 443.42,105.00 440.13,105.00C437.03,105.01 422.80,106.11 408.50,107.45C394.20,108.80 374.18,110.59 364.00,111.43C353.82,112.27 337.75,113.42 328.29,113.98C318.82,114.54 306.45,114.99 300.79,114.98C291.55,114.96 289.48,114.59 280.50,111.38C275.00,109.41 268.59,107.19 266.25,106.45C263.91,105.70 262.00,105.47 262.00,105.94C262.00,106.40 264.14,107.81 266.75,109.07C269.36,110.32 275.77,112.99 281.00,114.99C290.50,118.63 290.50,118.63 290.68,167.06C290.86,215.06 290.84,215.47 288.97,212.00C287.08,208.50 287.08,208.50 287.04,224.61C287.02,233.47 287.29,242.81 287.64,245.36C288.04,248.34 289.15,250.88 290.73,252.46C292.09,253.81 295.06,255.34 297.35,255.85C299.63,256.37 304.43,256.83 308.00,256.89zM373.50,236.66C367.45,236.98 362.27,237.00 362.00,236.71C361.73,236.42 355.88,236.02 349.00,235.83C336.50,235.48 336.50,235.48 334.65,231.70C333.63,229.63 332.56,226.14 332.27,223.96C331.83,220.71 332.04,220.00 333.42,220.00C334.34,220.00 336.54,220.78 338.30,221.74C340.97,223.20 343.99,223.47 356.50,223.39C364.75,223.33 374.88,222.72 379.00,222.02C383.12,221.33 389.41,219.87 392.96,218.77C396.51,217.68 400.99,215.72 402.92,214.41C404.99,213.00 406.79,212.39 407.32,212.92C407.85,213.45 407.14,215.81 405.58,218.68C404.13,221.35 401.12,225.65 398.91,228.25C395.82,231.85 393.66,233.32 389.69,234.51C386.84,235.37 379.55,236.33 373.50,236.66zM377.28,231.33C381.01,231.08 386.26,230.22 388.93,229.43C391.60,228.63 394.07,227.25 394.42,226.35C394.76,225.45 394.92,224.61 394.77,224.48C394.62,224.34 389.77,225.05 384.00,226.04C378.23,227.04 371.36,228.14 368.75,228.49C366.14,228.84 364.00,229.52 364.00,230.00C364.00,230.48 365.46,231.08 367.25,231.33C369.04,231.58 373.55,231.58 377.28,231.33zM618.10,227.00C621.28,227.00 622.21,226.56 622.88,224.75C623.34,223.51 624.25,216.98 624.92,210.23C625.58,203.49 625.82,196.96 625.44,195.73C625.07,194.50 624.07,192.71 623.23,191.75C622.33,190.73 620.28,190.00 618.32,190.00C615.74,190.00 614.75,190.53 614.10,192.25C613.63,193.49 612.74,199.70 612.12,206.05C611.51,212.41 611.00,219.01 611.00,220.73C611.00,222.45 611.71,224.56 612.57,225.43C613.47,226.33 615.84,227.00 618.10,227.00zM597.63,221.92C599.35,221.96 601.31,221.33 601.99,220.51C602.81,219.53 603.39,213.40 603.73,202.26C604.22,186.25 604.14,185.38 602.11,182.83C600.94,181.36 598.66,179.86 597.05,179.51C595.44,179.16 593.19,179.36 592.06,179.97C590.09,181.02 590.00,181.91 590.02,199.79C590.02,210.08 590.36,219.00 590.77,219.60C591.17,220.21 592.17,220.96 593.00,221.27C593.83,221.59 595.91,221.88 597.63,221.92zM239.78,216.00C240.76,216.00 242.67,215.24 244.03,214.31C245.39,213.37 247.35,211.69 248.38,210.56C249.42,209.43 251.18,206.47 252.30,204.00C253.55,201.25 254.51,196.58 254.77,192.00C255.04,187.21 254.62,182.05 253.61,177.73C252.73,174.00 251.06,169.05 249.89,166.73C248.72,164.40 246.16,160.53 244.21,158.13C242.26,155.73 239.25,153.17 237.52,152.44C235.42,151.57 233.18,151.40 230.80,151.93C228.84,152.37 226.71,153.06 226.07,153.46C225.29,153.94 226.16,155.54 228.73,158.34C230.83,160.63 233.51,164.07 234.68,166.00C235.85,167.93 237.79,172.65 238.99,176.50C240.31,180.76 241.38,187.42 241.70,193.50C242.15,202.09 241.93,204.27 240.11,209.00C238.95,212.03 238.00,214.84 238.00,215.25C238.00,215.66 238.80,216.00 239.78,216.00zM257.96,213.00C258.34,213.00 259.58,211.99 260.70,210.75C261.83,209.51 263.47,207.15 264.34,205.50C265.90,202.53 265.92,202.53 265.99,205.00C266.06,207.50 266.06,207.50 268.50,204.73C269.84,203.21 271.46,200.06 272.10,197.73C272.74,195.41 273.29,189.00 273.32,183.50C273.36,177.05 272.77,171.19 271.66,167.00C270.72,163.43 268.70,158.48 267.19,156.02C265.68,153.55 262.88,150.47 260.97,149.17C257.88,147.07 256.79,146.88 251.03,147.46C247.48,147.81 244.41,148.26 244.21,148.45C244.02,148.65 245.54,150.99 247.59,153.65C249.64,156.32 252.56,161.22 254.07,164.55C255.59,167.87 257.55,174.04 258.42,178.25C259.29,182.47 259.99,189.42 259.98,193.71C259.98,197.99 259.36,204.09 258.62,207.25C257.87,210.41 257.58,213.00 257.96,213.00zM374.00,209.90C370.98,209.87 367.26,209.39 365.75,208.84C364.24,208.29 363.00,207.35 363.00,206.75C363.00,206.16 364.06,203.84 365.36,201.59C366.66,199.34 368.72,194.46 369.94,190.75C371.16,187.04 372.54,184.00 373.00,184.00C373.45,184.00 374.11,187.49 374.46,191.75C374.81,196.01 375.45,200.18 375.90,201.00C376.37,201.88 378.47,202.63 381.02,202.82C384.19,203.05 386.08,202.57 388.19,201.02C389.76,199.86 391.48,199.18 392.02,199.51C392.56,199.85 393.00,200.91 393.00,201.88C393.00,202.86 391.99,204.60 390.75,205.76C389.51,206.93 386.48,208.34 384.00,208.91C381.52,209.48 377.02,209.93 374.00,209.90zM227.88,206.99C228.22,206.98 229.49,206.71 230.71,206.38C232.15,205.99 233.50,204.27 234.59,201.39C235.80,198.23 236.13,195.24 235.75,190.75C235.46,187.31 234.26,182.03 233.10,179.00C231.93,175.97 230.11,172.38 229.06,171.01C228.00,169.65 226.88,168.78 226.57,169.09C226.26,169.40 226.86,173.55 227.90,178.31C228.94,183.07 230.81,189.42 232.05,192.42C234.22,197.64 234.24,197.98 232.60,200.49C231.24,202.57 230.21,203.05 227.71,202.81C224.54,202.50 224.54,202.50 224.39,192.99C224.29,186.87 223.66,182.13 222.63,179.67C221.50,176.96 220.52,175.94 219.27,176.18C217.82,176.46 217.44,177.77 217.18,183.51C217.01,187.35 217.38,192.23 218.00,194.35C218.63,196.46 220.96,200.18 223.20,202.60C225.43,205.02 227.53,206.99 227.88,206.99zM417.28,204.66C411.35,205.11 409.00,204.97 409.00,204.15C409.00,203.52 409.24,203.00 409.54,203.00C409.84,203.00 413.54,202.29 417.76,201.42C421.97,200.54 426.72,199.16 428.29,198.35C429.87,197.53 431.76,195.43 432.50,193.67C433.23,191.90 434.13,187.32 434.50,183.48C434.87,179.64 434.72,173.80 434.17,170.50C433.62,167.20 432.60,163.15 431.91,161.50C430.69,158.60 430.62,158.73 429.93,165.65C429.54,169.58 428.71,174.36 428.08,176.26C427.45,178.17 425.30,181.37 423.30,183.37C421.30,185.36 418.06,187.45 416.08,187.99C414.11,188.54 410.48,188.98 408.00,188.97C405.52,188.96 401.54,188.07 399.15,186.98C396.76,185.90 394.47,185.21 394.07,185.46C393.66,185.71 393.53,187.28 393.78,188.96C394.03,190.63 393.93,192.00 393.56,192.00C393.19,192.00 391.73,189.48 390.32,186.39C388.21,181.78 387.75,179.26 387.73,172.14C387.71,165.30 388.18,162.40 389.99,158.21C391.29,155.21 393.95,151.49 396.11,149.63C398.22,147.83 402.33,145.15 405.24,143.68C408.88,141.83 412.08,141.00 415.51,141.01C419.23,141.02 421.85,141.79 425.80,144.06C429.25,146.04 432.12,148.70 434.01,151.68C435.60,154.19 437.48,158.78 438.19,161.87C438.94,165.18 439.42,173.38 439.36,181.73C439.27,193.05 438.92,196.48 437.63,198.45C436.59,200.02 434.11,201.48 430.78,202.47C427.91,203.32 421.84,204.31 417.28,204.66zM331.50,195.26C328.75,195.51 324.62,195.30 322.31,194.81C319.48,194.20 317.14,192.79 315.09,190.45C313.42,188.55 311.31,184.44 310.41,181.33C309.36,177.72 308.97,173.94 309.32,170.91C309.63,168.30 311.02,163.92 312.40,161.19C313.79,158.46 316.84,154.58 319.18,152.58C321.59,150.51 325.76,148.25 328.78,147.38C333.22,146.08 334.95,146.03 339.16,147.04C342.03,147.73 345.70,149.55 347.65,151.26C349.53,152.92 352.14,156.13 353.45,158.39C354.75,160.65 356.33,165.06 356.97,168.19C357.60,171.31 357.80,175.59 357.42,177.69C357.04,179.78 355.92,183.12 354.92,185.10C353.93,187.08 351.97,189.45 350.56,190.37C349.16,191.29 345.42,192.66 342.26,193.43C339.09,194.19 334.25,195.02 331.50,195.26zM462.44,196.00C462.72,196.00 463.58,194.76 464.36,193.25C465.14,191.74 466.56,186.94 467.52,182.58C468.80,176.80 469.12,172.33 468.71,165.98C468.40,161.20 467.42,155.56 466.54,153.43C465.65,151.31 464.20,148.77 463.31,147.79C462.42,146.80 461.02,146.00 460.19,146.00C458.91,146.00 458.79,147.63 459.36,157.25C459.73,163.44 460.28,174.12 460.60,181.00C460.91,187.88 461.34,194.06 461.55,194.75C461.76,195.44 462.16,196.00 462.44,196.00zM445.79,185.10C445.59,191.71 445.28,193.61 444.76,191.50C444.35,189.85 443.35,182.42 442.54,174.99C441.74,167.57 440.37,158.12 439.52,153.99C438.66,149.87 437.45,144.93 436.83,143.00C436.20,141.07 434.56,138.01 433.18,136.18C431.79,134.36 428.96,132.00 426.87,130.93C424.79,129.87 421.32,129.00 419.17,129.00C417.01,129.00 413.37,129.66 411.07,130.48C408.77,131.29 404.33,133.73 401.19,135.90C398.06,138.08 394.60,140.00 393.50,140.18C391.98,140.42 391.58,140.02 391.84,138.50C392.03,137.40 393.67,134.69 395.48,132.47C397.29,130.26 401.19,127.13 404.14,125.52C408.81,122.98 410.53,122.60 417.50,122.62C423.64,122.64 426.43,123.13 429.50,124.74C431.70,125.88 434.94,128.33 436.71,130.17C438.47,132.00 440.62,135.50 441.48,137.94C442.34,140.38 443.73,149.87 444.56,159.04C445.40,168.20 445.95,179.93 445.79,185.10zM335.60,192.00C337.03,192.00 339.69,191.29 341.51,190.43C343.34,189.56 346.11,187.01 347.67,184.76C350.13,181.20 350.50,179.75 350.50,173.51C350.50,167.55 350.09,165.75 348.05,162.77C346.70,160.80 344.38,158.47 342.89,157.59C341.41,156.72 338.75,156.00 336.98,156.00C334.58,156.00 332.78,156.98 329.88,159.88C327.75,162.02 326.00,164.44 326.00,165.27C326.00,166.10 326.82,167.79 327.82,169.03C329.60,171.22 329.71,171.24 332.35,169.50C333.84,168.53 335.37,168.04 335.75,168.42C336.13,168.80 336.62,172.22 336.83,176.03C337.15,181.74 336.85,183.58 335.11,186.54C333.95,188.50 333.00,190.54 333.00,191.06C333.00,191.58 334.17,192.00 335.60,192.00zM474.02,190.49C474.41,190.25 475.35,187.90 476.11,185.28C476.90,182.55 477.50,175.99 477.50,170.00C477.50,161.29 477.12,158.69 475.30,154.74C474.09,152.12 472.38,149.70 471.51,149.36C470.63,149.03 469.75,148.92 469.54,149.13C469.33,149.33 469.81,151.98 470.60,155.00C471.39,158.03 472.32,167.35 472.67,175.71C473.02,184.08 473.63,190.73 474.02,190.49zM419.06,166.92C419.93,166.96 421.31,165.54 422.14,163.75C423.15,161.59 423.41,159.38 422.93,157.16C422.54,155.32 421.83,153.46 421.36,153.02C420.89,152.58 419.51,151.93 418.30,151.56C416.78,151.10 415.47,151.53 414.05,152.95C412.92,154.08 412.00,156.15 412.00,157.55C412.00,158.95 412.67,161.39 413.48,162.96C414.29,164.53 415.53,166.05 416.23,166.33C416.93,166.61 418.20,166.88 419.06,166.92zM403.63,165.00C404.32,165.00 405.59,164.00 406.44,162.78C407.30,161.56 408.00,159.11 408.00,157.34C408.00,155.57 407.54,153.83 406.98,153.49C406.42,153.14 404.44,153.80 402.58,154.95C400.72,156.10 398.93,157.74 398.60,158.60C398.27,159.46 398.00,160.33 398.00,160.54C398.00,160.75 398.98,161.84 400.19,162.96C401.39,164.08 402.94,165.00 403.63,165.00zM348.25,142.96C347.84,142.94 343.45,141.34 338.50,139.40C333.55,137.47 326.80,135.63 323.50,135.33C318.84,134.91 316.27,135.26 312.00,136.89C308.98,138.05 306.39,139.00 306.25,139.00C306.11,139.00 306.00,137.91 306.00,136.57C306.00,135.04 307.05,133.39 308.85,132.11C310.42,130.99 313.91,129.58 316.60,128.97C319.32,128.36 324.17,128.15 327.50,128.51C330.80,128.86 335.84,130.26 338.70,131.62C341.57,132.99 345.05,135.46 346.45,137.13C347.85,138.79 349.00,140.79 349.00,141.58C349.00,142.36 348.66,142.98 348.25,142.96zM328.00,108.61C348.58,108.31 360.86,107.55 383.00,105.17C398.68,103.50 417.35,101.62 424.50,101.00C431.65,100.38 437.91,99.47 438.41,98.98C438.96,98.44 438.36,97.71 436.91,97.16C435.59,96.66 426.85,93.70 417.50,90.57C408.15,87.45 397.01,84.38 392.75,83.74C387.26,82.93 384.70,82.90 383.94,83.66C383.18,84.42 383.35,85.21 384.51,86.37C386.03,87.89 385.98,88.07 383.83,88.89C382.43,89.42 381.03,89.39 380.31,88.81C379.65,88.28 378.98,86.65 378.81,85.18C378.53,82.78 378.04,82.47 374.06,82.18C371.62,82.01 368.61,82.40 367.39,83.06C366.16,83.72 363.99,83.96 362.58,83.61C360.22,83.02 360.00,82.51 359.99,77.73C359.98,74.85 359.70,71.49 359.37,70.25C358.86,68.36 358.08,68.00 354.44,68.00C352.06,68.00 349.80,68.51 349.42,69.13C349.03,69.76 348.80,73.13 348.89,76.63C349.05,82.34 348.87,83.00 347.12,83.00C346.04,83.00 344.45,83.27 343.58,83.61C342.71,83.94 342.00,84.81 342.00,85.53C342.00,86.25 343.24,87.09 344.75,87.39C346.26,87.69 349.07,88.19 351.00,88.51C352.93,88.83 357.58,88.65 361.33,88.11C365.09,87.57 368.82,87.38 369.61,87.68C370.64,88.08 370.76,88.59 370.01,89.49C369.43,90.18 366.83,91.36 364.23,92.10C361.63,92.84 355.00,93.44 349.50,93.44C342.34,93.44 338.43,92.96 335.75,91.77C333.58,90.81 332.00,89.40 332.00,88.44C332.00,86.99 331.22,86.86 326.25,87.45C323.09,87.83 315.77,89.05 310.00,90.17C304.23,91.29 298.86,92.56 298.07,92.99C297.02,93.57 297.73,94.33 300.75,95.87C303.01,97.02 308.15,98.84 312.18,99.91C316.20,100.98 321.41,102.16 323.74,102.52C326.08,102.88 328.23,103.56 328.52,104.04C328.82,104.51 327.44,105.20 325.47,105.57C323.50,105.94 319.55,105.93 316.70,105.56C313.84,105.18 307.45,103.02 302.50,100.75C295.38,97.49 292.04,96.55 286.50,96.23C282.65,96.01 278.19,96.34 276.59,96.95C274.86,97.62 274.05,98.44 274.59,98.96C275.09,99.45 279.09,101.27 283.47,103.00C287.85,104.73 293.70,106.79 296.47,107.57C300.42,108.69 307.21,108.91 328.00,108.61zM356.95,61.00C357.33,61.00 358.60,59.99 359.75,58.75C360.91,57.51 362.15,55.29 362.52,53.80C362.89,52.32 362.68,49.57 362.07,47.70C361.41,45.71 359.89,43.82 358.42,43.15C357.04,42.52 355.43,42.00 354.85,42.00C354.28,42.00 352.33,42.70 350.54,43.55C348.75,44.40 346.76,46.22 346.14,47.60C345.51,48.97 345.00,51.33 345.00,52.85C345.00,54.36 345.54,56.14 346.20,56.80C346.86,57.46 348.83,58.00 350.58,58.00C352.33,58.00 354.32,58.67 355.00,59.50C355.68,60.33 356.56,61.00 356.95,61.00z"/>
</svg>