<?xml version="1.0" encoding="UTF-8" standalone="no"?>
<svg 
  version="1.1" 
  xmlns="http://www.w3.org/2000/svg" 
  xmlns:xlink="http://www.w3.org/1999/xlink" 
  xmlns:svg="http://www.w3.org/2000/svg"
  xmlns:rdf="http://www.w3.org/1999/02/22-rdf-syntax-ns#"
  xmlns:cc="http://creativecommons.org/ns#"
  xmlns:dc="http://purl.org/dc/elements/1.1/"
  viewBox="0 0 768 768"
  width="768"
  height="768"
>
<style>svg {background-color: white; }</style>"
<metadata id="metadata1">
Created by https://svgstud.io and licensed under CC-BY-SA 4.0 license. Please attribute https://svgstud.io
</metadata>
<metadata id="prompt">
cartoon style!!, monochrome, robot saying hi, plain background
</metadata>
<metadata id="version">
7
</metadata>
<metadata id="metadata2">
<rdf:RDF>
<cc:Work
    rdf:about="">
    <cc:license
    rdf:resource="http://creativecommons.org/licenses/by-sa/4.0/" />
    <dc:creator>
        <cc:Agent>
            <dc:title>https://svgstud.io</dc:title>
        </cc:Agent>
    </dc:creator>
</cc:Work>
<cc:License
    rdf:about="http://creativecommons.org/licenses/by-sa/4.0/">
    <cc:permits
    rdf:resource="http://creativecommons.org/ns#Reproduction" />
    <cc:permits
    rdf:resource="http://creativecommons.org/ns#Distribution" />
    <cc:requires
    rdf:resource="http://creativecommons.org/ns#Notice" />
    <cc:requires
    rdf:resource="http://creativecommons.org/ns#Attribution" />
    <cc:permits
    rdf:resource="http://creativecommons.org/ns#DerivativeWorks" />
    <cc:requires
    rdf:resource="http://creativecommons.org/ns#ShareAlike" />
</cc:License>
</rdf:RDF>
</metadata>
<metadata id="uid">
2866d07bf5d3993fb34c21496ccfe12aaaacb14970f26eb3eafcdf42033b5ad2
</metadata>
<path stroke="none" fill="black" fill-rule="evenodd" d="M346.50,738.37C337.70,738.63 324.65,738.45 317.50,737.96C310.35,737.47 299.55,736.35 293.50,735.47C287.45,734.59 278.45,732.98 273.51,731.88C268.57,730.79 261.24,728.79 257.24,727.45C253.24,726.10 248.18,723.88 246.01,722.50C243.83,721.13 241.39,718.99 240.58,717.75C239.76,716.51 238.81,713.68 238.46,711.47C238.10,709.25 238.31,702.46 238.92,696.38C239.53,690.31 240.70,682.75 241.52,679.59C242.34,676.43 244.17,671.49 245.58,668.61C246.99,665.73 250.00,661.20 252.27,658.55C254.86,655.51 258.32,652.86 261.55,651.44C264.38,650.19 269.51,648.61 272.95,647.93C277.20,647.09 284.43,646.89 295.57,647.28C311.94,647.86 311.94,647.86 312.55,644.56C312.90,642.74 312.89,637.94 312.54,633.88C312.19,629.82 311.68,620.12 311.40,612.33C311.07,603.06 310.48,597.83 309.70,597.21C309.04,596.69 306.02,595.48 303.00,594.52C299.98,593.56 295.58,591.68 293.24,590.34C290.90,589.00 288.26,586.80 287.38,585.46C286.18,583.62 285.44,577.91 284.43,562.75C283.69,551.61 282.77,532.74 282.39,520.81C282.00,508.88 281.38,498.62 281.00,498.01C280.63,497.40 277.48,496.24 274.01,495.43C270.55,494.62 267.51,494.15 267.27,494.39C267.04,494.63 265.94,498.58 264.84,503.16C263.75,507.75 262.26,512.85 261.55,514.50C260.83,516.15 259.97,520.02 259.63,523.11C259.07,528.21 259.28,529.08 261.90,532.71C263.49,534.90 265.46,538.00 266.27,539.60C267.18,541.37 268.22,548.52 268.95,558.00C269.61,566.52 270.78,578.45 271.55,584.50C272.41,591.20 272.63,596.87 272.13,599.00C271.69,600.92 270.59,603.91 269.69,605.63C268.80,607.35 266.69,609.93 264.99,611.35C263.30,612.78 260.24,614.39 258.20,614.93C255.91,615.55 253.00,615.58 250.57,615.03C247.13,614.24 246.27,614.43 243.77,616.54C242.20,617.86 239.17,619.47 237.05,620.10C234.88,620.75 231.58,620.96 229.51,620.57C227.27,620.15 224.14,618.33 221.55,615.94C217.72,612.41 216.74,612.00 212.10,612.00C208.99,612.00 205.44,611.24 203.21,610.11C201.17,609.06 198.73,607.36 197.79,606.32C196.85,605.28 195.38,602.77 194.54,600.75C193.69,598.72 193.00,594.89 193.00,592.23C193.00,589.57 192.46,586.86 191.80,586.20C191.14,585.54 189.75,585.00 188.70,585.00C187.66,585.00 185.31,583.51 183.49,581.69C181.13,579.33 179.99,577.10 179.54,573.94C179.16,571.32 179.52,566.29 180.42,561.66C181.25,557.34 183.09,551.30 184.49,548.23C186.22,544.47 189.56,540.20 194.77,535.08C199.07,530.86 204.72,526.44 207.50,525.11C210.25,523.80 213.58,522.23 214.90,521.61C216.91,520.68 217.59,519.11 219.06,512.00C220.02,507.32 221.53,500.82 222.41,497.54C223.28,494.26 224.00,490.83 224.00,489.92C224.00,489.01 222.03,486.29 219.62,483.88C216.05,480.31 215.02,478.41 214.02,473.62C213.30,470.14 213.08,465.43 213.48,462.12C213.85,459.03 215.17,454.25 216.41,451.50C217.65,448.75 220.75,444.40 223.31,441.85C225.87,439.29 229.94,436.24 232.35,435.07C234.77,433.90 239.43,432.47 242.72,431.89C246.90,431.16 250.40,431.16 254.39,431.89C257.52,432.47 261.69,433.71 263.65,434.64C265.61,435.57 269.23,438.31 271.68,440.73C274.13,443.14 276.67,444.94 277.31,444.73C277.96,444.51 278.77,442.60 279.12,440.48C279.47,438.34 280.70,435.85 281.89,434.89C283.11,433.90 286.70,432.88 290.26,432.50C293.69,432.15 303.70,431.55 312.50,431.18C328.50,430.50 328.50,430.50 328.31,413.65C328.21,404.38 327.90,396.57 327.63,396.30C327.36,396.02 316.86,397.29 304.32,399.12C285.68,401.83 278.39,402.44 264.50,402.47C247.50,402.50 247.50,402.50 236.50,398.73C230.45,396.65 220.98,392.70 215.44,389.93C209.91,387.17 203.51,383.09 201.22,380.86C198.88,378.60 196.59,375.20 196.02,373.16C195.45,371.14 194.13,364.32 193.08,358.00C192.03,351.68 190.89,344.42 190.54,341.87C189.93,337.34 189.83,337.23 185.71,336.59C183.39,336.24 179.40,335.26 176.83,334.42C174.26,333.58 170.09,331.07 167.56,328.85C165.04,326.62 161.90,322.93 160.60,320.65C159.29,318.37 157.30,313.57 156.17,310.00C155.04,306.43 153.58,300.03 152.93,295.78C152.25,291.40 151.96,283.61 152.25,277.78C152.58,271.29 153.46,265.71 154.64,262.64C155.66,259.97 157.99,256.04 159.81,253.92C161.68,251.72 165.81,248.76 169.32,247.08C172.74,245.45 178.68,243.26 182.52,242.21C189.50,240.30 189.50,240.30 190.07,217.90C190.40,204.93 191.12,194.37 191.77,192.82C192.39,191.35 195.28,188.37 198.20,186.21C201.11,184.04 206.84,180.34 210.92,177.99C215.00,175.64 222.20,171.93 226.92,169.74C231.64,167.55 239.55,164.19 244.50,162.27C249.45,160.35 258.68,157.00 265.00,154.83C271.32,152.65 282.29,149.35 289.36,147.49C296.44,145.63 302.48,143.85 302.79,143.54C303.11,143.22 303.25,138.26 303.11,132.51C302.85,122.32 302.92,121.98 305.50,119.59C307.40,117.82 308.06,116.35 307.82,114.32C307.51,111.56 307.34,111.49 299.96,110.96C294.52,110.58 291.39,109.79 288.68,108.11C286.62,106.84 283.94,103.93 282.73,101.65C280.96,98.32 280.52,95.83 280.51,89.00C280.50,81.53 280.83,79.94 283.23,75.86C284.73,73.30 287.43,69.97 289.23,68.45C291.03,66.93 294.45,64.82 296.83,63.76C299.20,62.70 303.51,61.60 306.40,61.30C309.76,60.95 313.60,61.33 317.07,62.34C320.06,63.22 324.15,65.30 326.16,66.96C328.17,68.63 330.99,72.34 332.41,75.19C334.42,79.22 335.00,81.87 334.98,86.95C334.96,91.22 334.29,94.96 333.05,97.70C332.00,100.00 330.21,102.47 329.07,103.19C327.52,104.16 327.00,105.52 327.00,108.62C327.00,110.89 327.56,113.20 328.25,113.75C328.94,114.29 331.16,115.04 333.19,115.40C335.53,115.82 337.81,117.17 339.41,119.08C340.98,120.94 342.19,123.92 342.58,126.91C342.94,129.57 343.53,132.23 343.90,132.83C344.37,133.60 347.48,133.44 354.53,132.27C362.10,131.02 371.50,130.61 393.50,130.56C419.63,130.51 423.77,130.73 435.31,132.82C442.36,134.09 452.75,136.43 458.41,138.02C464.07,139.61 473.41,142.92 479.18,145.38C484.94,147.85 492.32,151.43 495.58,153.35C498.83,155.27 503.19,158.59 505.26,160.73C507.33,162.87 509.48,166.16 510.02,168.06C510.57,169.95 511.54,179.23 512.17,188.68C513.32,205.85 513.32,205.85 517.87,207.59C520.37,208.54 524.51,211.42 527.07,213.97C530.11,217.01 532.47,220.64 533.90,224.47C535.11,227.69 536.61,234.98 537.25,240.66C538.11,248.37 538.12,253.25 537.28,259.88C536.67,264.76 535.26,270.52 534.17,272.68C533.07,274.83 530.15,278.45 527.68,280.73C525.21,283.00 521.35,285.42 519.09,286.09C516.83,286.77 514.60,287.81 514.14,288.41C513.68,289.01 512.74,297.82 512.05,308.00C511.36,318.18 510.22,330.43 509.51,335.22C508.80,340.02 507.36,345.41 506.31,347.21C505.26,349.01 502.35,351.74 499.85,353.29C497.34,354.84 489.28,358.11 481.93,360.56C474.58,363.01 458.65,367.45 446.53,370.44C434.41,373.42 418.20,377.36 410.50,379.18C397.85,382.18 396.54,382.69 396.90,384.50C397.12,385.60 397.57,395.95 397.90,407.50C398.50,428.50 398.50,428.50 420.00,429.11C431.82,429.44 442.85,430.07 444.50,430.50C446.15,430.93 448.73,431.90 450.23,432.66C451.74,433.41 453.71,435.49 454.61,437.27C455.51,439.05 456.38,440.65 456.53,440.82C456.69,441.00 458.64,439.83 460.87,438.21C463.10,436.60 466.17,434.75 467.71,434.11C469.85,433.21 471.16,431.31 473.33,425.96C474.89,422.12 478.14,416.56 480.55,413.60C482.96,410.64 487.08,406.64 489.71,404.71C492.35,402.78 496.75,400.55 499.50,399.75C504.50,398.30 504.50,398.30 505.73,390.97C506.41,386.94 507.67,381.49 508.54,378.87C509.41,376.25 512.57,370.32 515.57,365.71C519.41,359.78 521.28,355.72 521.95,351.90C522.47,348.93 523.35,343.35 523.91,339.50C524.76,333.63 525.42,332.06 527.98,329.75C530.32,327.64 532.04,327.00 535.37,327.00C538.23,327.00 540.86,327.78 543.09,329.28C544.95,330.53 547.41,333.24 548.57,335.30C550.52,338.79 550.76,338.92 552.16,337.27C552.98,336.29 556.24,331.35 559.40,326.28C562.56,321.21 566.47,315.94 568.10,314.57C569.73,313.20 572.62,311.79 574.53,311.43C576.44,311.07 579.62,311.08 581.61,311.45C583.74,311.85 586.87,313.67 589.24,315.88C592.72,319.13 593.33,320.34 593.77,324.91C594.25,329.92 594.51,330.33 598.92,333.05C601.48,334.62 605.51,338.29 607.89,341.20C610.26,344.12 613.31,348.38 614.66,350.68C616.01,352.99 618.66,355.78 620.56,356.90C622.45,358.02 625.36,361.08 627.03,363.70C628.69,366.32 630.53,370.26 631.12,372.44C631.71,374.63 631.90,378.23 631.55,380.46C631.19,382.68 629.01,387.41 626.70,390.97C624.39,394.52 619.58,400.45 616.00,404.14C611.05,409.25 608.46,411.12 605.14,411.99C602.74,412.62 599.14,412.87 597.14,412.55C593.60,411.97 593.40,412.11 590.00,417.57C588.08,420.65 584.24,425.32 581.47,427.93C578.31,430.93 574.27,433.50 570.55,434.90C565.65,436.73 562.84,437.07 554.07,436.92C543.50,436.73 543.50,436.73 538.73,443.61C536.10,447.40 531.28,453.50 528.00,457.16C524.72,460.82 520.68,464.42 519.02,465.15C517.36,465.89 516.00,466.94 515.99,467.49C515.98,468.05 514.83,470.98 513.43,474.00C512.02,477.02 509.66,480.78 508.19,482.34C506.71,483.91 503.30,486.31 500.61,487.68C497.92,489.05 493.42,490.39 490.61,490.66C487.54,490.95 483.59,490.55 480.71,489.66C476.17,488.25 475.62,488.29 470.21,490.50C464.50,492.83 464.50,492.83 464.50,537.33C464.50,580.84 464.45,581.90 462.42,584.67C461.27,586.23 458.80,588.29 456.92,589.25C455.04,590.21 451.81,591.65 449.75,592.45C446.00,593.90 446.00,593.90 446.00,607.31C446.00,619.22 445.77,621.02 444.00,623.27C442.55,625.11 442.00,627.33 442.00,631.28C442.00,634.29 442.29,638.22 442.65,640.01C443.31,643.28 443.31,643.28 452.06,642.66C456.88,642.31 466.60,642.48 473.66,643.03C480.72,643.57 488.77,644.62 491.54,645.36C494.32,646.10 498.32,647.53 500.45,648.54C502.57,649.55 505.81,651.88 507.65,653.72C509.49,655.56 512.07,659.19 513.39,661.78C514.70,664.38 516.29,668.30 516.91,670.50C517.54,672.70 518.71,679.00 519.51,684.50C520.31,690.00 520.97,699.49 520.98,705.60C521.00,714.93 520.72,716.93 519.25,718.22C518.29,719.07 516.15,720.42 514.50,721.23C512.85,722.04 508.57,723.42 505.00,724.29C501.43,725.16 493.68,726.58 487.78,727.45C481.89,728.32 470.42,729.41 462.30,729.88C454.17,730.35 440.32,730.35 431.51,729.89C422.71,729.43 412.12,728.57 408.00,727.98C403.88,727.40 399.29,726.68 397.81,726.39C395.56,725.95 394.85,726.38 393.49,729.01C392.58,730.78 390.41,732.77 388.53,733.55C386.69,734.32 380.09,735.61 373.85,736.42C367.61,737.23 355.30,738.11 346.50,738.37zM337.44,708.35C341.32,708.01 344.98,707.35 345.56,706.90C346.28,706.34 346.36,703.50 345.83,698.28C345.39,694.00 344.30,687.29 343.40,683.37C342.49,679.44 341.96,675.62 342.21,674.88C342.52,673.93 343.44,674.37 345.30,676.38C346.75,677.95 348.86,681.69 349.99,684.70C351.11,687.71 352.53,693.39 353.14,697.33C353.75,701.28 354.40,705.06 354.59,705.75C354.78,706.44 356.28,707.00 357.92,707.00C359.56,707.00 362.07,706.47 363.49,705.82C365.87,704.74 366.02,704.30 365.44,700.07C365.10,697.56 364.37,693.70 363.82,691.50C363.27,689.30 361.70,685.25 360.34,682.50C358.97,679.75 356.67,676.25 355.21,674.72C353.75,673.19 350.60,670.79 348.21,669.38C345.82,667.98 340.63,665.73 336.68,664.38C332.73,663.03 326.08,661.06 321.90,659.98C317.73,658.91 309.38,657.60 303.37,657.08C296.96,656.51 288.71,656.47 283.46,656.96C278.53,657.43 272.58,658.57 270.24,659.51C267.81,660.49 264.09,663.34 261.55,666.16C259.10,668.88 256.12,673.66 254.91,676.80C253.47,680.54 252.68,684.91 252.61,689.50C252.50,696.50 252.50,696.50 259.50,698.84C263.35,700.13 269.88,702.02 274.00,703.04C278.12,704.05 286.58,705.59 292.78,706.44C298.99,707.30 308.04,708.00 312.90,708.00C321.72,708.00 321.72,708.00 322.35,702.75C322.70,699.86 322.99,694.80 323.00,691.50C323.02,688.20 323.30,684.49 323.63,683.25C323.96,682.01 324.59,681.00 325.03,681.00C325.47,681.00 326.32,683.27 326.92,686.05C327.51,688.83 328.00,694.59 328.00,698.85C328.00,703.51 328.47,707.07 329.19,707.79C330.01,708.61 332.56,708.79 337.44,708.35zM378.37,703.80C382.50,703.50 382.50,703.50 382.29,694.62C382.17,689.58 381.35,683.57 380.40,680.71C379.17,676.99 378.87,673.67 379.27,667.87C379.59,663.28 380.57,658.53 381.65,656.34C382.67,654.30 384.74,651.72 386.25,650.62C387.76,649.51 392.71,647.89 397.25,647.01C405.50,645.41 405.50,645.41 405.79,635.10C405.99,627.80 405.70,624.34 404.79,623.25C403.98,622.28 403.31,617.41 403.00,610.10C402.50,598.50 402.50,598.50 395.50,598.75C391.65,598.89 381.83,599.42 373.67,599.91C365.52,600.41 358.55,601.12 358.17,601.49C357.80,601.86 357.27,608.54 357.00,616.33C356.73,624.12 356.10,631.12 355.62,631.87C355.13,632.62 354.68,639.47 354.62,647.08C354.50,660.93 354.50,660.93 359.21,664.98C362.28,667.63 364.93,671.21 366.83,675.27C368.43,678.70 370.44,684.42 371.29,688.00C372.15,691.58 373.16,696.66 373.55,699.30C374.24,704.10 374.24,704.10 378.37,703.80zM440.00,703.78C442.48,703.82 447.96,703.54 452.19,703.16C456.42,702.77 460.11,702.23 460.39,701.94C460.67,701.66 461.35,694.47 461.89,685.96C462.43,677.46 463.46,668.77 464.18,666.65C464.91,664.54 465.95,662.85 466.50,662.90C467.12,662.96 467.60,670.30 467.77,682.11C468.04,701.22 468.04,701.22 472.77,700.51C475.37,700.12 477.77,699.64 478.10,699.43C478.43,699.23 479.02,692.86 479.41,685.28C479.80,677.70 480.47,671.14 480.90,670.71C481.33,670.27 482.20,670.53 482.82,671.29C483.45,672.04 484.41,675.77 484.96,679.58C485.51,683.39 485.97,689.15 485.98,692.39C486.00,698.28 486.00,698.28 491.25,697.64C494.14,697.29 498.75,696.44 501.50,695.75C506.50,694.50 506.50,694.50 506.80,689.41C506.96,686.61 506.42,681.07 505.59,677.10C504.76,673.13 503.05,668.03 501.79,665.78C500.53,663.52 498.38,660.85 497.00,659.85C495.62,658.84 490.90,657.06 486.50,655.88C479.92,654.11 475.57,653.72 462.00,653.67C452.93,653.63 434.53,654.05 421.13,654.60C396.75,655.59 396.75,655.59 393.93,658.76C392.37,660.49 390.35,664.30 389.42,667.21C388.50,670.12 387.53,676.84 387.26,682.15C386.96,688.22 387.22,693.12 387.97,695.40C388.75,697.76 389.90,699.15 391.33,699.45C392.52,699.69 397.32,700.42 402.00,701.06C406.68,701.71 416.12,702.56 423.00,702.96C429.88,703.36 437.52,703.73 440.00,703.78zM338.20,652.66C343.98,652.52 344.97,652.23 345.43,650.50C345.73,649.40 345.98,645.46 345.99,641.75C346.00,635.00 346.00,635.00 342.75,634.99C340.96,634.99 335.03,634.31 329.56,633.49C321.64,632.30 319.46,632.25 318.83,633.25C318.39,633.94 318.02,637.71 318.02,641.63C318.00,648.48 318.11,648.80 320.75,649.87C322.26,650.48 325.30,651.39 327.50,651.90C329.70,652.41 334.51,652.75 338.20,652.66zM422.08,645.00C430.04,645.00 431.04,644.79 432.05,642.90C432.76,641.58 432.93,638.67 432.50,635.04C431.83,629.27 431.83,629.27 425.77,628.63C422.44,628.29 418.22,628.00 416.41,628.00C414.60,628.00 412.83,628.47 412.48,629.04C412.12,629.61 412.15,633.43 412.54,637.54C413.23,645.00 413.23,645.00 422.08,645.00zM333.00,624.79C337.12,624.78 341.81,624.48 343.41,624.13C346.31,623.50 346.32,623.46 346.61,615.25C346.90,607.00 346.90,607.00 338.03,607.00C333.15,607.00 326.87,606.47 324.08,605.83C321.29,605.19 318.76,604.91 318.46,605.21C318.15,605.51 317.64,608.96 317.31,612.86C316.89,617.88 317.08,620.40 317.98,621.48C318.68,622.32 320.66,623.42 322.38,623.91C324.09,624.41 328.88,624.81 333.00,624.79zM420.13,619.00C424.39,619.00 429.02,618.56 430.43,618.02C432.91,617.09 433.00,616.74 433.00,608.68C433.00,600.30 433.00,600.30 422.75,600.72C417.11,600.96 411.94,601.32 411.25,601.54C410.40,601.81 410.00,604.28 410.00,609.27C410.00,613.64 410.48,617.08 411.20,617.80C411.93,618.53 415.45,619.00 420.13,619.00zM230.99,612.00C232.04,612.00 234.01,611.50 235.37,610.88C236.72,610.26 238.10,608.80 238.42,607.63C238.74,606.46 239.30,599.97 239.66,593.20C240.31,580.91 240.31,580.91 232.91,581.20C225.50,581.50 225.50,581.50 225.22,594.53C224.97,606.53 225.11,607.74 227.01,609.78C228.15,611.00 229.94,612.00 230.99,612.00zM253.00,607.42C254.38,607.10 256.35,606.09 257.39,605.17C258.43,604.25 260.11,601.70 261.12,599.50C262.13,597.30 262.97,593.36 262.98,590.75C263.00,586.00 263.00,586.00 255.00,586.00C247.00,586.00 247.00,586.00 247.00,595.95C247.00,604.36 247.27,606.06 248.75,606.94C249.71,607.52 251.62,607.73 253.00,607.42zM211.13,603.98C212.57,603.99 214.32,603.32 215.00,602.50C215.69,601.67 216.63,597.28 217.10,592.75C217.56,588.21 217.72,583.77 217.45,582.88C217.10,581.74 214.76,580.91 209.49,580.06C205.39,579.40 201.58,579.14 201.02,579.49C200.46,579.84 200.00,583.17 200.00,586.91C200.00,590.65 200.49,595.10 201.08,596.80C201.68,598.51 203.59,600.82 205.33,601.94C207.07,603.05 209.68,603.97 211.13,603.98zM351.67,585.84C360.01,585.93 373.74,585.53 382.17,584.96C390.60,584.39 402.90,583.25 409.50,582.43C416.10,581.61 426.90,579.99 433.50,578.84C440.10,577.69 446.58,576.34 447.91,575.84C450.32,574.93 450.32,574.93 449.68,533.21C449.33,510.27 448.54,480.70 447.92,467.50C447.30,454.30 446.34,442.64 445.78,441.59C444.80,439.75 443.75,439.72 414.63,440.59C398.06,441.09 364.95,441.49 341.05,441.48C297.61,441.47 297.61,441.47 304.32,444.42C310.29,447.06 311.12,447.77 311.92,450.94C312.41,452.90 313.04,482.76 313.33,517.31C313.70,561.88 314.18,580.51 314.98,581.47C315.60,582.22 319.12,583.32 322.81,583.90C326.49,584.49 331.07,585.13 333.00,585.32C334.93,585.52 343.33,585.75 351.67,585.84zM258.00,578.32C259.38,578.06 260.89,577.47 261.37,577.00C261.86,576.53 261.92,571.39 261.53,565.57C261.01,557.99 260.34,554.43 259.15,553.04C258.12,551.82 253.76,550.14 247.51,548.54C242.02,547.13 233.70,545.56 229.01,545.04C224.33,544.53 215.87,543.82 210.21,543.47C199.93,542.83 199.93,542.83 196.12,546.67C193.88,548.92 191.40,552.93 190.11,556.40C188.53,560.66 187.99,564.01 188.21,568.40C188.46,573.70 188.76,574.50 190.47,574.50C192.14,574.50 192.63,573.39 193.65,567.27C194.31,563.30 195.66,558.69 196.64,557.02C197.63,555.36 198.78,554.00 199.22,554.00C199.65,554.00 200.00,557.29 200.00,561.31C200.00,565.99 200.50,569.31 201.40,570.53C202.49,572.03 204.06,572.45 208.64,572.47C214.48,572.50 214.48,572.50 217.03,565.00C218.44,560.88 220.15,556.49 220.83,555.25C221.51,554.01 222.50,553.00 223.04,553.00C223.59,553.00 224.00,557.20 224.00,562.88C224.00,572.29 224.11,572.80 226.25,573.37C227.49,573.70 230.84,573.98 233.69,573.99C236.76,573.99 239.21,573.49 239.69,572.75C240.14,572.06 240.95,569.25 241.50,566.50C242.05,563.75 242.95,561.50 243.50,561.50C244.05,561.50 245.01,563.30 245.64,565.50C246.26,567.70 247.16,571.30 247.64,573.50C248.40,577.05 248.89,577.57 252.00,578.14C253.93,578.49 256.62,578.57 258.00,578.32zM387.00,558.69C376.26,559.20 375.32,559.09 372.77,557.06C371.10,555.73 369.45,552.90 368.52,549.76C367.69,546.94 367.00,543.60 367.00,542.34C367.00,540.76 367.70,539.89 369.25,539.58C370.49,539.33 376.00,538.87 381.50,538.58C387.00,538.28 395.28,537.73 399.91,537.36C408.31,536.69 408.31,536.69 407.74,544.26C407.43,548.41 406.69,552.71 406.11,553.80C405.52,554.90 403.57,556.32 401.77,556.97C399.97,557.61 393.32,558.39 387.00,558.69zM258.25,546.93C258.66,546.97 259.00,546.31 259.00,545.47C259.00,544.63 258.38,542.46 257.63,540.66C256.88,538.85 254.38,535.77 252.09,533.81C249.57,531.65 245.64,529.60 242.15,528.62C238.97,527.73 232.80,527.00 228.43,527.01C224.07,527.01 218.80,527.48 216.72,528.06C214.65,528.64 211.38,530.48 209.47,532.16C207.56,533.84 206.00,535.81 206.00,536.54C206.00,537.36 207.64,538.08 210.25,538.41C212.59,538.71 219.45,539.45 225.50,540.07C231.55,540.69 239.43,541.80 243.00,542.55C246.57,543.29 251.30,544.56 253.50,545.38C255.70,546.19 257.84,546.89 258.25,546.93zM246.69,522.86C248.45,522.94 250.09,522.66 250.34,522.25C250.59,521.84 250.95,519.25 251.15,516.50C251.50,511.50 251.50,511.50 247.00,510.33C244.53,509.69 239.77,509.12 236.44,509.08C232.82,509.03 229.64,509.54 228.54,510.35C227.26,511.28 226.66,513.06 226.60,516.10C226.50,520.50 226.50,520.50 235.00,521.61C239.68,522.23 244.94,522.79 246.69,522.86zM373.79,521.99C370.13,522.00 368.84,521.56 368.03,520.05C367.46,518.98 366.60,515.27 366.12,511.80C365.65,508.34 365.45,505.00 365.69,504.38C365.95,503.70 370.89,502.99 378.43,502.56C385.21,502.18 393.30,501.52 396.41,501.09C400.20,500.58 402.58,500.70 403.62,501.46C404.60,502.18 405.20,504.24 405.24,507.07C405.28,509.52 404.76,513.20 404.09,515.23C403.09,518.25 402.28,519.04 399.68,519.48C397.93,519.78 392.45,520.46 387.50,521.00C382.55,521.54 376.38,521.99 373.79,521.99zM241.21,503.00C252.25,503.00 253.89,502.78 255.43,501.08C256.39,500.02 257.39,497.43 257.66,495.33C257.98,492.83 257.64,490.81 256.66,489.50C255.35,487.74 253.78,487.46 243.66,487.17C232.64,486.85 232.11,486.92 230.97,489.05C230.32,490.27 229.55,493.91 229.25,497.13C228.72,503.00 228.72,503.00 241.21,503.00zM378.15,488.58C370.89,489.04 367.07,488.92 366.63,488.21C366.27,487.63 365.48,483.48 364.88,478.99C364.27,474.44 364.16,470.46 364.64,470.01C365.11,469.56 371.53,468.70 378.89,468.10C386.26,467.49 394.97,467.00 398.25,467.00C404.21,467.00 404.21,467.00 403.85,474.97C403.60,480.45 403.00,483.43 401.94,484.49C401.08,485.34 397.83,486.46 394.71,486.97C391.58,487.47 384.13,488.20 378.15,488.58zM269.85,487.00C270.65,487.00 273.02,485.20 275.12,483.00C277.47,480.52 279.51,477.02 280.46,473.82C281.31,470.97 282.00,466.28 282.00,463.40C282.00,459.26 281.47,457.52 279.50,455.19C278.13,453.55 275.83,451.92 274.38,451.56C272.94,451.20 271.51,451.15 271.21,451.46C270.90,451.76 270.49,455.40 270.29,459.54C270.09,463.68 269.05,469.87 267.97,473.29C266.90,476.70 266.02,480.65 266.01,482.05C266.01,483.45 266.54,485.14 267.20,485.80C267.86,486.46 269.05,487.00 269.85,487.00zM285.88,487.00C286.31,487.00 287.61,485.97 288.79,484.72C289.97,483.47 291.62,480.49 292.47,478.10C293.31,475.70 294.00,471.62 294.00,469.01C294.00,465.73 293.36,463.46 291.93,461.63C290.79,460.19 289.08,459.00 288.13,459.00C287.18,459.00 285.94,459.46 285.37,460.03C284.70,460.70 284.65,463.29 285.22,467.55C285.77,471.64 285.71,476.13 285.06,479.64C284.49,482.72 284.27,485.63 284.57,486.12C284.87,486.60 285.46,487.00 285.88,487.00zM245.13,479.52C249.70,479.33 254.23,478.51 256.42,477.47C258.74,476.37 261.06,474.06 262.78,471.12C265.21,467.00 265.50,465.51 265.50,457.33C265.50,449.59 265.17,447.71 263.41,445.33C262.26,443.77 259.79,441.73 257.91,440.80C256.04,439.86 252.44,439.07 249.93,439.05C247.42,439.02 243.14,439.68 240.43,440.51C237.72,441.35 233.71,443.28 231.51,444.80C229.04,446.53 226.46,449.66 224.73,453.04C222.78,456.87 221.91,460.15 221.81,464.00C221.74,467.02 222.01,470.51 222.41,471.75C222.81,472.99 223.55,474.00 224.07,474.00C224.58,474.00 225.01,473.21 225.03,472.25C225.06,470.69 225.22,470.72 226.53,472.50C227.33,473.60 228.92,475.48 230.04,476.69C231.17,477.89 233.31,479.09 234.80,479.35C236.28,479.61 240.93,479.69 245.13,479.52zM463.34,479.72C464.10,479.47 464.59,475.59 464.77,468.42C464.94,461.58 464.55,455.82 463.73,453.00C462.75,449.63 461.87,448.42 460.21,448.18C458.62,447.95 458.00,448.37 458.01,449.68C458.01,450.68 458.69,457.51 459.51,464.85C460.33,472.19 461.27,478.62 461.59,479.15C461.92,479.68 462.70,479.93 463.34,479.72zM485.68,479.96C487.44,479.98 490.10,479.53 491.59,478.96C493.09,478.40 495.93,476.53 497.91,474.81C499.88,473.10 501.85,471.10 502.28,470.38C502.82,469.48 501.88,468.46 499.28,467.12C497.20,466.05 493.77,463.38 491.65,461.20C489.54,459.01 485.49,453.95 482.65,449.96C479.82,445.97 476.78,442.25 475.90,441.70C475.03,441.15 473.23,440.98 471.90,441.31C470.58,441.64 468.66,442.53 467.63,443.28C465.90,444.55 465.87,444.85 467.32,447.66C468.18,449.32 470.06,455.32 471.50,461.00C472.94,466.68 474.77,472.59 475.57,474.14C476.37,475.68 478.26,477.62 479.76,478.43C481.27,479.25 483.93,479.94 485.68,479.96zM504.42,459.00C505.07,459.00 507.16,457.87 509.06,456.49C510.95,455.11 516.43,449.60 521.24,444.24C526.05,438.88 529.99,433.89 529.99,433.16C530.00,432.42 526.73,428.75 522.72,425.02C518.72,421.28 513.45,415.47 511.00,412.11C508.36,408.49 505.81,406.00 504.72,406.00C503.72,406.00 501.46,406.74 499.70,407.64C497.94,408.54 494.38,411.04 491.79,413.20C489.21,415.35 485.53,419.24 483.62,421.84C481.71,424.44 479.85,427.75 479.49,429.20C478.94,431.38 480.06,433.55 486.24,442.16C491.10,448.94 495.31,453.62 498.44,455.75C501.07,457.54 503.76,459.00 504.42,459.00zM364.00,433.53C371.98,433.25 380.16,432.74 382.19,432.39C384.22,432.04 386.15,431.05 386.49,430.18C386.82,429.31 386.79,426.17 386.42,423.20C385.77,418.00 385.66,417.84 383.12,418.47C381.68,418.83 372.54,419.37 362.81,419.68C348.10,420.15 345.02,420.51 344.52,421.80C344.20,422.65 344.23,425.33 344.59,427.75C345.06,430.90 345.86,432.42 347.38,433.09C348.56,433.61 355.95,433.81 364.00,433.53zM553.50,424.89C557.35,424.95 562.10,424.54 564.07,424.00C566.03,423.45 569.49,421.41 571.77,419.46C574.24,417.35 577.24,413.24 579.18,409.29C581.95,403.66 582.44,401.58 582.41,395.58C582.39,390.68 581.82,387.42 580.54,385.00C579.53,383.07 575.73,378.42 572.10,374.66C568.47,370.89 562.80,366.23 559.50,364.29C556.20,362.35 551.48,360.48 549.00,360.12C544.50,359.48 544.50,359.48 543.92,350.49C543.58,345.19 542.67,340.22 541.71,338.37C540.81,336.65 539.35,334.96 538.46,334.62C537.56,334.28 536.03,334.00 535.04,334.00C534.05,334.00 532.79,334.56 532.22,335.25C531.66,335.94 530.72,341.84 530.13,348.36C529.39,356.57 528.51,361.06 527.28,362.96C526.30,364.46 523.61,368.49 521.31,371.91C519.00,375.33 516.36,380.41 515.43,383.20C514.24,386.78 513.89,390.26 514.24,395.06C514.59,399.97 515.45,403.10 517.37,406.37C518.83,408.86 520.48,411.18 521.04,411.52C521.69,411.93 521.82,410.72 521.40,408.07C521.04,405.83 520.98,404.00 521.28,404.00C521.57,404.00 523.01,406.04 524.47,408.54C525.93,411.04 528.52,414.66 530.21,416.59C531.91,418.52 534.57,420.76 536.12,421.56C537.67,422.36 540.64,423.42 542.72,423.91C544.80,424.40 549.65,424.84 553.50,424.89zM566.97,414.52C565.89,415.51 565.00,416.02 565.00,415.68C565.00,415.33 566.10,411.77 567.43,407.77C568.77,403.77 570.43,397.46 571.11,393.75C571.79,390.04 572.70,387.00 573.13,387.00C573.56,387.00 574.20,388.54 574.55,390.43C574.91,392.32 574.68,396.25 574.06,399.18C573.44,402.11 572.03,406.35 570.94,408.62C569.84,410.88 568.06,413.54 566.97,414.52zM359.14,414.92C363.34,414.97 370.54,414.29 375.14,413.41C379.74,412.54 384.06,411.36 384.75,410.79C385.44,410.22 386.00,408.41 386.00,406.76C386.00,403.81 385.94,403.78 381.75,404.40C379.41,404.74 373.00,405.46 367.50,405.99C362.00,406.52 354.21,406.96 350.18,406.97C342.87,407.00 342.87,407.00 343.18,409.72C343.44,411.93 344.26,412.67 347.50,413.65C349.70,414.31 354.94,414.88 359.14,414.92zM595.74,403.54C597.26,403.17 600.12,401.89 602.10,400.68C604.08,399.48 608.52,395.37 611.95,391.54C615.39,387.71 619.51,382.31 621.12,379.54C623.14,376.04 623.85,373.73 623.44,372.00C623.11,370.62 622.13,368.71 621.27,367.75C620.40,366.79 619.14,366.00 618.46,366.00C617.78,366.00 614.59,369.24 611.36,373.20C608.14,377.16 604.91,381.21 604.20,382.20C603.08,383.74 603.27,384.49 605.56,387.49C607.10,389.52 607.97,391.64 607.62,392.56C607.22,393.58 606.07,394.02 604.33,393.82C602.22,393.57 600.38,391.61 595.58,384.51C591.99,379.20 588.34,374.97 586.65,374.16C584.62,373.19 583.50,373.10 582.73,373.87C581.96,374.64 582.40,376.32 584.24,379.72C585.67,382.35 587.59,387.43 588.51,391.00C589.43,394.57 590.81,399.01 591.59,400.86C592.83,403.84 593.30,404.14 595.74,403.54zM361.00,400.28C364.57,400.06 371.08,399.19 375.47,398.36C379.85,397.53 383.78,396.63 384.22,396.37C384.65,396.10 385.00,394.18 385.00,392.11C385.00,390.03 384.70,388.04 384.34,387.68C383.98,387.31 383.19,387.40 382.59,387.86C381.99,388.33 379.48,389.20 377.00,389.80C374.52,390.40 368.45,391.38 363.50,391.97C358.55,392.56 352.11,393.52 349.19,394.10C344.57,395.03 343.92,395.45 344.19,397.33C344.45,399.13 345.36,399.60 349.50,400.09C352.25,400.42 357.43,400.50 361.00,400.28zM268.50,391.30C273.45,391.07 283.57,390.21 291.00,389.38C298.43,388.55 312.03,386.77 321.22,385.41C330.42,384.05 345.95,381.35 355.72,379.40C365.50,377.45 383.18,373.61 395.00,370.87C406.82,368.12 426.18,363.46 438.00,360.50C449.82,357.55 463.22,353.95 467.77,352.52C472.31,351.08 479.86,348.30 484.54,346.34C489.22,344.38 493.47,341.99 493.99,341.02C494.51,340.05 495.63,332.79 496.49,324.88C497.34,316.97 498.32,300.38 498.65,288.00C498.99,275.62 498.73,249.30 498.09,229.50C497.44,209.70 496.51,188.16 496.01,181.64C495.37,173.11 494.66,169.29 493.50,168.00C492.61,167.02 489.29,164.84 486.12,163.15C482.95,161.46 475.13,158.03 468.75,155.53C462.36,153.04 451.82,149.47 445.32,147.60C438.82,145.74 429.23,143.48 424.00,142.58C418.77,141.67 407.98,140.66 400.00,140.33C391.47,139.97 379.95,140.21 372.00,140.92C364.57,141.58 352.43,143.24 345.00,144.61C337.57,145.97 327.92,148.01 323.55,149.12C319.17,150.23 308.15,153.38 299.05,156.11C289.95,158.83 276.88,162.91 270.00,165.16C263.12,167.41 257.10,169.61 256.62,170.06C256.13,170.50 260.97,173.38 267.37,176.46C273.77,179.53 279.00,182.48 279.00,183.01C279.00,183.55 274.86,186.06 269.80,188.60C264.74,191.14 257.65,195.17 254.03,197.55C250.42,199.93 246.43,202.98 245.15,204.34C243.88,205.70 242.43,208.54 241.95,210.65C241.46,212.77 240.54,222.60 239.90,232.50C239.17,243.86 238.95,264.33 239.29,288.00C239.59,308.62 240.34,330.90 240.96,337.50C241.57,344.10 243.16,357.07 244.49,366.32C245.85,375.79 247.69,384.74 248.70,386.82C250.28,390.05 251.05,390.57 255.00,391.11C257.48,391.44 263.55,391.53 268.50,391.30zM230.66,380.67C230.89,380.44 230.60,377.16 230.01,373.38C229.42,369.59 228.26,364.12 227.43,361.21C226.54,358.08 225.50,356.19 224.88,356.57C224.24,356.97 224.09,359.19 224.48,362.36C224.83,365.19 225.57,369.86 226.13,372.75C226.68,375.64 227.84,378.70 228.69,379.55C229.54,380.40 230.43,380.91 230.66,380.67zM598.62,374.00C599.29,374.00 602.15,371.41 604.96,368.25C607.78,365.09 610.36,361.41 610.70,360.07C611.04,358.70 610.69,356.56 609.90,355.17C609.13,353.81 607.73,352.22 606.79,351.63C605.45,350.79 604.52,351.09 602.40,353.03C600.93,354.39 597.74,358.16 595.32,361.41C590.92,367.33 590.92,367.33 594.16,370.66C595.94,372.50 597.94,374.00 598.62,374.00zM581.07,373.00C581.85,373.00 582.05,371.98 581.64,369.95C581.31,368.28 579.85,365.35 578.40,363.45C576.95,361.55 575.44,360.00 575.04,360.00C574.64,360.00 573.46,360.94 572.42,362.08C570.55,364.15 570.58,364.21 575.21,368.58C577.78,371.01 580.42,373.00 581.07,373.00zM294.50,370.30C292.85,370.60 290.34,370.49 288.91,370.05C287.49,369.62 285.20,368.52 283.82,367.62C282.44,366.71 280.79,364.83 280.15,363.44C279.52,362.05 279.00,359.24 279.00,357.20C279.01,355.17 279.88,352.07 280.95,350.31C282.02,348.56 283.93,346.57 285.19,345.90C286.46,345.22 289.29,344.67 291.50,344.67C293.70,344.67 296.98,345.45 298.79,346.39C300.61,347.33 302.97,349.54 304.04,351.30C305.11,353.06 305.99,355.98 306.00,357.80C306.00,359.61 305.32,362.42 304.48,364.03C303.65,365.65 301.74,367.59 300.23,368.36C298.73,369.13 296.15,370.00 294.50,370.30zM295.54,362.80C296.82,362.22 298.39,360.48 299.02,358.94C299.66,357.41 299.89,355.21 299.52,354.07C299.16,352.93 297.95,351.51 296.83,350.91C295.71,350.31 293.27,350.10 291.42,350.45C289.57,350.80 287.42,351.99 286.63,353.11C285.72,354.41 285.46,356.11 285.91,357.82C286.33,359.45 287.89,361.16 289.91,362.18C292.46,363.47 293.76,363.61 295.54,362.80zM584.06,362.00C584.43,362.00 587.94,358.29 591.86,353.75C596.67,348.19 598.99,344.67 599.00,342.95C599.00,341.55 598.46,339.86 597.80,339.20C597.14,338.54 595.43,338.00 593.99,338.00C592.56,338.00 590.64,338.56 589.74,339.25C588.84,339.94 585.83,343.64 583.05,347.48C580.27,351.32 578.00,354.89 578.00,355.42C578.00,355.96 579.21,357.65 580.69,359.20C582.16,360.74 583.68,362.00 584.06,362.00zM373.50,358.46C368.55,358.68 363.38,358.62 362.00,358.33C360.62,358.04 356.81,356.67 353.52,355.29C350.24,353.91 345.53,351.40 343.06,349.70C340.60,348.00 336.87,345.07 334.79,343.19C332.71,341.31 331.00,338.97 331.00,338.00C331.00,336.36 332.59,336.24 353.25,336.34C370.93,336.43 377.35,336.08 384.50,334.66C389.45,333.68 398.22,331.51 403.99,329.84C409.77,328.17 415.71,326.17 417.19,325.40C418.68,324.63 420.82,324.00 421.95,324.00C423.27,324.00 424.00,324.65 424.00,325.84C424.00,326.85 422.12,330.34 419.82,333.59C417.52,336.84 413.96,341.55 411.89,344.05C409.83,346.55 405.90,349.83 403.15,351.32C400.40,352.82 394.63,354.95 390.32,356.06C386.02,357.16 378.45,358.25 373.50,358.46zM563.50,357.97C564.88,357.97 567.51,355.13 572.00,348.81C575.58,343.78 579.96,337.15 581.74,334.08C583.52,331.01 584.98,327.26 584.99,325.75C584.99,324.24 584.10,322.10 583.00,321.00C581.81,319.81 579.67,319.00 577.69,319.00C575.87,319.00 573.68,319.56 572.83,320.25C571.97,320.94 569.50,323.98 567.34,327.00C565.18,330.02 561.05,336.27 558.15,340.87C555.11,345.71 553.02,350.12 553.20,351.34C553.37,352.57 555.16,354.38 557.50,355.71C559.70,356.95 562.40,357.97 563.50,357.97zM372.50,351.84C374.15,351.92 379.92,351.32 385.33,350.51C390.73,349.69 397.03,348.18 399.33,347.15C401.62,346.12 404.59,344.09 405.92,342.64C407.25,341.19 408.05,339.72 407.70,339.37C407.35,339.01 402.21,339.69 396.28,340.86C390.35,342.04 381.23,343.45 376.00,344.01C370.77,344.56 364.06,345.13 361.08,345.26C358.08,345.39 355.49,346.01 355.28,346.65C355.07,347.28 356.84,348.50 359.20,349.37C361.57,350.23 364.85,351.11 366.50,351.32C368.15,351.53 370.85,351.77 372.50,351.84zM474.91,336.00C473.59,336.00 473.00,335.30 473.00,333.71C473.00,332.45 474.35,327.09 476.01,321.79C478.34,314.35 479.72,311.58 482.09,309.58C483.77,308.16 485.57,307.00 486.08,307.00C486.58,307.00 487.00,307.94 487.00,309.10C487.00,310.25 486.35,313.51 485.55,316.35C484.76,319.18 483.62,323.39 483.03,325.70C482.43,328.02 480.79,331.28 479.38,332.95C477.98,334.63 475.96,336.00 474.91,336.00zM187.05,328.00C187.62,328.00 189.16,326.93 190.46,325.63C191.77,324.32 193.32,321.51 193.91,319.38C194.50,317.24 194.99,309.97 194.99,303.21C195.00,295.93 194.36,287.83 193.44,283.34C192.57,279.17 190.75,273.23 189.38,270.13C188.02,267.03 185.46,262.98 183.70,261.13C181.94,259.28 179.06,257.15 177.31,256.39C175.49,255.61 173.27,255.34 172.16,255.76C170.37,256.44 170.68,257.21 175.95,265.19C179.39,270.39 182.74,277.04 184.29,281.74C185.72,286.07 187.36,292.51 187.94,296.05C188.51,299.60 188.97,306.10 188.95,310.50C188.93,314.90 188.26,320.30 187.47,322.50C186.68,324.70 186.02,326.84 186.02,327.25C186.01,327.66 186.47,328.00 187.05,328.00zM204.98,328.00C205.51,328.00 206.65,326.94 207.49,325.65C208.46,324.18 209.26,319.77 209.63,313.90C209.96,308.73 209.72,299.51 209.10,293.42C208.48,287.32 207.29,279.67 206.45,276.42C205.61,273.16 203.65,267.80 202.10,264.50C200.54,261.20 197.59,256.84 195.53,254.80C193.46,252.77 190.49,250.83 188.93,250.48C187.36,250.14 185.39,250.24 184.56,250.71C183.28,251.42 183.63,252.37 186.64,256.53C188.63,259.26 191.95,265.10 194.02,269.50C196.10,273.90 198.73,281.32 199.87,286.00C201.01,290.68 202.40,298.31 202.97,302.97C203.54,307.63 204.00,315.17 204.00,319.72C204.00,324.44 204.42,328.00 204.98,328.00zM172.61,322.00C173.37,322.00 174.85,321.15 175.89,320.11C177.06,318.94 178.25,315.43 179.02,310.89C179.79,306.34 180.01,300.28 179.60,294.88C179.24,290.11 178.26,283.57 177.42,280.35C176.59,277.13 174.91,273.05 173.70,271.27C172.49,269.49 170.29,267.54 168.81,266.92C167.33,266.31 165.60,266.13 164.96,266.53C164.32,266.92 163.17,268.75 162.40,270.59C161.63,272.43 161.00,275.44 161.00,277.28C161.00,279.12 162.28,284.42 163.85,289.06C165.41,293.70 167.29,300.53 168.03,304.24C168.76,307.94 169.05,311.29 168.66,311.67C168.27,312.06 166.64,310.83 165.02,308.94C162.08,305.50 162.08,305.50 162.04,308.11C162.02,309.55 163.16,312.47 164.57,314.61C165.98,316.75 168.06,319.29 169.18,320.25C170.30,321.21 171.85,322.00 172.61,322.00zM216.13,322.00C216.59,322.00 217.17,320.99 217.43,319.75C217.69,318.51 218.17,314.57 218.50,311.00C218.83,307.43 218.60,299.33 218.01,293.00C217.41,286.68 216.01,277.95 214.90,273.60C213.79,269.25 211.78,263.53 210.44,260.89C209.10,258.24 206.59,254.47 204.86,252.50C203.14,250.53 200.85,248.45 199.77,247.88C198.05,246.95 198.12,247.35 200.41,251.25C201.83,253.68 202.75,255.92 202.44,256.23C202.13,256.53 202.98,259.42 204.31,262.64C205.65,265.86 207.68,271.43 208.83,275.00C209.97,278.57 211.61,285.31 212.47,289.97C213.34,294.62 214.33,303.74 214.67,310.22C215.02,316.70 215.68,322.00 216.13,322.00zM316.50,314.47C313.17,314.74 308.28,314.37 305.50,313.65C302.75,312.94 298.99,311.56 297.14,310.59C295.29,309.62 291.86,307.07 289.52,304.91C287.07,302.65 284.05,298.35 282.39,294.75C279.71,288.95 279.50,287.62 279.50,276.45C279.50,264.54 279.54,264.31 283.25,256.81C285.55,252.15 289.13,247.06 292.51,243.62C295.54,240.54 300.38,236.82 303.26,235.36C307.00,233.45 310.57,232.55 315.72,232.21C322.09,231.80 323.60,232.06 328.42,234.42C331.70,236.02 335.46,238.98 337.81,241.80C339.97,244.38 342.65,248.31 343.77,250.53C344.90,252.75 346.58,257.19 347.52,260.41C348.78,264.75 349.12,268.88 348.83,276.38C348.50,285.17 348.04,287.35 345.35,293.00C343.64,296.57 340.60,301.39 338.58,303.71C336.49,306.11 332.25,309.22 328.71,310.96C324.68,312.93 320.39,314.17 316.50,314.47zM384.43,310.39C381.64,310.74 379.05,310.72 378.68,310.34C378.30,309.97 378.00,309.02 378.00,308.24C378.00,307.45 378.94,303.70 380.10,299.91C381.25,296.11 382.56,293.00 383.00,293.00C383.44,293.00 385.53,296.36 387.64,300.46C390.13,305.29 391.13,308.24 390.49,308.83C389.95,309.34 387.22,310.04 384.43,310.39zM319.50,307.23C321.70,306.95 325.07,305.92 327.00,304.95C328.93,303.97 331.91,301.67 333.64,299.84C335.37,298.00 337.85,294.48 339.14,292.00C341.20,288.07 341.50,286.12 341.50,276.50C341.50,266.82 341.21,264.96 339.11,261.00C337.79,258.52 335.65,255.11 334.36,253.41C333.07,251.71 329.71,249.07 326.90,247.54C322.77,245.29 320.94,244.86 317.29,245.27C314.68,245.57 311.94,246.62 310.80,247.76C308.82,249.73 308.83,249.75 312.16,254.12C314.00,256.53 316.78,261.34 318.33,264.80C319.88,268.26 321.41,273.54 321.72,276.54C322.12,280.41 321.78,283.29 320.56,286.49C319.61,288.97 317.87,291.68 316.69,292.50C315.52,293.33 313.19,294.00 311.53,294.00C309.86,293.99 307.09,293.13 305.36,292.08C303.10,290.70 301.79,288.79 300.72,285.33C299.90,282.67 298.65,277.89 297.94,274.70C297.24,271.52 296.21,268.63 295.67,268.29C295.12,267.96 293.90,268.64 292.96,269.80C292.01,270.97 290.94,273.90 290.58,276.31C290.22,278.72 290.41,282.90 291.00,285.60C291.59,288.29 293.66,292.82 295.59,295.65C297.53,298.49 300.92,302.01 303.13,303.47C305.34,304.93 309.03,306.49 311.33,306.94C313.62,307.39 317.30,307.52 319.50,307.23zM452.14,295.66C447.52,295.86 442.85,295.44 440.32,294.62C438.03,293.87 434.60,292.30 432.72,291.13C430.83,289.97 427.17,286.75 424.57,283.98C421.98,281.20 418.67,276.36 417.22,273.22C415.11,268.64 414.51,265.60 414.19,258.00C413.87,250.16 414.18,247.37 415.98,242.04C417.18,238.48 419.33,233.60 420.74,231.17C422.16,228.75 425.45,224.65 428.04,222.05C430.64,219.46 434.95,216.26 437.63,214.96C441.33,213.16 444.19,212.58 449.50,212.57C454.58,212.56 457.81,213.15 461.27,214.73C463.89,215.92 468.29,219.22 471.05,222.05C473.81,224.89 477.19,229.41 478.55,232.09C479.91,234.78 481.74,240.02 482.61,243.74C483.73,248.48 484.06,253.34 483.73,260.00C483.41,266.34 482.53,271.38 481.09,275.15C479.90,278.25 477.13,282.84 474.93,285.34C472.71,287.86 468.45,291.10 465.35,292.62C461.09,294.70 457.98,295.42 452.14,295.66zM452.78,289.88C455.69,289.95 459.73,289.30 461.77,288.45C463.81,287.60 466.55,285.91 467.86,284.70C469.17,283.49 471.28,280.87 472.56,278.87C473.83,276.87 475.64,272.62 476.57,269.42C477.80,265.17 478.11,261.56 477.70,256.05C477.39,251.90 476.35,246.25 475.39,243.50C474.21,240.10 471.86,236.72 468.07,232.96C464.45,229.36 461.06,227.00 458.38,226.21C456.12,225.54 453.20,225.01 451.88,225.02C450.57,225.02 448.93,225.39 448.24,225.83C447.33,226.41 448.53,228.66 452.63,234.06C455.73,238.15 459.18,243.53 460.30,246.00C461.75,249.24 462.34,252.74 462.40,258.50C462.46,264.92 462.04,267.32 460.29,270.62C459.08,272.88 456.92,276.13 455.48,277.84C454.04,279.55 450.17,282.24 446.89,283.82C442.36,285.99 441.23,286.94 442.21,287.74C442.92,288.31 444.40,289.01 445.50,289.28C446.60,289.55 449.88,289.82 452.78,289.88zM223.90,278.44C224.21,278.13 224.31,274.64 224.13,270.69C223.95,266.73 223.19,262.01 222.43,260.19C221.67,258.37 220.13,255.71 219.01,254.29C217.89,252.86 215.54,250.63 213.79,249.34C212.04,248.06 209.99,247.00 209.22,247.00C208.32,247.00 209.06,248.69 211.29,251.75C213.20,254.36 215.92,258.82 217.35,261.66C218.77,264.49 220.70,269.56 221.63,272.91C222.57,276.26 223.58,278.75 223.90,278.44zM515.03,276.00C515.48,276.00 516.72,274.90 517.77,273.56C519.32,271.59 519.82,268.75 520.36,258.61C520.73,251.73 521.40,245.10 521.85,243.88C522.67,241.65 522.67,241.65 523.34,244.07C523.71,245.41 524.30,249.78 524.65,253.80C525.09,258.67 525.63,260.77 526.30,260.10C526.85,259.55 527.52,253.54 527.78,246.74C528.15,237.24 527.89,233.13 526.65,228.94C525.37,224.57 524.13,222.76 520.34,219.71C517.75,217.63 514.93,216.07 514.07,216.24C512.71,216.51 512.53,218.84 512.74,234.03C512.88,243.64 513.26,257.01 513.60,263.75C513.93,270.49 514.57,276.00 515.03,276.00zM433.50,271.00C434.73,271.00 436.88,270.09 438.29,268.98C439.70,267.88 441.38,265.39 442.01,263.46C442.65,261.53 442.88,258.24 442.52,256.15C442.17,254.05 441.05,250.97 440.04,249.31C439.03,247.65 437.28,246.05 436.15,245.75C434.89,245.42 432.87,246.12 430.93,247.55C429.19,248.83 427.20,250.70 426.51,251.69C425.82,252.69 424.94,254.96 424.55,256.75C424.15,258.57 424.35,261.52 424.99,263.48C425.63,265.40 427.30,267.88 428.71,268.98C430.12,270.09 432.27,271.00 433.50,271.00zM294.32,222.07C292.23,222.86 292.00,222.67 292.00,220.12C292.00,218.22 293.36,215.74 296.10,212.62C298.35,210.06 302.14,206.83 304.51,205.44C306.89,204.05 310.31,202.49 312.11,201.97C314.20,201.37 316.73,201.39 319.09,202.02C321.30,202.62 324.23,204.62 326.39,207.01C328.38,209.21 330.00,211.73 330.00,212.62C330.00,213.82 329.42,214.07 327.75,213.59C326.51,213.24 323.42,212.68 320.88,212.35C317.81,211.95 314.59,212.31 311.28,213.41C308.53,214.32 304.12,216.44 301.46,218.13C298.80,219.81 295.59,221.59 294.32,222.07zM236.40,208.75C237.99,208.61 239.78,207.72 240.38,206.78C241.23,205.42 241.04,204.75 239.48,203.61C238.39,202.81 232.55,200.52 226.50,198.51C220.45,196.50 213.42,194.61 210.89,194.30C208.29,193.99 206.00,194.19 205.66,194.74C205.32,195.29 205.89,196.50 206.93,197.44C207.96,198.37 214.37,201.36 221.16,204.07C228.19,206.88 234.75,208.90 236.40,208.75zM468.75,195.95C468.06,195.93 465.48,194.83 463.00,193.50C459.70,191.73 456.90,191.08 452.50,191.07C448.62,191.05 444.96,191.74 442.14,193.02C439.74,194.11 436.93,195.00 435.89,195.00C434.69,195.00 434.00,194.30 434.00,193.08C434.00,192.02 435.18,189.75 436.63,188.03C438.07,186.32 440.88,184.09 442.88,183.08C444.87,182.07 447.96,180.93 449.75,180.54C451.62,180.14 454.58,180.37 456.75,181.08C458.81,181.76 461.77,183.25 463.31,184.39C464.86,185.54 467.00,187.88 468.06,189.60C469.13,191.33 470.00,193.47 470.00,194.37C470.00,195.27 469.44,195.98 468.75,195.95zM318.48,142.66C322.42,142.33 327.97,141.56 330.82,140.95C336.00,139.83 336.00,139.83 335.99,133.17C335.98,129.50 335.40,125.38 334.71,124.00C333.68,121.97 332.70,121.50 329.47,121.50C325.50,121.50 325.50,121.50 325.85,129.16C326.17,136.08 326.00,136.93 324.12,137.93C322.34,138.89 321.98,138.73 321.53,136.77C321.25,135.52 320.90,131.80 320.76,128.50C320.53,123.12 320.27,122.47 318.23,122.18C316.99,122.00 314.34,122.39 312.34,123.05C308.72,124.25 308.72,124.25 309.31,131.92C309.64,136.14 310.22,140.42 310.61,141.43C311.24,143.06 312.13,143.20 318.48,142.66zM318.06,117.00C319.01,117.00 320.05,116.31 320.37,115.48C320.69,114.64 320.68,111.93 320.34,109.45C320.00,106.97 319.31,104.69 318.82,104.39C318.32,104.08 317.26,104.37 316.46,105.04C315.56,105.78 315.00,108.05 315.00,110.96C315.00,113.55 315.30,115.97 315.67,116.33C316.03,116.70 317.11,117.00 318.06,117.00zM298.87,102.00C299.85,102.00 300.05,101.23 299.59,99.25C299.23,97.74 298.67,94.59 298.34,92.25C297.77,88.22 297.87,88.00 300.25,88.00C301.91,88.00 303.61,86.89 305.26,84.72C306.64,82.92 309.39,80.57 311.37,79.50C314.78,77.66 315.08,77.65 316.70,79.27C318.31,80.89 318.23,81.17 315.21,84.29C312.92,86.64 312.00,88.54 312.00,90.87C312.00,93.17 312.88,95.03 314.92,97.08C316.53,98.68 318.50,100.00 319.29,100.00C320.08,100.00 321.92,99.06 323.39,97.91C324.85,96.76 326.71,94.54 327.52,92.96C328.33,91.39 329.00,88.37 329.00,86.25C329.00,84.13 327.88,80.14 326.50,77.38C324.74,73.84 322.80,71.70 319.90,70.06C316.33,68.06 314.80,67.81 308.33,68.23C302.17,68.62 300.17,69.21 296.78,71.60C294.53,73.20 291.78,75.73 290.66,77.24C289.35,79.01 288.48,82.04 288.21,85.83C287.90,90.00 288.26,92.60 289.44,94.88C290.35,96.65 292.54,98.97 294.30,100.04C296.06,101.11 298.11,101.99 298.87,102.00z"/>
</svg>