<?xml version="1.0" encoding="UTF-8" standalone="no"?>
<svg 
  version="1.1" 
  xmlns="http://www.w3.org/2000/svg" 
  xmlns:xlink="http://www.w3.org/1999/xlink" 
  xmlns:svg="http://www.w3.org/2000/svg"
  xmlns:rdf="http://www.w3.org/1999/02/22-rdf-syntax-ns#"
  xmlns:cc="http://creativecommons.org/ns#"
  xmlns:dc="http://purl.org/dc/elements/1.1/"
  viewBox="0 0 768 768"
  width="768"
  height="768"
>
<style>svg {background-color: white; }</style>"
<metadata id="metadata1">
Created by https://svgstud.io and licensed under CC-BY-SA 4.0 license. Please attribute https://svgstud.io
</metadata>
<metadata id="prompt">
cartoon style!!, monochrome, robot saying hi, plain background
</metadata>
<metadata id="version">
7
</metadata>
<metadata id="metadata2">
<rdf:RDF>
<cc:Work
    rdf:about="">
    <cc:license
    rdf:resource="http://creativecommons.org/licenses/by-sa/4.0/" />
    <dc:creator>
        <cc:Agent>
            <dc:title>https://svgstud.io</dc:title>
        </cc:Agent>
    </dc:creator>
</cc:Work>
<cc:License
    rdf:about="http://creativecommons.org/licenses/by-sa/4.0/">
    <cc:permits
    rdf:resource="http://creativecommons.org/ns#Reproduction" />
    <cc:permits
    rdf:resource="http://creativecommons.org/ns#Distribution" />
    <cc:requires
    rdf:resource="http://creativecommons.org/ns#Notice" />
    <cc:requires
    rdf:resource="http://creativecommons.org/ns#Attribution" />
    <cc:permits
    rdf:resource="http://creativecommons.org/ns#DerivativeWorks" />
    <cc:requires
    rdf:resource="http://creativecommons.org/ns#ShareAlike" />
</cc:License>
</rdf:RDF>
</metadata>
<metadata id="uid">
36a20f8c7dc50dbdd0211ba9fa75b6b010a709c291e30f3966ee038bd7cb4034
</metadata>
<path stroke="none" fill="black" fill-rule="evenodd" d="M480.50,714.33C477.75,714.48 468.13,714.26 459.11,713.84C450.10,713.42 437.56,712.36 431.26,711.49C424.95,710.62 416.31,708.80 412.06,707.46C407.80,706.11 403.63,704.22 402.78,703.26C401.93,702.29 400.94,700.53 400.58,699.34C400.22,698.14 400.42,691.17 401.03,683.84C401.64,676.50 402.81,667.17 403.64,663.09C404.47,659.02 406.08,653.17 407.23,650.09C408.84,645.76 411.19,642.61 417.66,636.10C422.25,631.48 426.00,627.32 426.00,626.84C426.00,626.37 423.72,616.87 420.94,605.74C418.16,594.61 413.87,575.83 411.42,564.00C408.96,552.17 406.69,541.67 406.37,540.65C405.87,539.01 405.14,538.88 400.15,539.52C397.04,539.92 385.73,540.34 375.00,540.45C355.50,540.65 355.50,540.65 355.65,557.08C355.74,566.11 356.25,585.65 356.78,600.50C357.31,615.35 357.80,627.59 357.87,627.70C357.94,627.81 361.09,629.90 364.87,632.35C368.65,634.79 372.97,638.40 374.46,640.36C375.96,642.33 378.02,646.61 379.04,649.88C380.06,653.14 381.60,660.47 382.46,666.16C383.33,671.85 384.32,681.51 384.66,687.63C385.28,698.59 385.26,698.79 382.90,700.32C381.58,701.18 376.45,703.06 371.50,704.50C366.55,705.94 356.88,707.95 350.00,708.96C343.12,709.97 330.08,711.36 321.02,712.05C310.71,712.83 297.03,713.07 284.52,712.69C273.51,712.36 260.68,711.60 256.00,711.00C251.32,710.40 243.73,709.03 239.13,707.95C234.53,706.87 229.26,705.27 227.42,704.39C225.58,703.52 223.83,702.03 223.53,701.09C223.23,700.14 223.64,695.57 224.45,690.93C225.48,685.01 227.26,679.82 230.41,673.50C232.88,668.55 237.32,661.35 240.27,657.50C243.23,653.65 248.16,648.46 251.24,645.98C254.32,643.49 260.59,639.56 265.17,637.24C269.75,634.92 277.55,631.87 282.50,630.46C287.45,629.06 295.10,627.35 299.50,626.66C307.50,625.42 307.50,625.42 309.22,605.46C310.16,594.48 311.43,581.23 312.03,576.00C312.63,570.77 313.52,557.95 314.00,547.50C314.86,528.50 314.86,528.50 312.27,526.50C310.84,525.40 307.84,523.13 305.60,521.46C303.36,519.78 300.54,516.95 299.33,515.16C298.13,513.38 296.46,508.89 295.62,505.21C294.79,501.52 293.21,492.20 292.10,484.50C291.00,476.80 289.40,463.75 288.54,455.50C287.68,447.25 286.72,437.44 286.40,433.70C286.03,429.24 285.43,427.02 284.69,427.27C284.06,427.48 279.84,433.24 275.31,440.08C270.78,446.91 265.45,454.89 263.46,457.80C261.47,460.72 258.05,464.40 255.85,465.99C253.65,467.59 249.31,469.42 246.18,470.07C243.06,470.71 237.71,470.98 234.28,470.66C230.80,470.34 225.72,468.97 222.77,467.57C219.87,466.19 215.25,463.23 212.50,460.98C209.75,458.73 201.60,451.04 194.39,443.89C181.60,431.20 181.13,430.85 174.91,429.40C171.40,428.58 166.52,426.74 164.08,425.30C161.63,423.87 157.74,420.96 155.45,418.84C153.15,416.72 150.11,413.30 148.69,411.24C147.26,409.17 144.56,401.94 142.62,395.00C140.70,388.12 138.16,377.43 136.99,371.24C135.77,364.81 135.13,358.70 135.50,357.00C135.86,355.36 137.69,352.76 139.56,351.21C141.43,349.67 145.30,347.57 148.16,346.54C151.02,345.51 157.42,344.17 162.39,343.55C171.43,342.44 171.43,342.44 172.08,339.24C172.44,337.49 173.49,334.89 174.42,333.48C175.35,332.07 177.24,330.48 178.62,329.96C180.00,329.43 182.56,329.00 184.32,329.00C186.07,329.01 188.94,329.89 190.70,330.96C192.46,332.03 194.55,334.17 195.35,335.71C196.14,337.24 197.77,341.72 198.97,345.66C200.81,351.73 201.59,353.00 204.11,354.05C205.74,354.72 208.20,356.15 209.56,357.23C210.92,358.30 212.73,360.51 213.57,362.14C214.42,363.77 215.38,369.01 215.72,373.77C216.33,382.45 216.33,382.45 221.31,387.47C224.05,390.24 230.84,397.71 236.40,404.07C241.95,410.43 250.55,420.64 255.50,426.76C260.45,432.87 264.79,437.91 265.15,437.94C265.51,437.97 266.30,436.58 266.90,434.85C267.51,433.12 268.00,430.03 268.00,427.99C268.00,424.83 267.26,423.58 263.06,419.65C258.30,415.20 257.93,415.05 253.56,415.65C251.05,415.99 249.00,416.00 249.00,415.67C249.00,415.34 253.16,409.62 258.25,402.96C263.34,396.30 268.31,389.85 269.29,388.63C270.27,387.41 271.76,383.52 272.58,379.97C273.41,376.43 275.20,371.62 276.57,369.30C277.93,366.97 280.50,363.97 282.27,362.62C284.05,361.28 289.32,358.62 294.00,356.71C298.68,354.81 305.43,352.31 309.00,351.16C312.57,350.01 319.31,348.60 323.97,348.03C328.63,347.47 336.99,347.00 342.53,347.00C349.39,347.00 353.20,346.57 354.45,345.66C356.03,344.51 356.22,343.31 355.79,337.29C355.51,333.43 354.97,329.76 354.58,329.14C354.09,328.34 346.80,328.00 330.19,328.00C317.16,327.99 301.32,327.53 295.00,326.96C288.68,326.40 279.68,325.24 275.00,324.39C270.32,323.55 264.70,322.05 262.50,321.06C260.30,320.07 257.33,317.96 255.91,316.38C254.48,314.80 252.74,312.02 252.02,310.22C251.31,308.41 249.10,300.77 247.10,293.23C243.48,279.52 243.48,279.52 238.03,278.74C235.04,278.31 230.32,276.91 227.54,275.64C224.77,274.36 220.79,271.56 218.71,269.41C216.62,267.26 213.60,263.46 212.00,260.97C210.39,258.48 207.93,253.40 206.53,249.68C205.13,245.96 203.27,238.77 202.40,233.71C201.33,227.53 200.93,220.57 201.19,212.50C201.50,202.66 201.96,199.78 203.70,196.50C204.88,194.30 207.78,190.61 210.17,188.30C212.55,185.99 217.65,182.37 221.50,180.27C228.50,176.45 228.50,176.45 228.13,154.91C227.80,135.77 227.95,132.99 229.53,129.94C230.51,128.05 234.98,122.90 239.47,118.50C243.96,114.10 250.98,108.19 255.07,105.37C259.16,102.54 266.86,97.90 272.20,95.06C277.53,92.21 286.95,88.11 293.13,85.95C299.31,83.80 304.83,81.57 305.39,81.01C306.08,80.32 305.54,77.35 303.69,71.75C302.19,67.21 300.98,62.38 300.99,61.00C301.00,59.62 302.02,56.85 303.26,54.83C304.49,52.81 306.63,50.27 308.02,49.19C309.40,48.11 312.19,46.77 314.22,46.21C316.42,45.60 319.40,45.53 321.62,46.03C323.67,46.49 326.51,47.72 327.92,48.75C329.34,49.79 331.31,52.19 332.31,54.07C333.61,56.55 333.98,58.89 333.64,62.50C333.38,65.25 332.85,68.51 332.47,69.75C331.87,71.68 332.13,72.00 334.30,72.00C335.70,72.00 340.59,71.11 345.17,70.03C349.75,68.95 359.35,67.07 366.50,65.85C377.09,64.06 383.58,63.64 401.50,63.59C415.37,63.56 426.46,64.03 431.50,64.87C435.90,65.60 443.74,67.30 448.91,68.64C454.09,69.98 461.74,72.49 465.91,74.21C470.09,75.93 476.53,79.18 480.23,81.42C483.94,83.66 489.63,87.85 492.88,90.72C496.19,93.64 499.76,97.94 500.99,100.49C503.10,104.84 503.19,106.03 502.85,126.97C502.63,140.77 502.87,149.24 503.50,149.83C504.05,150.34 506.26,151.32 508.41,152.01C510.55,152.70 514.16,155.11 516.43,157.38C518.69,159.65 521.59,163.72 522.87,166.44C524.14,169.15 525.89,174.55 526.74,178.44C527.66,182.61 528.34,190.81 528.40,198.50C528.48,208.88 528.04,213.44 526.19,221.15C524.92,226.46 522.40,233.89 520.59,237.67C518.79,241.44 515.76,245.87 513.88,247.51C511.99,249.16 509.45,251.18 508.23,252.00C506.32,253.29 505.80,255.16 504.48,265.50C503.63,272.10 502.27,281.10 501.46,285.50C500.64,289.90 499.27,295.63 498.41,298.24C497.39,301.32 495.56,304.04 493.17,306.01C491.15,307.68 485.99,310.40 481.70,312.05C477.41,313.71 469.31,316.17 463.70,317.52C458.09,318.87 448.77,320.63 443.00,321.42C437.23,322.21 428.45,323.14 423.50,323.49C418.55,323.83 413.26,324.35 411.75,324.64C409.00,325.16 409.00,325.16 409.00,335.33C409.00,345.50 409.00,345.50 429.52,345.15C441.26,344.94 454.33,345.29 460.08,345.96C465.59,346.60 471.98,347.79 474.28,348.60C476.57,349.41 479.46,351.02 480.70,352.19C482.60,353.97 484.28,354.33 491.23,354.44C497.64,354.53 500.57,355.08 504.23,356.86C506.83,358.12 510.96,361.39 513.41,364.11C515.95,366.93 518.63,371.30 519.65,374.28C520.87,377.82 521.46,382.55 521.49,389.00C521.52,397.94 521.74,398.91 525.17,405.54C527.17,409.41 531.07,418.41 533.82,425.54C536.57,432.67 541.27,445.02 544.25,453.00C547.24,460.98 549.98,468.73 550.36,470.24C550.85,472.24 552.42,473.69 556.15,475.58C558.96,477.00 563.50,480.26 566.23,482.81C568.96,485.37 572.29,489.60 573.61,492.22C574.94,494.84 576.74,500.02 577.61,503.74C578.67,508.24 579.01,512.66 578.62,516.95C578.27,520.85 577.01,525.50 575.44,528.71C574.01,531.63 571.38,535.14 569.58,536.51C567.79,537.87 564.56,539.60 562.41,540.34C560.26,541.08 558.00,542.67 557.39,543.88C556.78,545.09 555.20,547.24 553.89,548.67C552.58,550.10 549.70,552.09 547.50,553.11C544.82,554.35 541.19,554.96 536.50,554.96C531.70,554.96 528.15,554.34 525.21,553.01C521.78,551.45 520.49,550.10 518.80,546.28C516.69,541.50 516.69,541.50 519.01,532.25C520.29,527.16 520.99,522.66 520.57,522.25C520.15,521.84 518.07,523.44 515.96,525.81C513.85,528.18 511.40,532.30 510.51,534.97C509.62,537.64 508.21,540.09 507.37,540.41C506.53,540.74 503.74,540.99 501.17,540.98C498.60,540.97 494.68,540.13 492.46,539.12C490.24,538.11 487.13,535.76 485.56,533.89C483.98,532.03 482.09,529.05 481.35,527.28C480.61,525.51 480.00,522.36 480.01,520.28C480.01,518.20 480.68,515.21 481.51,513.64C482.33,512.06 485.24,508.18 487.98,505.02C492.55,499.75 493.06,498.65 494.01,491.94C494.58,487.91 495.83,483.38 496.78,481.87C497.74,480.36 500.43,477.75 502.76,476.06C505.09,474.37 507.00,472.20 507.00,471.24C507.00,470.27 504.73,461.17 501.97,450.99C499.20,440.82 495.74,429.35 494.28,425.50C492.82,421.65 491.21,417.94 490.69,417.25C490.18,416.56 488.21,416.00 486.31,416.00C484.42,416.00 482.00,416.47 480.93,417.04C479.71,417.69 479.00,419.13 479.00,420.97C479.00,422.56 477.41,434.95 475.47,448.49C473.53,462.04 470.60,480.29 468.96,489.06C467.32,497.82 465.06,507.44 463.94,510.43C462.72,513.69 460.51,517.10 458.44,518.92C456.53,520.59 453.63,522.66 451.99,523.51C450.34,524.36 449.00,525.72 449.00,526.55C449.00,527.37 451.01,536.11 453.46,545.97C455.92,555.83 459.02,566.50 460.36,569.70C461.70,572.89 466.01,585.46 469.94,597.64C477.08,619.78 477.08,619.78 486.79,621.53C492.13,622.49 499.19,624.16 502.48,625.24C505.77,626.31 510.72,628.33 513.48,629.72C516.24,631.10 520.33,633.72 522.57,635.54C524.81,637.35 528.91,642.14 531.69,646.17C534.47,650.20 538.41,656.81 540.44,660.85C542.47,664.89 545.46,671.64 547.09,675.85C548.71,680.06 550.79,687.28 551.71,691.89C553.37,700.28 553.37,700.28 550.34,702.99C548.42,704.70 544.39,706.48 539.40,707.82C535.06,708.99 527.00,710.63 521.50,711.48C516.00,712.32 505.65,713.24 498.50,713.53C491.35,713.82 483.25,714.18 480.50,714.33zM235.68,700.00C235.97,700.00 235.95,699.33 235.64,698.50C235.18,697.31 235.96,697.00 239.42,697.00C242.17,697.00 244.62,696.32 246.06,695.15C248.35,693.30 248.35,693.30 241.27,691.15C237.38,689.97 233.70,689.00 233.09,689.00C232.49,689.00 232.00,690.75 232.00,692.93C232.00,695.17 232.68,697.53 233.57,698.43C234.44,699.29 235.38,700.00 235.68,700.00zM468.00,690.62C474.50,690.50 474.50,690.50 475.05,676.75C475.39,668.31 476.05,662.55 476.77,661.83C477.66,660.94 478.06,661.00 478.46,662.08C478.75,662.86 480.12,668.63 481.49,674.90C482.87,681.17 484.00,687.13 484.00,688.15C484.00,689.57 484.75,690.00 487.25,689.99C490.50,689.99 490.50,689.99 493.28,678.17C494.82,671.68 497.34,663.69 498.89,660.43C500.44,657.17 503.37,652.52 505.40,650.10C507.75,647.30 508.75,645.35 508.14,644.74C507.53,644.13 503.23,644.28 496.34,645.14C489.40,646.01 475.44,646.48 457.50,646.44C439.64,646.40 428.59,645.99 427.00,645.29C424.50,644.21 424.50,644.21 427.00,643.23C428.48,642.65 437.27,642.46 448.50,642.75C458.95,643.02 473.94,642.73 481.80,642.10C489.67,641.47 497.55,640.35 499.30,639.60C502.50,638.23 502.50,638.23 496.00,635.23C492.43,633.58 487.25,631.42 484.50,630.44C480.64,629.05 476.42,628.64 466.00,628.62C458.57,628.62 449.12,629.16 445.00,629.84C440.88,630.52 434.73,632.36 431.35,633.94C427.55,635.71 422.94,639.06 419.30,642.70C414.36,647.64 413.06,649.71 411.24,655.55C410.04,659.37 408.65,666.75 408.14,671.95C407.63,677.14 407.42,681.93 407.67,682.59C407.93,683.25 410.92,684.48 414.32,685.32C417.72,686.17 424.10,687.37 428.50,688.00C432.90,688.62 442.12,689.50 449.00,689.94C455.88,690.38 464.43,690.69 468.00,690.62zM287.12,689.86C295.17,689.94 303.15,689.72 304.86,689.38C306.57,689.04 307.75,688.40 307.48,687.97C307.22,687.54 307.94,687.43 309.10,687.74C310.34,688.06 311.57,687.71 312.08,686.89C312.56,686.13 312.72,684.76 312.44,683.86C312.16,682.95 312.54,681.60 313.29,680.86C314.03,680.11 314.76,679.05 314.90,678.50C315.05,677.95 315.35,677.31 315.58,677.08C315.81,676.85 316.00,677.30 316.01,678.08C316.01,678.86 316.65,678.28 317.43,676.79C318.20,675.30 319.66,672.60 320.67,670.79C321.68,668.98 323.96,665.53 325.73,663.13C327.51,660.72 328.67,658.28 328.31,657.70C327.93,657.08 326.50,658.03 324.85,660.01C323.31,661.86 322.25,663.59 322.51,663.85C322.77,664.10 322.49,664.91 321.88,665.65C321.27,666.38 320.38,666.73 319.90,666.44C319.42,666.14 319.26,666.51 319.54,667.26C319.83,668.00 319.21,669.60 318.17,670.81C317.12,672.01 315.73,673.00 315.07,673.00C314.42,673.00 314.20,672.48 314.60,671.85C315.03,671.15 314.87,670.96 314.20,671.38C313.59,671.76 313.34,672.72 313.65,673.53C313.96,674.34 314.73,675.03 315.36,675.06C315.99,675.10 315.49,675.53 314.25,676.03C312.98,676.54 312.00,677.80 312.00,678.91C312.00,679.99 311.57,681.15 311.04,681.47C310.52,681.80 310.33,682.69 310.62,683.46C311.01,684.47 310.58,684.70 309.08,684.31C307.94,684.01 307.00,683.42 307.00,683.00C307.00,682.58 308.69,678.46 310.75,673.86C312.81,669.25 316.04,663.35 317.92,660.74C320.45,657.23 322.01,655.99 323.92,655.97C326.08,655.94 326.23,655.78 324.83,654.96C323.91,654.43 319.86,653.33 315.83,652.52C311.80,651.71 300.00,650.13 289.60,649.02C279.21,647.91 268.23,647.00 265.20,647.00C260.74,647.00 259.00,647.52 256.09,649.73C254.12,651.23 250.68,654.38 248.44,656.74C246.21,659.09 242.24,664.57 239.61,668.92C236.96,673.30 234.60,678.58 234.30,680.77C233.83,684.31 234.02,684.79 236.14,685.28C237.44,685.59 241.88,686.35 246.00,686.98C250.12,687.60 257.77,688.48 263.00,688.92C268.23,689.36 279.08,689.79 287.12,689.86zM335.66,651.92C336.30,651.97 341.70,650.13 347.66,647.85C353.62,645.56 359.10,643.23 359.82,642.66C360.87,641.85 360.66,641.39 358.82,640.44C357.55,639.78 352.37,638.28 347.31,637.11C342.26,635.93 333.71,634.30 328.31,633.49C322.92,632.68 315.29,632.01 311.36,632.01C307.43,632.00 300.54,632.70 296.04,633.55C291.53,634.41 284.17,636.46 279.68,638.11C275.18,639.77 271.07,641.54 270.55,642.06C269.95,642.65 270.51,643.00 272.05,643.01C273.40,643.02 279.90,643.48 286.50,644.03C293.10,644.59 303.82,645.76 310.32,646.62C316.83,647.49 324.93,649.02 328.32,650.02C331.72,651.03 335.02,651.88 335.66,651.92zM331.00,628.82C332.38,628.90 334.04,628.63 334.69,628.21C335.49,627.70 336.12,621.97 336.58,610.98C336.97,601.91 337.24,594.05 337.20,593.50C337.16,592.95 332.70,591.51 327.31,590.30C321.91,589.10 317.14,588.46 316.70,588.90C316.27,589.33 315.49,593.70 314.97,598.60C314.46,603.49 314.03,611.87 314.02,617.20C314.00,626.91 314.00,626.91 317.25,627.45C319.04,627.74 322.30,628.14 324.50,628.33C326.70,628.51 329.62,628.73 331.00,628.82zM435.29,627.52C436.51,627.25 440.85,626.35 444.93,625.53C449.02,624.70 452.80,623.60 453.33,623.07C453.95,622.45 453.65,621.11 452.49,619.34C451.50,617.83 449.50,610.94 448.06,604.04C445.43,591.50 445.43,591.50 434.71,591.36C424.71,591.23 424.00,591.35 424.00,593.18C424.00,594.25 425.62,601.73 427.59,609.80C429.56,617.86 431.61,625.26 432.13,626.24C432.76,627.42 433.83,627.85 435.29,627.52zM428.29,586.98C431.15,586.96 435.30,586.54 437.50,586.03C439.89,585.49 442.50,583.95 444.00,582.20C445.38,580.59 447.51,578.75 448.75,578.11C449.99,577.46 451.00,576.44 451.00,575.84C451.00,575.16 449.86,574.98 447.98,575.35C446.32,575.69 442.96,575.68 440.51,575.35C436.06,574.74 436.06,574.74 438.44,572.87C440.78,571.03 440.79,570.93 439.35,565.25C438.54,562.09 436.27,554.10 434.30,547.50C432.33,540.90 430.66,535.41 430.58,535.31C430.51,535.20 426.71,535.95 422.15,536.97C417.58,537.98 413.57,539.09 413.23,539.43C412.90,539.77 413.17,543.30 413.84,547.27C414.51,551.25 416.18,558.77 417.56,564.00C418.95,569.23 420.20,575.52 420.35,578.00C420.51,580.48 421.18,583.51 421.85,584.75C422.88,586.65 423.89,587.00 428.29,586.98zM331.32,585.92C332.31,585.96 334.00,585.53 335.07,584.96C336.13,584.40 337.00,583.02 337.00,581.91C337.00,580.54 338.20,579.38 340.75,578.27C344.50,576.64 344.50,576.64 341.00,575.87C339.07,575.45 333.68,574.25 329.01,573.21C324.33,572.17 319.76,571.51 318.85,571.75C317.93,571.99 316.92,573.16 316.61,574.34C316.29,575.53 316.03,577.40 316.03,578.50C316.03,579.60 316.43,581.14 316.92,581.91C317.42,582.69 320.45,583.89 323.66,584.58C326.87,585.27 330.32,585.87 331.32,585.92zM328.64,571.00C333.83,571.00 335.11,570.66 335.96,569.07C336.53,568.00 337.00,561.59 337.00,554.82C337.00,542.50 337.00,542.50 333.75,539.93C331.96,538.51 328.15,536.51 325.27,535.49C322.40,534.46 319.84,533.82 319.60,534.07C319.35,534.31 318.83,541.61 318.43,550.29C317.72,565.88 317.74,566.09 320.03,568.53C322.02,570.65 323.24,571.00 328.64,571.00zM532.29,546.00C534.95,546.00 538.11,545.50 539.32,544.88C540.52,544.26 542.74,542.60 544.25,541.19C545.76,539.78 547.00,538.28 547.00,537.85C547.00,537.42 545.58,535.45 543.83,533.46C540.67,529.86 540.67,529.86 542.56,522.18C543.83,517.04 544.46,510.86 544.48,503.50C544.49,497.45 544.86,491.94 545.31,491.25C545.75,490.56 548.12,489.50 550.56,488.88C553.00,488.27 555.00,487.42 555.00,487.00C555.00,486.58 553.02,484.62 550.60,482.63C547.91,480.43 543.92,478.42 540.35,477.47C537.13,476.61 531.52,475.64 527.88,475.32C522.94,474.88 519.79,475.20 515.46,476.56C512.27,477.56 507.82,479.78 505.58,481.49C503.29,483.23 500.96,486.10 500.26,488.04C499.55,490.05 499.25,493.65 499.57,496.60C500.11,501.71 500.11,501.71 494.01,506.99C490.65,509.90 487.25,513.54 486.45,515.09C485.65,516.64 485.01,518.94 485.03,520.20C485.05,521.47 485.72,523.36 486.52,524.42C487.32,525.48 489.21,527.16 490.73,528.16C492.26,529.17 494.06,529.99 494.75,529.99C495.44,530.00 496.00,529.30 496.00,528.44C496.00,527.58 499.38,523.33 503.50,519.00C507.62,514.67 511.00,510.40 511.00,509.51C511.00,508.63 510.28,506.52 509.41,504.83C507.99,502.08 507.98,501.59 509.34,500.24C510.17,499.40 513.08,498.51 515.81,498.24C518.54,497.98 522.35,498.29 524.30,498.93C526.24,499.57 529.04,501.31 530.52,502.79C532.81,505.08 533.14,506.10 532.73,509.72C532.40,512.59 532.69,514.33 533.62,515.10C534.38,515.73 535.00,516.61 535.00,517.05C535.00,517.50 533.99,518.00 532.75,518.18C531.08,518.42 529.61,520.31 527.07,525.50C525.01,529.70 523.46,534.54 523.21,537.61C522.83,542.10 523.06,542.93 525.11,544.36C526.49,545.33 529.42,546.00 532.29,546.00zM560.71,528.00C561.37,528.00 563.06,526.05 564.46,523.66C566.57,520.06 567.00,518.05 567.00,511.82C567.00,507.69 566.36,502.18 565.57,499.56C564.78,496.95 563.36,493.95 562.41,492.91C561.47,491.86 559.50,491.00 558.04,491.00C556.58,491.00 554.51,491.64 553.45,492.42C551.54,493.81 551.55,493.90 553.81,497.67C555.08,499.77 556.88,503.07 557.81,505.00C559.04,507.55 559.50,511.14 559.50,518.25C559.50,525.20 559.85,528.00 560.71,528.00zM366.00,521.20C372.88,521.01 380.87,520.45 383.76,519.96C387.68,519.29 391.86,517.23 400.26,511.82C406.44,507.84 416.23,502.13 422.00,499.13C427.77,496.14 432.67,493.55 432.88,493.38C433.08,493.22 433.63,491.15 434.09,488.79C434.55,486.43 435.86,479.20 436.99,472.73C438.13,466.25 439.72,455.93 440.53,449.79C441.34,443.65 441.95,437.02 441.89,435.06C441.81,432.64 441.19,434.38 439.95,440.50C438.94,445.45 437.66,452.88 437.09,457.00C436.53,461.12 435.61,468.03 435.05,472.35C434.48,476.67 433.53,483.01 432.94,486.44C431.92,492.31 431.63,492.77 428.18,494.23C426.15,495.08 422.97,496.27 421.10,496.89C419.23,497.50 417.25,498.00 416.71,498.00C416.07,498.00 415.97,494.01 416.42,486.75C416.81,480.56 417.79,470.10 418.60,463.50C419.41,456.90 421.42,443.18 423.06,433.00C424.71,422.82 427.21,409.32 428.61,403.00C430.01,396.68 431.76,390.60 432.48,389.50C433.21,388.40 437.83,383.14 442.76,377.81C447.69,372.49 454.04,365.18 456.87,361.56C462.03,355.00 462.03,355.00 447.63,355.00C433.23,355.00 433.23,355.00 427.36,358.90C424.14,361.05 419.70,363.28 417.50,363.86C415.30,364.44 404.94,365.40 394.49,365.98C381.20,366.73 370.51,366.73 358.99,366.00C349.92,365.43 341.60,364.69 340.50,364.35C339.40,364.01 338.17,363.23 337.77,362.62C337.36,362.00 337.02,360.04 337.02,358.25C337.00,355.54 336.62,355.00 334.75,355.02C333.51,355.03 330.70,355.88 328.50,356.90C326.30,357.92 322.95,360.39 321.05,362.38C319.16,364.37 317.02,366.00 316.30,366.00C315.59,366.00 315.01,365.66 315.03,365.25C315.04,364.84 316.42,362.70 318.09,360.50C320.74,357.00 320.90,356.45 319.35,356.14C318.38,355.94 315.27,356.29 312.43,356.93C309.59,357.56 305.51,359.23 303.35,360.63C301.19,362.03 298.39,364.67 297.14,366.51C295.88,368.34 294.12,372.01 293.23,374.67C291.92,378.58 291.61,383.98 291.60,403.00C291.60,417.46 292.27,434.00 293.36,446.00C294.33,456.73 295.97,471.57 297.01,479.00C298.05,486.43 299.61,495.86 300.48,499.98C301.35,504.09 302.77,508.52 303.62,509.82C304.47,511.12 307.56,513.28 310.49,514.62C313.42,515.96 319.34,517.74 323.66,518.58C327.97,519.41 336.45,520.42 342.50,520.82C348.55,521.22 359.12,521.39 366.00,521.20zM351.41,509.47C347.71,509.91 345.47,509.58 342.32,508.11C339.73,506.90 337.49,504.92 336.46,502.91C335.29,500.67 334.92,498.17 335.25,494.80C335.56,491.55 336.48,489.11 338.04,487.46C339.32,486.09 342.17,484.49 344.36,483.90C346.56,483.31 350.27,483.11 352.61,483.46C354.95,483.81 358.02,485.02 359.45,486.14C360.87,487.26 362.71,489.46 363.52,491.04C364.33,492.61 365.00,495.09 365.00,496.55C365.00,498.01 364.26,500.75 363.37,502.64C362.47,504.54 360.51,506.72 359.02,507.49C357.53,508.26 354.10,509.15 351.41,509.47zM346.73,500.99C347.40,500.99 348.63,499.96 349.46,498.70C350.29,497.43 351.25,495.00 351.59,493.29C352.09,490.81 351.80,489.97 350.17,489.09C349.05,488.49 347.05,488.00 345.72,488.00C344.39,488.00 342.53,488.86 341.58,489.91C340.49,491.12 339.98,493.02 340.18,495.13C340.41,497.49 341.23,498.82 343.00,499.71C344.38,500.40 346.05,500.98 346.73,500.99zM363.78,474.94C363.08,474.90 361.51,474.48 360.31,473.99C359.10,473.50 357.39,472.00 356.50,470.64C355.35,468.88 355.07,467.12 355.55,464.57C355.92,462.59 357.48,459.62 359.02,457.98C360.98,455.88 362.74,455.00 365.00,455.00C367.29,455.00 369.02,455.88 371.10,458.11C373.14,460.29 374.00,462.23 374.00,464.67C374.00,466.57 373.51,469.04 372.92,470.15C372.33,471.26 370.31,472.81 368.45,473.58C366.59,474.36 364.49,474.97 363.78,474.94zM524.73,470.26C530.65,469.97 535.69,469.57 535.91,469.37C536.14,469.17 535.15,466.85 533.71,464.20C532.27,461.56 528.40,451.59 525.11,442.06C521.82,432.52 518.71,424.31 518.21,423.81C517.67,423.27 514.47,423.55 510.22,424.52C506.33,425.40 502.70,426.66 502.17,427.31C501.52,428.11 502.97,434.85 506.58,447.78C509.54,458.38 512.41,467.90 512.96,468.92C513.87,470.62 514.93,470.74 524.73,470.26zM334.28,468.96C332.75,468.94 330.15,468.33 328.50,467.60C326.85,466.87 324.67,465.35 323.67,464.21C322.66,463.08 321.59,460.37 321.30,458.19C321.01,456.02 321.30,452.62 321.95,450.65C322.60,448.68 324.47,445.94 326.10,444.57C327.73,443.20 330.60,441.79 332.49,441.44C334.86,440.99 337.07,441.36 339.71,442.65C342.31,443.92 344.20,445.89 345.75,448.96C346.99,451.42 348.00,454.79 348.00,456.46C347.99,458.13 347.08,460.99 345.97,462.81C344.86,464.63 342.41,466.77 340.51,467.56C338.61,468.35 335.81,468.98 334.28,468.96zM333.05,461.00C334.54,461.00 336.22,460.44 336.78,459.75C337.34,459.06 337.73,456.26 337.65,453.51C337.53,449.55 337.13,448.45 335.67,448.17C334.66,447.98 332.78,448.09 331.49,448.41C330.20,448.74 328.43,449.71 327.57,450.57C326.71,451.44 326.00,453.09 326.00,454.26C326.00,455.42 326.98,457.41 328.17,458.69C329.41,460.00 331.52,461.00 333.05,461.00zM223.18,459.00C224.26,459.00 227.11,457.64 229.53,455.98C231.94,454.32 236.30,450.28 239.21,446.99C242.12,443.71 245.51,439.15 246.75,436.86C248.42,433.76 248.71,432.36 247.90,431.38C247.04,430.34 246.11,431.07 243.56,434.78C241.77,437.38 239.47,439.66 238.45,439.86C237.36,440.07 235.74,439.19 234.55,437.74C233.42,436.37 229.01,431.13 224.75,426.09C216.99,416.92 216.99,416.92 219.50,412.22C220.87,409.63 221.98,406.61 221.95,405.51C221.93,404.40 221.35,402.18 220.66,400.57C219.41,397.64 219.41,397.64 216.54,403.57C214.71,407.35 211.08,412.07 206.54,416.57C201.54,421.52 197.70,424.35 193.70,426.00C190.57,427.30 188.00,428.90 188.00,429.56C188.00,430.21 192.62,435.20 198.27,440.63C203.91,446.07 211.39,452.43 214.88,454.76C218.37,457.09 222.11,459.00 223.18,459.00zM354.78,425.94C351.33,425.90 347.38,425.43 346.00,424.88C344.62,424.33 342.22,422.67 340.66,421.19C339.10,419.71 337.20,417.30 336.43,415.84C335.66,414.37 334.75,410.71 334.39,407.69C334.02,404.50 334.25,400.12 334.95,397.19C335.67,394.21 337.53,390.57 339.55,388.22C341.41,386.04 344.60,383.47 346.64,382.50C348.85,381.45 352.78,380.73 356.42,380.70C360.12,380.67 363.67,381.28 365.50,382.24C367.15,383.12 369.94,385.33 371.71,387.17C373.47,389.00 375.61,392.47 376.46,394.88C377.31,397.28 378.00,401.33 377.99,403.88C377.98,406.64 377.03,410.52 375.62,413.50C374.33,416.25 372.19,419.49 370.87,420.70C369.55,421.91 366.81,423.60 364.77,424.45C362.67,425.33 358.33,425.97 354.78,425.94zM183.00,422.34C185.47,422.09 189.49,420.89 191.92,419.69C194.35,418.49 196.28,417.05 196.20,416.50C196.13,415.95 194.92,415.36 193.52,415.18C192.12,415.01 188.62,415.54 185.74,416.36C182.86,417.18 178.53,418.37 176.12,419.00C173.70,419.63 172.14,420.52 172.62,420.99C173.11,421.45 174.62,422.05 176.00,422.32C177.38,422.58 180.53,422.59 183.00,422.34zM500.70,419.98C502.24,419.97 505.35,419.12 507.60,418.09C510.22,416.91 512.83,414.56 514.82,411.61C516.53,409.07 517.68,406.32 517.36,405.50C517.04,404.67 516.69,404.00 516.58,404.00C516.47,404.00 514.56,404.88 512.34,405.95C510.12,407.02 505.31,408.65 501.65,409.57C497.99,410.49 495.00,411.65 495.00,412.15C495.00,412.65 495.65,414.62 496.45,416.53C497.62,419.33 498.44,420.00 500.70,419.98zM266.27,417.00C267.25,417.00 269.49,414.92 271.27,412.38C273.05,409.84 275.00,407.06 275.62,406.21C276.58,404.86 277.17,404.83 279.90,405.96C281.64,406.68 283.29,407.04 283.56,406.77C283.84,406.50 284.32,404.05 284.65,401.34C285.20,396.62 285.07,396.27 281.61,393.23C278.40,390.41 277.70,390.18 275.47,391.20C274.08,391.83 269.58,396.40 265.47,401.36C261.36,406.31 258.00,410.97 258.00,411.70C258.00,412.43 259.46,413.92 261.25,415.01C263.04,416.10 265.30,416.99 266.27,417.00zM166.50,413.39C168.70,413.06 172.47,411.95 174.87,410.90C178.54,409.31 179.15,408.65 178.71,406.75C178.42,405.51 177.64,401.80 176.96,398.50C176.29,395.20 175.57,391.88 175.35,391.12C175.06,390.10 173.90,389.92 170.73,390.41C168.41,390.77 162.77,392.20 158.20,393.58C153.64,394.96 149.67,396.70 149.39,397.43C149.11,398.17 149.60,400.50 150.49,402.62C151.37,404.74 153.09,407.55 154.30,408.86C155.51,410.18 157.85,411.87 159.50,412.61C161.34,413.44 164.05,413.74 166.50,413.39zM454.73,412.00C455.01,412.00 454.94,407.39 454.57,401.75C454.20,396.11 454.38,386.15 454.96,379.60C455.55,373.06 455.80,367.46 455.51,367.17C455.22,366.88 454.34,367.51 453.55,368.57C452.76,369.63 451.59,373.45 450.94,377.05C450.28,380.70 449.96,388.00 450.21,393.55C450.50,399.86 451.32,405.05 452.45,407.75C453.42,410.09 454.45,412.00 454.73,412.00zM347.12,410.00C348.07,410.00 350.15,408.90 351.75,407.55C353.35,406.21 355.85,402.81 357.31,400.00C359.96,394.89 359.96,394.89 357.35,390.95C354.95,387.32 354.37,387.00 350.24,387.00C346.37,387.00 345.26,387.50 342.37,390.57C340.52,392.54 339.00,395.12 339.01,396.32C339.01,397.52 339.91,399.85 341.00,401.50C342.09,403.15 342.99,405.20 342.99,406.05C343.00,406.90 343.54,408.14 344.20,408.80C344.86,409.46 346.18,410.00 347.12,410.00zM191.96,407.51C193.36,407.18 195.62,406.10 197.00,405.10C199.42,403.35 199.52,402.81 200.06,388.90C200.51,377.06 201.04,373.40 202.98,368.31C204.96,363.17 205.13,361.87 204.05,360.56C203.34,359.70 201.32,359.00 199.56,359.00C197.38,359.00 195.57,359.86 193.80,361.75C192.38,363.26 190.33,366.30 189.25,368.50C188.16,370.70 186.31,375.31 185.14,378.75C183.88,382.43 183.00,387.50 183.00,391.04C183.00,394.35 183.69,398.72 184.54,400.75C185.38,402.77 186.83,405.26 187.74,406.27C188.90,407.55 190.19,407.93 191.96,407.51zM485.18,398.99C487.21,398.99 489.96,398.59 491.29,398.08C492.92,397.46 494.38,395.44 495.81,391.83C496.97,388.90 498.37,383.12 498.92,379.00C499.48,374.88 500.22,370.07 500.57,368.33C501.17,365.38 500.92,365.00 497.15,363.08C494.91,361.93 491.74,361.00 490.10,361.00C488.47,361.00 485.86,361.48 484.32,362.07C482.77,362.65 480.44,364.12 479.15,365.32C477.86,366.52 475.87,369.30 474.73,371.50C473.28,374.29 472.63,377.47 472.58,382.00C472.54,386.59 473.10,389.67 474.51,392.49C475.60,394.69 477.62,397.04 479.00,397.73C480.38,398.41 483.16,398.98 485.18,398.99zM148.43,390.00C149.58,390.00 152.28,389.06 154.43,387.91C156.57,386.76 159.07,384.90 159.98,383.78C160.89,382.65 164.28,380.74 167.51,379.54C170.74,378.33 173.86,376.58 174.44,375.64C175.24,374.36 175.13,373.71 174.00,373.00C173.18,372.49 170.70,372.32 168.50,372.63C166.30,372.94 160.70,374.06 156.05,375.13C151.40,376.19 146.78,377.79 145.80,378.68C144.81,379.58 144.00,381.34 144.00,382.61C144.00,383.87 144.52,386.05 145.16,387.45C145.87,389.01 147.14,390.00 148.43,390.00zM285.12,387.92C285.46,387.96 286.27,385.31 286.92,382.02C287.56,378.74 289.04,373.78 290.19,371.00C291.34,368.22 292.02,365.68 291.69,365.36C291.36,365.03 289.88,365.06 288.39,365.44C286.91,365.81 284.44,367.46 282.91,369.10C281.17,370.96 279.72,374.05 279.03,377.37C278.42,380.27 278.21,383.38 278.55,384.27C278.89,385.16 280.37,386.33 281.84,386.87C283.30,387.40 284.78,387.88 285.12,387.92zM143.67,373.00C144.49,373.00 148.16,371.50 151.83,369.66C155.50,367.82 160.19,365.76 162.25,365.08C165.82,363.90 166.00,363.64 166.00,359.49C166.00,356.96 166.63,354.52 167.50,353.64C168.32,352.82 169.00,351.66 169.00,351.07C169.00,350.45 166.81,350.00 163.75,350.00C160.86,350.00 155.26,350.95 151.30,352.13C147.15,353.36 143.17,355.26 141.89,356.62C139.76,358.88 139.72,359.25 140.93,365.99C141.82,370.97 142.61,373.00 143.67,373.00zM182.60,373.00C182.85,373.00 184.63,369.53 186.57,365.28C188.50,361.04 190.78,356.80 191.63,355.86C193.03,354.31 192.98,353.42 191.21,346.59C190.13,342.43 188.51,337.90 187.60,336.52C186.50,334.84 185.05,334.01 183.23,334.02C181.73,334.02 179.97,334.37 179.31,334.79C178.66,335.20 177.67,336.75 177.10,338.23C176.41,340.05 176.40,343.77 177.07,349.71C177.62,354.54 178.53,360.30 179.09,362.50C179.65,364.70 180.57,367.96 181.13,369.75C181.70,371.54 182.36,373.00 182.60,373.00zM370.73,360.99C375.00,360.98 379.51,360.70 380.75,360.37C382.87,359.80 383.00,359.24 383.00,351.03C383.00,342.30 383.00,342.30 374.75,341.58C370.21,341.19 365.38,340.79 364.00,340.69C361.56,340.50 361.49,340.68 361.21,348.08C361.05,352.25 361.38,356.86 361.94,358.33C362.92,360.91 363.22,361.00 370.73,360.99zM326.00,319.84C333.98,319.91 350.62,319.53 363.00,318.99C375.38,318.45 393.44,317.33 403.15,316.49C412.85,315.66 425.60,314.11 431.48,313.05C437.36,311.99 443.24,310.42 444.56,309.55C445.88,308.69 447.65,306.65 448.48,305.03C449.32,303.41 450.70,299.12 451.53,295.51C452.37,291.90 454.39,280.22 456.02,269.54C457.65,258.87 459.87,241.45 460.96,230.82C462.04,220.19 463.40,196.43 463.97,178.00C464.54,159.57 465.11,135.71 465.25,124.96C465.50,105.42 465.50,105.42 469.00,99.64C470.93,96.47 472.49,93.56 472.48,93.19C472.47,92.81 470.89,91.73 468.98,90.80C467.07,89.86 464.35,89.07 462.94,89.05C461.53,89.02 459.50,89.80 458.44,90.78C457.37,91.77 455.39,93.34 454.03,94.28C452.67,95.23 451.21,96.00 450.78,96.00C450.35,96.00 450.00,95.61 450.00,95.14C450.00,94.67 451.85,92.19 454.10,89.62C456.36,87.06 457.98,84.39 457.71,83.68C457.44,82.98 452.56,80.95 446.86,79.18C441.16,77.41 433.35,75.30 429.50,74.49C425.65,73.69 417.32,72.52 411.00,71.91C404.36,71.27 394.22,71.08 387.00,71.47C380.12,71.83 369.55,72.80 363.50,73.63C357.45,74.45 349.35,75.82 345.50,76.67C341.65,77.53 332.20,79.96 324.50,82.07C316.80,84.19 307.35,87.01 303.50,88.34C299.65,89.67 293.01,92.16 288.74,93.88C284.48,95.59 277.50,98.75 273.24,100.90C268.98,103.05 262.25,107.11 258.29,109.91C254.32,112.71 248.20,117.69 244.70,120.97C241.19,124.25 237.05,128.76 235.50,131.00C232.68,135.06 232.68,135.06 233.34,155.78C233.70,167.18 234.45,182.12 235.00,189.00C235.56,195.88 236.94,209.60 238.07,219.50C239.21,229.40 240.82,241.10 241.65,245.50C242.47,249.90 246.03,265.12 249.55,279.32C253.07,293.52 256.92,306.86 258.10,308.97C259.28,311.07 261.35,313.30 262.70,313.91C264.05,314.52 269.24,315.73 274.25,316.60C279.25,317.46 289.68,318.51 297.42,318.93C305.16,319.35 318.02,319.76 326.00,319.84zM468.29,300.53C468.95,300.33 472.54,299.18 476.25,298.00C482.00,296.16 483.09,295.44 483.56,293.17C483.87,291.70 484.51,288.70 484.99,286.50C485.48,284.30 486.18,279.57 486.55,276.00C487.16,270.19 487.07,269.66 485.71,271.00C484.88,271.82 482.33,276.19 480.06,280.69C477.78,285.20 473.93,291.59 471.50,294.90C469.06,298.21 467.62,300.74 468.29,300.53zM347.50,292.92C341.58,292.88 335.49,292.25 332.59,291.35C329.03,290.26 326.19,288.33 322.32,284.36C319.37,281.34 316.23,277.76 315.35,276.40C314.46,275.05 313.98,273.68 314.30,273.37C314.61,273.06 317.17,273.30 319.98,273.90C322.80,274.51 329.24,275.00 334.30,275.00C339.36,274.99 347.77,274.30 353.00,273.46C358.23,272.61 364.75,271.27 367.50,270.48C370.25,269.68 376.67,267.37 381.76,265.33C389.06,262.41 391.28,261.88 392.25,262.85C393.21,263.81 392.86,265.18 390.59,269.28C389.01,272.15 386.05,276.75 384.01,279.51C381.79,282.51 378.30,285.61 375.31,287.23C372.57,288.73 367.44,290.63 363.91,291.46C360.30,292.31 353.13,292.95 347.50,292.92zM236.64,265.00C237.60,265.00 237.95,264.37 237.61,263.25C237.32,262.29 236.17,254.88 235.05,246.80C233.93,238.71 232.55,223.41 231.98,212.80C231.42,202.18 230.69,192.04 230.37,190.25C230.04,188.46 229.44,187.00 229.02,187.00C228.61,187.00 227.12,187.91 225.71,189.01C224.30,190.12 222.46,193.16 221.61,195.76C220.77,198.37 219.80,202.75 219.47,205.50C219.13,208.25 219.33,215.34 219.91,221.26C220.48,227.18 221.66,234.83 222.53,238.26C223.39,241.69 225.21,247.44 226.55,251.02C227.90,254.61 230.38,259.22 232.07,261.27C233.76,263.32 235.82,265.00 236.64,265.00zM291.00,257.34C287.98,257.62 283.44,257.48 280.92,257.03C278.40,256.58 274.55,255.30 272.35,254.18C270.16,253.06 266.73,250.33 264.73,248.12C262.72,245.90 260.17,242.28 259.04,240.08C257.91,237.87 256.33,233.24 255.51,229.78C254.70,226.33 254.02,220.07 254.01,215.89C254.01,211.70 254.45,205.85 255.01,202.89C255.56,199.92 257.34,194.78 258.97,191.45C260.59,188.13 263.63,183.68 265.71,181.57C267.80,179.46 271.30,176.91 273.50,175.89C275.70,174.87 279.34,174.03 281.59,174.02C284.19,174.01 287.92,175.12 291.82,177.07C295.65,178.98 299.69,182.09 302.53,185.32C305.05,188.17 308.87,194.10 311.04,198.50C313.21,202.90 315.66,209.18 316.49,212.46C317.32,215.74 318.00,222.08 318.00,226.55C318.00,233.61 317.60,235.48 314.95,240.78C313.28,244.13 310.26,248.32 308.25,250.08C306.25,251.85 302.78,254.09 300.55,255.06C298.32,256.03 294.02,257.06 291.00,257.34zM218.13,256.00C218.61,256.00 219.00,254.99 218.99,253.75C218.99,252.51 218.31,246.12 217.49,239.54C216.67,232.96 216.01,222.38 216.02,216.04C216.04,209.69 216.49,202.47 217.03,200.00C217.57,197.53 218.25,194.49 218.53,193.25C218.88,191.68 218.58,191.00 217.52,191.00C216.69,191.00 214.21,192.63 212.01,194.61C209.23,197.12 207.55,199.77 206.51,203.29C205.68,206.08 205.00,210.87 205.00,213.93C205.01,216.99 205.68,223.64 206.50,228.71C207.32,233.77 208.89,240.18 209.98,242.95C211.08,245.73 213.16,249.80 214.62,252.00C216.07,254.20 217.66,256.00 218.13,256.00zM342.07,253.00C337.72,253.00 335.61,252.48 333.63,250.93C332.19,249.79 331.00,248.22 331.00,247.45C331.00,246.67 332.61,243.52 334.58,240.44C336.55,237.36 338.36,235.03 338.59,235.26C338.83,235.50 338.36,237.57 337.55,239.86C336.74,242.16 336.33,244.71 336.65,245.53C336.96,246.35 338.25,247.28 339.51,247.59C340.77,247.91 342.85,248.02 344.15,247.83C345.79,247.60 346.45,246.90 346.34,245.50C346.25,244.40 345.84,241.07 345.43,238.09C344.85,233.87 344.96,232.86 345.94,233.46C346.63,233.89 348.50,236.30 350.10,238.82C352.00,241.81 353.00,244.71 353.00,247.22C353.00,250.41 352.57,251.21 350.43,252.02C349.02,252.56 345.26,253.00 342.07,253.00zM287.85,246.98C289.69,246.99 292.69,246.29 294.51,245.43C296.34,244.56 298.96,242.20 300.34,240.18C301.72,238.15 303.36,234.55 303.98,232.17C304.61,229.78 304.83,226.52 304.48,224.92C304.13,223.31 303.31,222.01 302.67,222.02C302.03,222.03 300.23,223.83 298.69,226.02C297.14,228.21 295.23,230.00 294.45,230.00C293.67,230.00 291.87,228.17 290.46,225.93C287.89,221.87 287.89,221.87 282.20,222.56C279.06,222.94 275.94,223.70 275.25,224.25C274.56,224.80 274.00,227.30 274.00,229.81C274.00,232.37 274.90,236.23 276.06,238.62C277.19,240.96 279.56,243.80 281.31,244.92C283.06,246.05 286.01,246.97 287.85,246.98zM491.75,245.94C493.54,245.97 495.00,245.77 495.00,245.48C495.00,245.19 493.89,243.28 492.54,241.23C491.19,239.18 489.27,234.57 488.29,231.00C486.87,225.84 486.50,220.68 486.50,206.00C486.50,191.57 486.91,185.74 488.35,179.50C489.36,175.10 491.50,168.90 493.10,165.72C494.69,162.54 496.00,159.67 496.00,159.34C496.00,159.01 494.38,159.00 492.41,159.32C490.43,159.64 487.27,161.08 485.39,162.52C483.41,164.03 480.52,168.00 478.55,171.89C476.68,175.61 474.69,181.32 474.13,184.57C473.57,187.83 472.83,193.88 472.49,198.00C472.15,202.12 472.33,209.51 472.91,214.42C473.48,219.32 474.89,226.15 476.03,229.60C477.18,233.04 479.46,237.71 481.10,239.98C482.74,242.24 485.08,244.49 486.29,244.98C487.51,245.47 489.96,245.90 491.75,245.94zM406.59,242.62C400.79,242.83 395.71,242.43 392.56,241.53C389.84,240.75 385.12,238.39 382.07,236.29C377.67,233.27 375.83,231.12 373.24,225.99C371.44,222.42 369.48,216.80 368.87,213.50C368.27,210.20 368.00,203.00 368.28,197.50C368.64,190.63 369.50,185.62 371.04,181.50C372.27,178.20 374.19,174.15 375.30,172.50C376.40,170.85 379.15,167.55 381.41,165.16C383.66,162.78 388.20,159.41 391.50,157.68C396.79,154.90 398.45,154.53 405.50,154.54C412.43,154.56 414.21,154.95 418.79,157.46C421.70,159.05 425.84,162.27 427.99,164.60C430.14,166.93 433.50,172.04 435.47,175.94C437.44,179.85 439.99,186.97 441.13,191.77C442.62,198.04 443.09,202.61 442.78,208.00C442.47,213.37 441.55,217.27 439.55,221.73C437.76,225.70 434.96,229.64 431.84,232.55C429.14,235.08 424.40,238.30 421.31,239.72C416.86,241.75 413.76,242.36 406.59,242.62zM404.30,235.00C405.84,235.00 408.37,234.34 409.93,233.54C411.49,232.73 414.00,230.60 415.52,228.79C417.04,226.99 419.05,223.71 419.99,221.51C420.93,219.30 422.00,215.87 422.37,213.88C422.74,211.90 422.76,209.53 422.41,208.63C422.07,207.74 421.42,207.00 420.97,207.00C420.52,207.00 418.76,208.17 417.06,209.60C413.96,212.21 413.96,212.21 410.55,209.60C408.67,208.17 406.51,207.00 405.74,207.00C404.98,207.00 403.45,208.01 402.36,209.25C401.26,210.49 399.59,212.75 398.64,214.28C397.62,215.92 395.69,217.31 393.95,217.66C391.66,218.12 391.00,218.79 391.00,220.66C391.00,221.99 391.92,224.88 393.04,227.08C394.16,229.28 396.53,231.96 398.29,233.04C400.06,234.11 402.76,234.99 404.30,235.00zM509.18,232.00C509.66,232.00 510.49,230.83 511.04,229.40C511.62,227.88 511.76,222.42 511.39,216.15C510.89,207.71 511.12,204.06 512.50,198.58C514.18,191.93 514.18,191.61 512.44,190.33C511.44,189.60 509.82,189.00 508.85,189.00C507.87,189.00 506.19,189.96 505.09,191.13C503.89,192.42 502.84,195.43 502.42,198.80C502.04,201.85 501.99,208.21 502.30,212.92C502.62,217.64 503.42,223.07 504.08,225.00C504.74,226.93 505.96,229.29 506.80,230.25C507.63,231.21 508.70,232.00 509.18,232.00zM493.38,224.71C494.03,224.49 494.60,221.47 494.73,217.42C494.86,213.61 495.43,205.71 496.00,199.86C496.57,194.01 497.93,185.84 499.01,181.70C500.10,177.56 502.18,171.42 503.63,168.06C505.09,164.70 506.00,161.66 505.65,161.31C505.30,160.96 503.90,161.18 502.54,161.80C501.18,162.42 498.70,164.82 497.02,167.13C495.35,169.44 493.10,174.17 492.03,177.64C490.96,181.11 489.56,187.89 488.92,192.70C488.26,197.65 488.03,204.86 488.40,209.28C488.76,213.58 489.77,218.89 490.65,221.09C491.53,223.29 492.76,224.92 493.38,224.71zM273.08,214.85C273.39,214.93 274.59,213.99 275.74,212.75C276.89,211.51 278.99,208.30 280.41,205.60C281.84,202.91 283.00,199.06 283.00,197.05C283.00,195.04 282.46,192.86 281.80,192.20C281.14,191.54 279.06,191.00 277.19,191.00C275.31,191.00 272.08,191.95 270.00,193.12C267.93,194.28 265.33,196.87 264.23,198.87C263.12,200.87 261.94,203.85 261.61,205.50C261.27,207.19 261.56,209.59 262.28,211.00C263.25,212.92 264.59,213.64 268.02,214.10C270.49,214.43 272.76,214.77 273.08,214.85zM379.19,206.00C379.71,206.00 380.95,205.56 381.96,205.02C382.97,204.48 384.26,202.68 384.84,201.02C385.42,199.36 386.61,198.00 387.48,198.00C388.36,198.00 390.19,198.73 391.56,199.63C393.89,201.16 394.19,201.14 396.14,199.38C397.29,198.35 398.65,196.40 399.17,195.05C399.68,193.69 400.50,189.48 400.97,185.68C401.66,180.20 402.41,178.18 404.60,175.90C406.11,174.32 407.03,172.69 406.63,172.29C406.23,171.89 403.54,171.60 400.65,171.64C397.76,171.68 393.78,172.49 391.80,173.43C389.82,174.36 386.59,176.75 384.62,178.72C382.65,180.69 380.03,184.36 378.81,186.89C377.59,189.41 376.41,194.07 376.18,197.24C375.91,200.94 376.21,203.54 377.00,204.50C377.69,205.33 378.67,206.00 379.19,206.00zM253.23,140.74C252.24,141.12 251.91,140.71 252.15,139.40C252.38,138.13 255.74,135.91 262.25,132.72C272.00,127.94 272.00,127.94 272.00,122.61C272.00,119.67 272.46,114.85 273.02,111.89C273.58,108.94 274.93,105.62 276.02,104.54C277.99,102.56 278.00,102.59 278.02,113.03C278.02,118.79 278.42,124.12 278.90,124.88C279.62,126.02 280.65,126.04 284.85,125.04C287.95,124.29 290.12,123.18 290.42,122.16C290.70,121.25 291.39,116.69 291.96,112.03C292.72,105.86 293.54,103.01 295.00,101.56C297.00,99.56 297.00,99.56 297.02,108.53C297.02,113.46 297.45,118.16 297.95,118.96C298.75,120.22 301.09,120.05 315.19,117.68C324.16,116.18 336.00,114.52 341.50,114.00C347.00,113.48 356.82,113.04 363.32,113.03C369.81,113.01 375.94,112.57 376.92,112.04C378.04,111.45 379.17,108.91 379.94,105.29C380.62,102.11 382.15,97.50 383.34,95.07C384.53,92.63 386.28,90.16 387.22,89.59C388.37,88.89 389.28,88.88 389.94,89.54C390.61,90.21 390.46,92.38 389.49,96.02C388.70,99.03 387.76,104.02 387.41,107.10C386.78,112.70 386.78,112.70 391.53,113.35C394.14,113.71 399.04,114.00 402.42,114.00C408.56,114.00 408.56,114.00 410.34,107.10C411.31,103.30 413.10,98.24 414.31,95.85C415.51,93.46 417.34,91.35 418.36,91.16C419.38,90.97 420.58,91.19 421.02,91.66C421.47,92.12 420.92,96.93 419.80,102.35C418.08,110.66 417.98,112.39 419.13,113.47C419.88,114.17 424.55,115.47 429.50,116.35C434.45,117.23 440.82,118.64 443.65,119.48C446.48,120.33 449.03,121.64 449.33,122.41C449.62,123.18 449.33,124.52 448.68,125.39C447.64,126.78 447.04,126.80 443.50,125.57C441.30,124.81 436.12,123.49 432.00,122.65C427.88,121.81 417.98,120.60 410.00,119.97C402.02,119.34 386.50,118.82 375.50,118.82C364.50,118.81 349.65,119.32 342.50,119.94C335.35,120.56 323.65,121.99 316.50,123.11C309.35,124.24 299.17,126.24 293.88,127.56C288.59,128.89 277.60,132.27 269.46,135.08C261.31,137.89 254.01,140.44 253.23,140.74zM314.73,80.98C315.70,80.97 318.30,79.93 320.50,78.67C324.07,76.62 324.47,76.01 324.22,72.99C324.07,71.13 323.77,69.44 323.57,69.24C323.37,69.04 320.46,69.19 317.11,69.57C311.25,70.23 311.00,70.37 311.00,73.06C311.00,74.61 311.44,77.02 311.98,78.43C312.52,79.87 313.73,80.99 314.73,80.98zM310.79,63.99C312.28,63.98 315.79,62.91 318.60,61.61C321.40,60.30 324.02,58.39 324.41,57.37C324.92,56.04 324.38,54.86 322.51,53.25C321.07,52.01 318.60,51.00 317.02,51.00C315.39,51.00 312.82,52.12 311.05,53.61C309.35,55.04 307.50,57.07 306.94,58.11C306.25,59.40 306.27,60.63 307.00,62.00C307.67,63.25 309.09,64.00 310.79,63.99z"/>
</svg>