<?xml version="1.0" encoding="UTF-8" standalone="no"?>
<svg 
  version="1.1" 
  xmlns="http://www.w3.org/2000/svg" 
  xmlns:xlink="http://www.w3.org/1999/xlink" 
  xmlns:svg="http://www.w3.org/2000/svg"
  xmlns:rdf="http://www.w3.org/1999/02/22-rdf-syntax-ns#"
  xmlns:cc="http://creativecommons.org/ns#"
  xmlns:dc="http://purl.org/dc/elements/1.1/"
  viewBox="0 0 768 768"
  width="768"
  height="768"
>
<style>svg {background-color: white; }</style>"
<metadata id="metadata1">
Created by https://svgstud.io and licensed under CC-BY-SA 4.0 license. Please attribute https://svgstud.io
</metadata>
<metadata id="prompt">
manga style!!, monochrome, robot saying hi, plain background
</metadata>
<metadata id="version">
7
</metadata>
<metadata id="metadata2">
<rdf:RDF>
<cc:Work
    rdf:about="">
    <cc:license
    rdf:resource="http://creativecommons.org/licenses/by-sa/4.0/" />
    <dc:creator>
        <cc:Agent>
            <dc:title>https://svgstud.io</dc:title>
        </cc:Agent>
    </dc:creator>
</cc:Work>
<cc:License
    rdf:about="http://creativecommons.org/licenses/by-sa/4.0/">
    <cc:permits
    rdf:resource="http://creativecommons.org/ns#Reproduction" />
    <cc:permits
    rdf:resource="http://creativecommons.org/ns#Distribution" />
    <cc:requires
    rdf:resource="http://creativecommons.org/ns#Notice" />
    <cc:requires
    rdf:resource="http://creativecommons.org/ns#Attribution" />
    <cc:permits
    rdf:resource="http://creativecommons.org/ns#DerivativeWorks" />
    <cc:requires
    rdf:resource="http://creativecommons.org/ns#ShareAlike" />
</cc:License>
</rdf:RDF>
</metadata>
<metadata id="uid">
64228f80438757cb86b3c523b9cb7e129633b234de62c2ad0b9bf8db29142c85
</metadata>
<path stroke="none" fill="black" fill-rule="evenodd" d="M170.87,768.00C169.27,768.00 169.00,767.20 169.00,762.49C169.00,758.34 168.02,754.63 164.99,747.36C162.79,742.07 160.31,735.14 159.49,731.97C158.67,728.80 158.00,723.80 158.00,720.86C158.01,717.34 158.67,714.42 159.92,712.36C160.98,710.63 163.53,707.93 165.59,706.36C167.65,704.79 171.08,701.92 173.21,700.00C176.45,697.08 177.40,695.26 178.99,689.00C180.04,684.88 182.47,673.81 184.40,664.40C186.33,655.00 188.82,641.05 189.93,633.40C191.04,625.76 192.25,614.53 192.61,608.45C193.28,597.41 193.28,597.41 189.18,589.94C186.92,585.84 184.33,579.57 183.42,576.01C182.17,571.11 181.89,566.86 182.28,558.52C182.56,552.46 183.53,544.80 184.44,541.50C185.34,538.20 187.05,533.48 188.23,531.00C189.41,528.52 192.89,524.02 195.97,521.00C199.05,517.98 204.16,514.24 207.32,512.70C210.48,511.16 215.87,509.28 219.29,508.52C222.70,507.75 229.10,506.48 233.50,505.69C240.39,504.46 242.81,503.41 250.93,498.15C256.12,494.80 265.27,489.99 271.26,487.48C277.25,484.97 287.54,481.36 294.12,479.47C300.70,477.57 311.35,475.09 317.79,473.95C324.23,472.81 330.85,471.55 332.50,471.16C335.08,470.54 335.54,469.92 335.81,466.75C336.07,463.59 335.79,463.00 333.81,462.59C332.54,462.33 326.10,461.83 319.50,461.48C312.90,461.14 302.12,460.19 295.54,459.39C288.95,458.58 278.20,456.57 271.64,454.91C265.08,453.25 255.33,450.16 249.98,448.04C244.63,445.92 238.42,443.03 236.18,441.61C233.93,440.20 230.30,436.39 228.10,433.14C225.90,429.90 223.36,426.97 222.47,426.63C221.57,426.28 218.61,426.00 215.89,426.00C213.16,426.00 209.47,425.39 207.69,424.64C205.90,423.90 202.97,421.82 201.18,420.03C199.39,418.24 197.05,415.05 195.98,412.96C194.91,410.86 193.08,405.63 191.92,401.32C190.76,397.02 189.22,392.57 188.51,391.44C187.79,390.30 185.24,388.80 182.85,388.09C180.46,387.39 176.25,385.70 173.50,384.34C170.75,382.98 166.77,380.21 164.67,378.18C162.56,376.16 159.96,372.82 158.91,370.77C157.85,368.72 156.35,364.00 155.57,360.27C154.79,356.55 153.66,349.93 153.06,345.56C152.46,341.19 151.94,330.84 151.91,322.56C151.88,314.28 152.33,306.26 152.91,304.74C153.49,303.22 156.15,299.85 158.83,297.24C163.69,292.50 163.69,292.50 164.32,279.50C164.67,272.35 165.60,262.90 166.39,258.50C167.18,254.10 168.77,246.82 169.92,242.32C171.07,237.82 173.40,230.17 175.10,225.32C176.81,220.47 180.60,211.45 183.52,205.27C186.45,199.09 191.20,190.13 194.08,185.36C196.96,180.59 203.22,171.47 207.99,165.10C212.76,158.72 220.00,149.93 224.08,145.58C228.16,141.22 235.25,134.37 239.84,130.35C244.43,126.33 253.43,119.51 259.84,115.18C266.25,110.86 275.44,105.18 280.25,102.58C285.06,99.97 289.00,97.65 289.00,97.41C289.00,97.18 287.67,95.15 286.05,92.91C284.43,90.67 282.81,86.90 282.45,84.53C281.98,81.36 282.31,79.08 283.74,75.86C284.80,73.46 287.31,70.06 289.31,68.30C291.32,66.54 294.51,64.81 296.41,64.45C298.31,64.09 301.44,64.32 303.37,64.96C305.29,65.59 308.49,67.90 310.47,70.10C312.45,72.29 314.34,75.45 314.68,77.13C315.01,78.80 315.83,80.38 316.50,80.64C317.16,80.89 323.11,79.74 329.70,78.08C336.30,76.41 346.26,74.36 351.84,73.52C358.07,72.59 368.84,72.01 379.74,72.02C389.51,72.03 402.42,72.69 408.43,73.49C414.45,74.29 424.05,75.90 429.76,77.05C435.48,78.21 440.76,78.92 441.51,78.63C442.59,78.22 442.65,77.33 441.83,74.34C441.26,72.27 440.98,68.22 441.22,65.34C441.52,61.71 442.53,58.84 444.52,55.98C446.09,53.71 449.07,50.98 451.15,49.92C453.22,48.87 456.31,48.00 458.01,48.00C459.71,48.00 462.31,48.63 463.80,49.41C465.28,50.19 467.85,52.24 469.50,53.98C472.29,56.91 472.50,57.67 472.50,64.62C472.50,72.10 472.50,72.10 467.25,76.96C463.82,80.12 462.19,82.34 462.57,83.33C462.89,84.17 468.41,87.06 474.84,89.77C481.26,92.48 490.70,97.28 495.81,100.44C500.92,103.60 508.34,108.76 512.30,111.92C516.26,115.07 522.17,120.10 525.43,123.08C528.69,126.06 534.73,132.55 538.87,137.50C543.00,142.45 549.46,151.22 553.23,157.00C557.00,162.78 562.71,172.68 565.92,179.00C569.13,185.32 573.61,195.80 575.87,202.28C578.13,208.76 580.88,218.51 581.99,223.96C583.10,229.41 584.25,234.49 584.55,235.26C584.84,236.03 588.33,238.46 592.29,240.67C598.95,244.38 599.77,245.20 603.00,251.49C606.50,258.29 606.50,258.29 606.83,275.40C607.06,287.38 606.68,295.61 605.58,302.90C604.72,308.62 602.96,315.60 601.67,318.40C600.39,321.21 597.10,326.20 594.37,329.50C591.64,332.80 587.22,339.32 584.55,344.00C581.87,348.68 577.10,356.35 573.95,361.05C570.80,365.76 565.87,372.17 563.01,375.30C560.14,378.44 557.43,381.00 556.97,381.00C556.52,381.00 556.36,378.41 556.63,375.25C556.89,372.09 557.79,365.52 558.62,360.65C559.46,355.78 559.86,351.08 559.53,350.21C559.06,348.98 557.56,350.04 553.03,354.81C549.79,358.21 546.43,361.00 545.57,361.00C544.71,361.00 544.01,360.21 544.02,359.25C544.02,358.29 544.89,353.45 545.93,348.50C546.98,343.55 548.76,333.43 549.89,326.00C551.02,318.57 552.24,311.04 552.60,309.25C552.96,307.46 553.64,306.00 554.11,306.00C554.58,306.00 555.25,307.14 555.60,308.54C555.95,309.94 557.03,315.68 558.01,321.29C559.78,331.50 559.78,331.50 559.78,305.00C559.79,290.20 560.31,274.75 560.97,270.00C561.62,265.32 563.03,257.72 564.10,253.11C565.17,248.49 565.77,244.44 565.43,244.11C565.09,243.77 562.41,246.20 559.48,249.49C556.55,252.79 553.81,255.15 553.40,254.73C552.99,254.32 553.13,250.84 553.73,247.01C554.58,241.53 555.61,238.94 558.53,234.95C561.00,231.60 562.41,228.46 562.71,225.69C563.02,222.84 561.88,216.51 559.17,205.94C556.97,197.38 552.40,183.21 549.01,174.44C545.62,165.67 541.57,156.25 539.99,153.50C538.42,150.75 535.84,147.26 534.25,145.73C531.36,142.97 531.36,142.97 529.02,147.96C527.73,150.70 525.46,154.80 523.96,157.07C521.23,161.18 521.23,161.18 515.43,153.84C512.23,149.80 506.00,142.74 501.56,138.15C497.13,133.56 489.90,126.84 485.50,123.22C481.10,119.61 475.81,115.06 473.75,113.12C471.69,111.18 470.00,109.24 470.00,108.82C470.00,108.39 472.10,108.33 474.66,108.68C479.04,109.28 479.28,109.19 478.76,107.21C478.46,106.05 478.73,104.92 479.36,104.71C480.16,104.44 480.08,103.81 479.08,102.60C478.30,101.66 475.75,99.77 473.42,98.40C471.10,97.04 462.51,93.66 454.34,90.90C446.18,88.13 433.36,84.59 425.86,83.02C418.37,81.45 406.89,79.62 400.36,78.94C393.06,78.19 382.54,77.95 373.00,78.31C364.48,78.64 353.23,79.62 348.01,80.49C342.80,81.37 334.05,83.22 328.58,84.61C323.10,85.99 317.13,87.75 315.31,88.51C312.45,89.71 312.00,90.38 312.00,93.41C312.00,95.87 311.42,97.24 310.07,97.96C309.00,98.53 307.31,99.00 306.31,99.00C305.30,99.00 302.28,100.17 299.59,101.61C296.89,103.04 292.27,105.05 289.33,106.06C286.38,107.07 279.58,110.45 274.23,113.57C268.88,116.69 258.61,123.66 251.40,129.07C243.54,134.98 234.07,143.33 227.73,149.95C221.91,156.02 213.95,165.24 210.05,170.44C206.14,175.63 201.20,182.76 199.06,186.27C196.93,189.78 192.71,197.57 189.68,203.58C186.65,209.59 182.38,219.00 180.20,224.50C178.02,230.00 175.29,238.32 174.14,243.00C172.99,247.68 171.34,255.55 170.47,260.50C169.60,265.45 168.66,275.57 168.38,283.00C168.11,290.43 167.70,297.42 167.47,298.55C167.25,299.67 165.30,301.59 163.14,302.80C160.98,304.02 158.89,305.80 158.49,306.75C158.09,307.71 157.41,309.99 156.98,311.82C156.54,313.64 156.58,321.06 157.06,328.32C157.54,335.57 158.82,345.86 159.89,351.20C160.96,356.53 162.44,362.15 163.18,363.70C164.10,365.63 165.40,366.60 167.38,366.83C168.95,367.01 170.63,366.77 171.11,366.29C171.60,365.80 171.32,362.18 170.45,357.96C169.56,353.60 168.74,342.82 168.47,332.00C168.02,313.50 168.02,313.50 171.44,330.78C173.32,340.29 175.86,351.45 177.09,355.57C178.31,359.70 179.69,363.31 180.16,363.60C180.62,363.88 181.00,363.08 181.00,361.81C181.00,360.54 180.08,354.77 178.95,349.00C177.83,343.23 176.64,334.36 176.31,329.31C175.91,323.16 176.13,318.61 176.98,315.56C177.69,313.05 178.65,311.00 179.13,311.00C179.61,311.00 180.00,311.11 180.00,311.25C180.00,311.39 181.11,320.28 182.47,331.00C183.82,341.73 187.16,361.30 189.89,374.50C192.62,387.70 196.01,402.10 197.42,406.50C198.84,410.90 200.48,415.18 201.07,416.00C201.86,417.09 201.98,415.06 201.52,408.50C201.18,403.55 200.44,396.35 199.87,392.50C199.31,388.65 196.84,376.05 194.38,364.50C191.92,352.95 188.32,336.30 186.38,327.50C184.43,318.70 182.45,309.70 181.96,307.50C181.48,305.30 181.07,299.64 181.04,294.92C181.02,290.21 181.48,281.43 182.07,275.42C182.65,269.42 184.00,260.16 185.06,254.85C186.13,249.54 189.04,238.85 191.54,231.09C194.04,223.33 198.73,211.69 201.97,205.21C205.21,198.74 210.70,189.41 214.17,184.47C217.79,179.32 226.87,169.08 235.49,160.44C243.74,152.16 253.72,142.83 257.66,139.72C261.60,136.60 269.25,131.19 274.66,127.69C280.07,124.19 290.89,117.84 298.70,113.58C306.51,109.31 317.31,104.09 322.70,101.98C328.09,99.87 337.00,97.18 342.50,96.02C349.14,94.62 358.04,93.71 369.00,93.33C381.64,92.88 388.12,93.13 396.70,94.40C402.87,95.31 412.77,97.44 418.70,99.13C424.64,100.83 432.87,103.76 436.99,105.65C441.11,107.54 446.43,110.24 448.82,111.63C451.21,113.03 452.97,114.36 452.74,114.59C452.51,114.82 449.67,114.09 446.41,112.96C443.16,111.84 436.00,109.62 430.50,108.02C425.00,106.43 415.32,104.09 409.00,102.82C399.17,100.86 394.45,100.53 376.50,100.54C357.37,100.56 354.52,100.79 344.50,103.17C338.45,104.60 329.00,107.46 323.50,109.51C318.00,111.56 307.54,116.08 300.25,119.55C292.96,123.02 284.19,127.55 280.75,129.62C277.31,131.69 270.62,136.22 265.88,139.68C261.13,143.14 254.50,148.92 251.13,152.53C247.75,156.13 243.65,161.42 242.01,164.29C240.36,167.15 239.01,170.51 239.01,171.75C239.00,172.99 239.21,174.00 239.46,174.00C239.71,174.00 243.96,170.91 248.90,167.13C253.84,163.35 261.89,158.20 266.78,155.67C271.67,153.14 276.87,150.62 278.34,150.06C280.58,149.21 281.00,149.32 281.00,150.77C281.00,151.72 278.12,157.11 274.61,162.75C270.52,169.31 266.78,177.04 264.20,184.25C261.99,190.44 258.30,201.52 256.01,208.87C253.41,217.21 251.48,221.88 250.90,221.30C250.31,220.71 250.33,217.75 250.96,213.43C251.51,209.62 251.95,205.60 251.94,204.50C251.92,202.77 251.73,202.85 250.51,205.09C249.74,206.52 248.02,210.57 246.69,214.09C245.37,217.62 243.48,223.93 242.49,228.13C241.50,232.32 240.97,236.49 241.31,237.38C241.82,238.70 243.51,239.00 250.34,239.00C255.97,239.00 262.00,239.82 268.62,241.48C274.05,242.85 282.10,245.74 286.50,247.91C291.26,250.26 296.46,253.81 299.34,256.68C302.00,259.33 305.24,263.30 306.54,265.51C307.84,267.72 310.05,272.56 311.45,276.28C312.85,280.00 314.00,284.26 314.00,285.75C314.00,288.28 313.54,287.99 306.75,281.32C302.76,277.40 294.49,270.20 288.37,265.33C282.25,260.45 272.55,253.93 266.82,250.83C261.08,247.74 254.62,244.71 252.45,244.11C250.28,243.50 246.61,243.01 244.30,243.01C240.34,243.00 240.06,243.19 239.50,246.25C239.17,248.04 238.82,250.83 238.70,252.46C238.50,255.41 238.50,255.41 248.00,255.53C253.85,255.60 259.79,256.32 263.47,257.41C266.75,258.39 271.25,260.09 273.47,261.21C275.69,262.32 279.87,265.03 282.76,267.24C285.65,269.45 289.56,273.35 291.44,275.91C293.32,278.47 295.17,281.84 295.56,283.39C296.22,286.02 296.11,286.17 293.89,285.47C292.57,285.06 290.86,284.49 290.09,284.19C289.07,283.81 288.92,284.06 289.55,285.08C290.03,285.86 292.10,288.90 294.16,291.84C296.22,294.78 298.92,300.18 300.17,303.84C302.02,309.25 302.45,312.66 302.45,322.00C302.45,331.03 301.99,335.01 300.27,340.50C299.07,344.35 296.73,349.34 295.07,351.59C293.41,353.85 290.29,356.92 288.12,358.41C285.96,359.91 282.01,361.83 279.35,362.67C276.68,363.51 271.07,364.20 266.87,364.19C262.02,364.18 258.17,363.62 256.30,362.66C254.68,361.82 252.83,360.50 252.18,359.72C251.18,358.51 252.44,358.37 260.81,358.78C269.01,359.17 270.88,358.98 272.26,357.60C273.17,356.69 273.68,355.34 273.40,354.59C273.05,353.68 274.01,353.03 276.36,352.59C278.56,352.18 280.98,350.65 282.91,348.45C284.59,346.53 286.24,343.88 286.58,342.55C286.91,341.23 286.88,339.21 286.52,338.07C286.16,336.93 285.32,336.00 284.66,336.00C284.00,336.00 281.89,337.28 279.98,338.85C278.07,340.41 275.52,342.21 274.32,342.85C273.11,343.48 271.22,344.00 270.12,344.00C269.01,344.00 267.66,344.78 267.13,345.73C266.21,347.37 266.06,347.37 264.25,345.73C263.20,344.77 260.61,341.05 258.51,337.45C256.40,333.84 253.91,330.49 252.97,329.98C252.03,329.48 250.98,329.35 250.63,329.70C250.28,330.05 250.00,332.48 250.00,335.11C250.00,337.73 249.65,340.10 249.21,340.37C248.78,340.63 246.87,337.96 244.96,334.43C243.06,330.89 241.16,328.00 240.75,328.00C240.34,328.00 239.99,329.01 239.98,330.25C239.98,331.49 239.60,333.08 239.15,333.80C238.49,334.84 238.08,334.80 237.08,333.59C236.39,332.77 235.19,329.98 234.42,327.39C233.64,324.80 233.00,319.80 233.00,316.27C233.00,312.06 233.87,307.26 235.53,302.31C236.92,298.16 239.46,292.68 241.18,290.13C242.89,287.59 245.66,284.04 247.34,282.25C250.06,279.35 250.18,279.00 248.39,279.00C247.29,279.00 244.06,280.16 241.20,281.59C238.34,283.01 234.39,286.05 232.42,288.34C230.44,290.63 227.88,294.30 226.72,296.50C225.09,299.59 224.51,302.83 224.19,310.70C223.90,317.86 224.27,323.11 225.42,328.30C226.33,332.37 228.61,338.91 230.49,342.83C232.37,346.75 235.81,352.66 238.14,355.96C240.46,359.26 242.08,362.25 241.73,362.60C241.38,362.96 239.13,362.10 236.74,360.69C234.34,359.29 230.49,356.09 228.17,353.57C225.86,351.06 221.77,345.64 219.08,341.53C216.40,337.42 213.24,331.23 212.06,327.78C210.88,324.32 209.04,315.88 207.97,309.00C206.90,302.12 206.02,296.16 206.01,295.75C206.00,295.34 205.55,295.00 205.00,295.00C204.44,295.00 204.00,297.80 204.00,301.39C204.00,304.91 204.45,312.45 205.01,318.14C205.56,323.84 206.95,334.30 208.09,341.39C209.23,348.49 211.51,358.16 213.16,362.89C214.82,367.63 218.45,375.77 221.24,381.00C224.03,386.23 228.49,394.02 231.16,398.33C233.82,402.64 236.00,406.59 236.00,407.11C236.00,407.69 235.20,407.64 234.01,407.01C232.92,406.42 228.38,402.54 223.94,398.38C219.49,394.22 215.64,391.03 215.38,391.28C215.13,391.54 215.69,393.72 216.63,396.13C217.57,398.53 221.04,405.31 224.33,411.19C229.84,421.04 230.68,422.04 234.91,423.84C237.43,424.91 244.68,426.96 251.00,428.39C257.32,429.83 267.00,431.65 272.50,432.45C278.00,433.25 288.57,434.44 296.00,435.09C304.78,435.85 319.80,436.07 339.00,435.70C362.52,435.24 372.45,434.60 388.00,432.55C398.73,431.13 412.45,429.06 418.50,427.93C424.55,426.81 434.90,424.51 441.50,422.82C448.10,421.14 459.57,417.52 467.00,414.78C474.43,412.04 485.37,407.29 491.33,404.21C497.29,401.13 503.00,397.55 504.02,396.25C505.04,394.95 506.65,391.77 507.59,389.19C508.53,386.61 511.90,377.75 515.08,369.50C518.25,361.25 522.92,348.43 525.46,341.01C528.00,333.59 530.57,327.07 531.17,326.51C531.95,325.78 532.08,330.41 531.63,343.00C531.28,352.62 530.71,363.76 530.35,367.75C529.71,375.00 529.71,375.00 533.60,375.00C535.75,375.01 538.99,375.92 540.82,377.03C542.78,378.23 544.89,380.78 545.99,383.28C547.01,385.60 549.41,395.60 551.33,405.50C553.25,415.40 555.29,424.74 555.88,426.25C556.47,427.76 557.63,429.00 558.45,429.00C559.28,429.00 560.61,427.99 561.42,426.75C562.22,425.51 564.27,418.88 565.96,412.00C567.65,405.12 569.73,397.36 570.59,394.75C571.46,392.14 572.57,390.00 573.06,390.00C573.56,390.00 573.69,392.14 573.37,394.75C573.04,397.36 571.70,404.68 570.39,411.00C569.08,417.32 568.01,422.84 568.01,423.25C568.00,423.66 570.64,424.00 573.88,424.00C577.11,424.00 581.16,424.28 582.88,424.62C584.59,424.97 586.00,425.84 586.00,426.57C586.00,427.29 585.50,428.19 584.89,428.57C584.28,428.95 580.71,429.59 576.96,430.00C571.15,430.64 569.09,431.45 563.08,435.45C556.02,440.14 556.02,440.14 553.43,448.82C552.00,453.59 549.30,461.66 547.42,466.74C545.54,471.82 544.00,477.32 544.00,478.97C544.00,481.01 544.75,482.45 546.37,483.51C547.68,484.36 551.02,485.33 553.79,485.66C556.56,485.99 559.94,485.98 561.30,485.64C562.75,485.27 564.39,483.69 565.30,481.76C566.15,479.97 568.00,474.36 569.42,469.30C570.84,464.25 572.00,459.33 572.00,458.38C572.00,457.43 571.28,455.86 570.40,454.89C569.52,453.92 569.10,452.65 569.46,452.06C569.82,451.48 570.65,450.98 571.31,450.97C571.96,450.95 574.03,447.57 575.91,443.47C577.78,439.36 579.66,436.00 580.09,436.00C580.51,436.00 581.91,437.46 583.18,439.25C584.74,441.44 585.47,443.81 585.41,446.50C585.36,448.70 584.33,455.90 583.12,462.50C581.92,469.10 580.66,477.88 580.33,482.02C579.84,488.27 580.02,489.77 581.39,490.91C582.80,492.08 583.32,492.02 584.98,490.52C586.04,489.56 587.83,486.01 588.95,482.63C590.06,479.26 592.14,470.65 593.57,463.50C594.99,456.35 597.07,448.56 598.19,446.20C599.53,443.38 600.78,442.00 601.83,442.21C602.71,442.38 604.46,444.04 605.71,445.90C606.97,447.77 608.00,450.47 608.01,451.90C608.01,453.33 606.38,462.23 604.38,471.69C602.37,481.23 601.02,489.96 601.36,491.32C601.70,492.66 602.77,493.96 603.74,494.20C604.71,494.44 606.62,494.37 608.00,494.05C609.70,493.65 611.19,492.02 612.66,488.98C613.85,486.52 615.84,480.29 617.08,475.14C618.48,469.35 619.37,462.43 619.42,456.99C619.49,448.75 619.31,447.92 616.46,443.86C614.79,441.48 611.91,438.51 610.06,437.26C607.73,435.69 605.24,435.00 601.90,435.00C598.38,435.00 596.84,435.46 596.12,436.74C595.59,437.70 594.83,438.16 594.43,437.77C594.04,437.37 594.21,436.45 594.83,435.71C595.67,434.69 595.34,433.50 593.48,430.76C592.13,428.77 590.12,426.86 589.01,426.50C587.91,426.15 586.75,424.85 586.44,423.61C586.10,422.26 587.85,415.39 590.82,406.43C593.54,398.22 597.89,386.55 600.49,380.51C603.09,374.46 606.74,367.22 608.59,364.42C610.45,361.62 613.13,358.81 614.53,358.17C615.94,357.52 618.47,357.00 620.15,357.00C621.82,357.00 624.78,357.75 626.72,358.67C628.65,359.59 631.11,361.73 632.18,363.42C633.62,365.72 633.99,367.65 633.63,371.00C633.36,373.48 632.00,380.23 630.60,386.00C629.20,391.77 626.01,404.15 623.51,413.50C621.00,422.85 618.87,432.36 618.77,434.63C618.62,437.71 619.22,439.61 621.14,442.13C622.56,443.98 624.74,447.51 625.99,449.98C628.11,454.13 628.23,455.35 627.74,466.74C627.29,477.24 627.45,479.31 628.85,480.88C629.76,481.89 632.61,483.48 635.19,484.42C637.77,485.35 641.37,487.12 643.19,488.35C645.01,489.57 647.07,491.77 647.78,493.23C648.82,495.39 648.77,499.89 647.54,517.69C646.70,529.69 645.57,549.40 645.02,561.50C644.47,573.60 644.01,593.40 644.00,605.50C643.99,622.90 643.68,628.09 642.52,630.32C641.71,631.87 635.07,641.06 627.77,650.73C620.47,660.40 610.87,672.63 606.43,677.91C601.99,683.18 596.35,688.75 593.88,690.27C590.62,692.28 587.05,693.35 580.70,694.20C574.10,695.08 569.91,695.08 563.35,694.21C557.82,693.47 552.41,691.98 548.33,690.07C544.83,688.43 539.38,685.12 536.23,682.72C533.08,680.32 529.96,678.04 529.30,677.65C528.61,677.24 527.66,677.77 527.06,678.89C526.48,679.96 523.31,691.24 520.01,703.95C516.71,716.66 513.16,728.74 512.11,730.79C511.06,732.84 507.72,736.76 504.68,739.51C501.64,742.25 497.54,745.90 495.58,747.61C492.00,750.72 492.00,750.72 492.00,759.36C492.00,768.00 492.00,768.00 457.88,768.00C426.82,768.00 423.87,767.86 425.07,766.41C425.98,765.32 426.48,760.74 426.66,751.66C426.81,744.42 427.19,737.04 427.51,735.25C428.07,732.09 427.99,732.00 424.60,732.00C422.68,732.00 411.12,733.35 398.91,734.99C386.70,736.63 366.67,738.91 354.40,740.05C342.13,741.19 330.38,741.99 328.29,741.81C324.50,741.50 324.50,741.50 323.33,733.78C322.68,729.54 321.87,725.18 321.53,724.09C321.19,723.01 319.91,721.99 318.70,721.81C317.33,721.62 316.38,720.68 316.19,719.32C316.00,717.99 316.59,716.76 317.69,716.19C318.69,715.66 325.56,714.71 332.97,714.06C340.38,713.42 346.62,712.71 346.84,712.50C347.05,712.28 346.90,707.58 346.50,702.05C346.11,696.51 345.38,691.73 344.88,691.43C344.39,691.12 338.25,691.60 331.24,692.48C324.23,693.37 317.75,694.31 316.84,694.59C315.64,694.94 315.03,694.31 314.65,692.29C314.36,690.76 313.88,687.48 313.57,685.00C313.26,682.52 313.34,679.99 313.75,679.38C314.16,678.76 321.02,677.48 329.00,676.53C336.98,675.58 343.84,674.60 344.25,674.34C344.66,674.09 345.00,669.21 345.00,663.50C345.00,657.79 344.60,652.87 344.10,652.56C343.61,652.26 337.42,652.65 330.35,653.44C323.28,654.23 316.55,655.16 315.39,655.52C313.74,656.02 313.14,655.65 312.65,653.83C312.31,652.55 312.02,649.64 312.01,647.37C312.01,645.10 312.59,642.75 313.32,642.15C314.05,641.55 321.18,640.44 329.17,639.68C337.15,638.93 344.21,637.99 344.85,637.60C345.59,637.14 346.00,633.49 346.00,627.42C346.00,618.23 345.92,617.92 343.44,616.79C341.87,616.08 340.66,614.53 340.31,612.80C339.93,610.92 338.96,609.78 337.39,609.38C336.09,609.06 332.17,609.29 328.68,609.89C325.19,610.50 321.75,611.00 321.02,611.00C320.00,611.00 319.86,609.42 320.38,603.86C321.04,596.73 321.04,596.73 309.27,597.44C302.80,597.83 297.05,598.59 296.50,599.13C295.88,599.73 295.37,615.52 295.14,640.95C294.94,664.49 295.31,693.19 296.03,708.65C296.71,723.42 297.32,737.30 297.39,739.50C297.48,742.66 297.15,743.47 295.83,743.38C294.92,743.31 287.09,742.92 278.44,742.51C263.38,741.81 262.73,741.86 263.27,743.64C263.57,744.66 265.16,749.33 266.80,754.00C268.44,758.67 270.06,763.74 270.41,765.25C270.98,767.74 270.78,768.00 268.26,768.00C265.65,768.00 265.28,767.44 262.55,759.40C260.95,754.68 258.78,749.72 257.74,748.39C256.69,747.07 255.48,746.20 255.04,746.48C254.59,746.75 253.93,748.98 253.56,751.43C253.19,753.89 251.53,758.62 249.87,761.95C246.89,767.92 246.79,768.00 242.62,768.00C240.30,768.00 237.93,767.53 237.36,766.96C236.74,766.34 229.62,765.88 219.46,765.81C207.51,765.72 202.49,766.02 202.22,766.84C202.01,767.48 201.42,768.00 200.92,768.00C200.41,768.00 200.00,766.41 200.00,764.47C200.00,761.76 199.49,760.75 197.84,760.14C196.65,759.70 194.62,759.54 193.31,759.79C192.01,760.04 190.28,761.19 189.47,762.34C188.66,763.50 188.00,765.24 188.00,766.22C188.00,767.45 187.23,768.00 185.50,768.00C184.12,768.00 183.00,767.57 183.00,767.04C183.00,766.51 183.93,763.58 185.07,760.54C186.21,757.49 187.56,755.00 188.07,755.00C188.58,755.00 189.00,754.47 189.00,753.83C189.00,753.18 188.34,751.93 187.54,751.04C186.74,750.16 184.08,745.40 181.63,740.46C179.19,735.53 176.44,728.92 175.53,725.76C174.61,722.61 174.19,719.50 174.59,718.85C175.03,718.15 176.64,720.31 178.67,724.34C180.52,728.00 182.38,731.00 182.81,731.00C183.25,731.00 184.63,728.86 185.90,726.25C187.16,723.64 190.29,718.18 192.85,714.12C197.50,706.74 197.50,706.74 198.04,719.62C198.47,729.85 199.02,733.48 200.73,737.24C202.30,740.71 203.30,741.82 204.44,741.38C205.30,741.06 206.00,740.39 206.00,739.90C206.00,739.41 207.91,737.61 210.25,735.91C214.50,732.80 214.50,732.80 224.61,733.46C230.17,733.82 237.37,734.73 240.60,735.48C243.84,736.23 246.63,736.70 246.82,736.52C247.00,736.34 246.46,734.86 245.63,733.24C244.79,731.63 243.63,728.32 243.05,725.90C242.47,723.48 239.96,703.95 237.48,682.50C234.99,661.05 232.11,639.00 231.07,633.50C230.03,628.00 228.70,622.26 228.12,620.75C227.13,618.21 226.63,618.00 221.52,618.00C218.49,618.00 215.66,617.99 215.25,617.97C214.84,617.95 214.18,620.70 213.80,624.07C213.41,627.44 212.85,630.72 212.54,631.35C212.23,631.98 212.19,628.57 212.44,623.78C212.90,615.05 212.90,615.05 208.70,611.66C206.39,609.79 203.48,607.73 202.23,607.09C200.98,606.44 199.52,606.18 198.98,606.51C198.44,606.85 198.00,608.43 198.00,610.04C198.00,611.65 196.86,621.37 195.47,631.64C194.08,641.91 191.80,656.21 190.42,663.41C189.04,670.61 186.52,682.35 184.82,689.50C181.89,701.83 181.52,702.70 177.62,706.32C175.36,708.43 172.26,710.40 170.73,710.70C169.21,711.01 166.84,712.58 165.48,714.21C164.12,715.83 163.00,718.17 163.00,719.42C163.00,720.66 163.89,725.16 164.98,729.42C166.07,733.68 168.54,741.05 170.48,745.80C172.42,750.54 174.00,755.80 173.99,757.47C173.98,759.13 173.70,762.19 173.36,764.25C172.90,767.02 172.25,768.00 170.87,768.00zM379.60,766.83C376.71,767.16 376.71,767.16 377.36,762.41C377.72,759.80 379.07,755.38 380.36,752.58C381.65,749.79 383.68,746.38 384.86,745.00C387.02,742.50 387.02,742.50 386.36,748.00C386.01,751.02 384.99,756.42 384.11,760.00C382.63,765.98 382.27,766.53 379.60,766.83zM442.75,763.17C448.11,762.94 453.44,762.39 454.59,761.96C456.52,761.23 456.73,760.14 457.34,747.42C457.70,739.86 457.78,733.45 457.51,733.18C457.24,732.91 452.47,733.24 446.91,733.91C441.35,734.59 436.23,735.36 435.53,735.63C434.83,735.90 433.97,738.18 433.63,740.70C433.28,743.22 433.00,749.40 433.00,754.44C433.00,763.59 433.00,763.59 442.75,763.17zM362.37,716.65C366.29,716.31 375.80,715.35 383.50,714.52C391.20,713.69 407.18,712.10 419.00,710.99C430.82,709.87 441.77,708.70 443.31,708.39C444.90,708.06 446.51,706.87 447.01,705.66C447.49,704.47 449.98,696.75 452.53,688.50C455.08,680.25 458.47,669.45 460.08,664.50C461.68,659.55 464.56,649.06 466.49,641.19C468.42,633.32 470.00,625.45 470.00,623.69C469.99,620.56 469.80,620.44 460.67,617.25C455.54,615.46 451.08,614.00 450.76,614.00C450.44,614.00 448.38,617.26 446.19,621.25C443.99,625.24 439.56,631.63 436.33,635.46C433.11,639.29 425.08,647.26 418.49,653.18C411.89,659.10 406.16,663.96 405.75,663.97C405.34,663.99 405.00,663.07 405.00,661.93C405.00,660.79 406.55,652.34 408.44,643.15C410.33,633.96 412.31,625.33 412.83,623.97C413.35,622.61 416.96,617.53 420.84,612.68C424.73,607.83 428.20,602.96 428.55,601.86C428.90,600.75 429.02,599.69 428.83,599.50C428.64,599.30 424.69,599.80 420.05,600.61C415.42,601.41 411.09,601.87 410.44,601.61C409.75,601.35 409.46,600.07 409.74,598.58C410.02,597.12 409.77,596.00 409.17,596.00C408.59,596.00 401.90,596.91 394.30,598.02C386.71,599.14 375.46,600.98 369.30,602.13C363.14,603.27 357.33,604.77 356.40,605.45C355.08,606.42 354.41,609.74 353.37,620.59C352.62,628.42 352.01,647.40 351.99,664.00C351.96,680.23 352.22,697.33 352.55,702.00C352.89,706.67 353.64,712.02 354.21,713.89C355.25,717.27 355.25,717.27 362.37,716.65zM279.90,714.81C290.29,715.00 290.29,715.00 289.61,704.34C289.23,698.47 288.69,693.30 288.41,692.85C288.12,692.39 281.87,692.31 274.50,692.66C261.11,693.30 261.11,693.30 260.36,690.40C259.95,688.81 259.58,685.25 259.55,682.50C259.50,677.50 259.50,677.50 274.00,677.50C288.50,677.50 288.50,677.50 288.79,667.11C289.07,656.73 289.07,656.73 274.61,657.44C260.76,658.13 260.11,658.07 259.08,656.15C258.49,655.04 258.00,651.46 258.00,648.21C258.00,642.28 258.00,642.28 273.25,641.55C281.64,641.16 288.60,640.73 288.72,640.61C288.84,640.49 289.24,635.43 289.61,629.35C289.98,623.28 289.98,616.72 289.62,614.77C288.95,611.23 288.95,611.23 281.67,610.55C276.57,610.07 272.46,610.32 267.94,611.36C264.40,612.19 260.74,613.15 259.82,613.51C258.51,614.02 257.90,613.31 257.07,610.33C256.49,608.22 256.01,605.09 256.01,603.36C256.00,601.42 255.39,599.98 254.42,599.61C253.55,599.27 250.74,599.01 248.17,599.02C245.60,599.02 242.91,599.40 242.19,599.86C241.13,600.53 241.10,602.75 242.01,611.60C242.63,617.59 244.02,629.92 245.10,639.00C246.18,648.08 248.85,668.05 251.03,683.39C253.21,698.73 255.48,711.87 256.08,712.60C256.69,713.33 259.87,714.06 263.33,714.26C266.73,714.46 274.18,714.70 279.90,714.81zM466.31,708.00C467.58,708.00 469.34,707.44 470.23,706.75C471.15,706.03 475.24,694.05 479.87,678.49C484.30,663.63 489.06,646.76 490.46,640.99C491.85,635.22 493.00,628.52 493.00,626.10C493.00,621.79 492.96,621.73 491.04,623.46C489.97,624.44 487.94,628.22 486.55,631.87C485.15,635.51 481.73,646.15 478.94,655.50C476.15,664.85 471.65,679.79 468.94,688.70C466.22,697.62 464.00,705.60 464.00,706.45C464.00,707.40 464.89,708.00 466.31,708.00zM577.19,668.97C577.57,668.99 579.89,666.64 582.34,663.75C584.79,660.86 590.33,654.29 594.65,649.14C598.97,643.99 604.30,637.51 606.50,634.74C610.50,629.71 610.50,629.71 611.02,615.61C611.35,606.41 611.77,602.72 612.22,605.00C612.60,606.92 613.19,611.09 613.53,614.25C613.90,617.69 614.62,619.98 615.32,619.96C615.97,619.94 618.04,617.84 619.91,615.29C622.97,611.14 623.40,610.86 624.07,612.66C624.48,613.77 625.11,617.34 625.47,620.59C625.83,623.84 626.36,627.74 626.64,629.25C626.93,630.77 627.82,632.00 628.63,632.00C629.43,632.00 630.86,630.65 631.80,629.01C632.73,627.36 634.01,626.01 634.64,626.01C635.27,626.00 636.14,625.21 636.57,624.25C637.00,623.29 637.55,612.94 637.78,601.25C638.15,582.46 638.02,580.00 636.63,580.00C635.77,580.00 633.59,581.27 631.78,582.83C629.98,584.38 626.48,587.02 624.00,588.69C621.52,590.36 617.48,592.77 615.00,594.04C612.52,595.31 606.67,596.94 602.00,597.65C597.33,598.37 588.55,598.95 582.50,598.94C576.45,598.94 567.95,598.30 563.62,597.53C557.63,596.46 554.82,595.38 551.93,593.06C549.83,591.38 547.81,590.00 547.43,590.00C547.05,590.00 546.95,593.37 547.22,597.48C547.48,601.60 547.49,605.18 547.23,605.43C546.98,605.69 545.76,605.23 544.53,604.43C542.37,603.01 542.15,603.17 538.89,608.46C537.03,611.48 535.14,613.97 534.70,613.98C534.26,613.99 533.24,612.42 532.43,610.48C531.62,608.54 530.68,604.93 530.34,602.45C530.00,599.97 529.28,597.68 528.75,597.35C528.15,596.98 528.01,598.23 528.37,600.62C528.70,602.76 529.41,608.80 529.96,614.06C530.51,619.31 531.88,628.09 533.01,633.56C534.13,639.03 535.78,646.11 536.67,649.29C537.67,652.89 539.21,655.81 540.73,657.00C542.07,658.05 545.58,659.82 548.52,660.92C551.47,662.02 558.09,663.77 563.23,664.80C568.37,665.82 573.46,667.18 574.54,667.80C575.62,668.43 576.81,668.95 577.19,668.97zM273.88,609.00C276.01,609.00 278.28,608.37 278.93,607.59C279.76,606.59 279.78,605.98 279.01,605.51C278.41,605.14 276.14,605.14 273.96,605.51C271.53,605.92 270.00,606.72 270.00,607.59C270.00,608.56 271.20,609.00 273.88,609.00zM241.27,593.00C248.00,593.00 266.55,592.53 282.50,591.96C298.45,591.40 325.00,590.03 341.50,588.94C358.00,587.85 378.25,586.27 386.49,585.43C394.74,584.60 407.79,583.03 415.49,581.94C423.20,580.86 430.41,579.59 431.52,579.11C433.17,578.41 434.14,575.49 436.92,562.88C438.78,554.42 442.28,540.75 444.70,532.50C447.11,524.25 451.29,513.00 453.97,507.50C456.89,501.50 460.88,495.22 463.95,491.81C466.76,488.68 472.25,483.99 476.16,481.39C480.07,478.80 487.03,475.37 491.63,473.79C496.98,471.94 503.08,470.69 508.55,470.30C514.76,469.86 516.80,469.40 516.00,468.60C515.30,467.90 509.87,467.52 501.20,467.54C488.04,467.59 487.07,467.74 476.51,471.35C470.47,473.41 461.05,477.44 455.59,480.30C448.28,484.12 443.75,487.36 438.50,492.52C434.49,496.46 429.76,502.39 427.74,506.02C425.75,509.59 421.43,519.34 418.14,527.70C414.85,536.07 411.66,543.72 411.06,544.70C410.17,546.17 410.09,545.95 410.59,543.50C410.93,541.85 411.87,537.80 412.69,534.50C413.50,531.20 415.96,523.89 418.15,518.26C420.39,512.53 424.08,505.40 426.55,502.04C428.98,498.74 434.14,492.71 438.01,488.62C441.89,484.54 447.53,479.50 450.53,477.43C453.54,475.36 456.00,473.48 456.00,473.24C456.00,473.00 453.64,473.12 450.75,473.50C447.86,473.87 441.23,475.09 436.00,476.19C430.77,477.30 420.65,480.01 413.50,482.21C406.35,484.41 391.05,488.63 379.50,491.59C367.95,494.55 356.02,497.66 353.00,498.50C349.98,499.34 343.68,500.47 339.00,501.00C334.32,501.54 322.29,501.99 312.25,501.99C301.69,502.00 294.00,502.39 294.00,502.93C294.00,503.44 294.77,504.63 295.71,505.57C296.65,506.51 298.79,507.85 300.46,508.54C302.13,509.24 306.09,510.13 309.26,510.52C312.43,510.91 315.26,511.61 315.54,512.07C315.82,512.52 314.36,513.23 312.28,513.64C310.20,514.05 303.38,514.41 297.12,514.44C286.09,514.50 285.68,514.42 283.84,511.98C282.80,510.59 281.69,507.86 281.37,505.92C280.91,503.03 281.31,501.79 283.57,499.10C285.09,497.29 289.89,493.32 294.22,490.29C298.55,487.25 301.92,484.59 301.70,484.37C301.49,484.15 297.42,485.10 292.67,486.48C287.92,487.85 279.64,490.81 274.27,493.04C268.90,495.27 261.57,498.70 258.00,500.66C254.43,502.61 248.47,506.22 244.76,508.68C238.46,512.85 237.72,513.74 233.49,522.32C230.94,527.47 228.27,534.79 227.39,539.00C226.28,544.38 225.83,552.38 225.82,567.27C225.80,584.77 226.06,588.44 227.42,590.52C229.00,592.94 229.36,593.00 241.27,593.00zM533.02,589.00C533.59,589.00 534.47,587.89 534.99,586.54C535.66,584.77 535.35,581.91 533.91,576.41C532.81,572.20 531.03,561.05 529.95,551.63C528.87,542.21 527.31,529.10 526.48,522.50C525.64,515.90 523.99,505.18 522.79,498.68C521.60,492.19 520.09,486.13 519.43,485.24C518.37,483.78 517.39,483.74 510.42,484.82C506.12,485.49 500.21,487.13 497.28,488.47C494.36,489.81 489.49,493.38 486.46,496.41C483.22,499.65 479.74,504.48 478.01,508.14C476.39,511.57 474.54,516.87 473.91,519.94C473.27,523.00 472.97,529.33 473.24,534.00C473.56,539.68 474.46,544.22 475.95,547.68C477.18,550.53 479.11,553.68 480.23,554.68C482.28,556.50 482.28,556.50 481.63,547.00C481.22,541.04 481.37,536.94 482.01,536.00C482.90,534.70 483.25,534.77 484.62,536.50C485.49,537.60 487.09,540.52 488.19,543.00C489.28,545.48 491.67,551.58 493.48,556.57C495.30,561.56 497.95,567.94 499.38,570.76C500.80,573.57 503.50,577.04 505.36,578.46C507.22,579.88 511.39,581.89 514.63,582.92C517.86,583.94 523.09,585.32 526.25,585.96C529.41,586.61 532.00,587.56 532.00,588.07C532.00,588.58 532.46,589.00 533.02,589.00zM546.39,581.00C546.88,581.00 546.97,578.45 546.59,575.25C546.21,572.09 545.01,561.85 543.93,552.50C542.85,543.15 541.05,529.88 539.93,523.00C538.81,516.12 537.22,507.57 536.41,504.00C535.59,500.43 533.98,494.93 532.84,491.79C531.65,488.53 531.02,485.06 531.36,483.70C531.69,482.39 533.85,478.94 536.16,476.04C539.37,472.01 541.61,467.23 545.70,455.71C548.64,447.42 550.69,440.29 550.26,439.86C549.82,439.42 547.00,439.68 543.98,440.43C540.97,441.18 537.26,442.07 535.75,442.42C533.57,442.91 533.00,443.61 533.00,445.77C533.00,447.27 533.72,452.45 534.61,457.27C535.91,464.38 535.98,466.33 534.95,467.56C534.25,468.41 532.51,469.92 531.09,470.94C528.49,472.78 528.49,472.78 528.81,465.14C529.02,459.79 528.06,451.24 525.59,436.58C523.64,425.07 521.62,415.22 521.10,414.70C520.49,414.09 517.84,415.28 513.82,417.98C510.34,420.31 502.10,424.83 495.50,428.02C488.90,431.22 479.33,435.22 474.23,436.90C469.13,438.59 460.36,441.12 454.73,442.51C449.10,443.90 443.48,445.48 442.24,446.01C440.22,446.86 440.04,447.44 440.61,451.24C440.97,453.58 441.54,455.82 441.89,456.22C442.24,456.61 444.77,457.15 447.52,457.42C450.26,457.69 461.27,458.18 472.00,458.51C482.73,458.84 496.55,459.51 502.71,460.00C508.88,460.49 514.95,461.44 516.21,462.11C517.47,462.78 520.18,464.71 522.23,466.41C524.28,468.11 525.97,470.25 525.98,471.17C525.99,472.08 526.46,472.99 527.02,473.17C527.65,473.38 527.42,475.07 526.41,477.63C524.88,481.53 524.93,482.63 527.38,498.62C528.81,507.91 531.36,526.52 533.05,540.00C534.75,553.48 536.55,566.13 537.07,568.11C537.58,570.10 539.69,573.81 541.75,576.36C543.81,578.91 545.90,580.99 546.39,581.00zM588.16,571.67C601.81,571.46 601.81,571.46 610.31,567.15C614.98,564.79 622.25,560.56 626.45,557.77C630.66,554.98 634.74,551.46 635.53,549.95C636.34,548.37 637.24,542.43 637.63,536.10C638.16,527.31 638.03,525.00 637.00,525.00C636.29,525.00 632.73,526.70 629.10,528.78C625.47,530.86 619.66,533.79 616.18,535.28C612.71,536.78 609.45,538.00 608.93,538.00C608.42,538.00 608.00,535.11 608.00,531.58C608.00,528.05 608.26,524.48 608.58,523.65C608.90,522.81 613.29,519.74 618.33,516.82C623.37,513.89 629.52,509.43 632.00,506.89C634.48,504.36 637.35,500.67 638.38,498.70C639.41,496.72 639.99,494.41 639.66,493.55C639.30,492.61 637.85,492.00 635.99,492.00C633.59,492.00 631.76,493.18 627.66,497.38C624.77,500.34 620.15,503.91 617.38,505.31C614.62,506.71 609.69,508.54 606.43,509.39C603.17,510.23 596.90,511.21 592.50,511.57C588.10,511.93 579.70,511.73 573.83,511.14C567.51,510.49 560.06,508.98 555.53,507.41C551.33,505.96 547.68,504.99 547.42,505.25C547.16,505.51 547.42,506.98 548.00,508.51C548.59,510.04 549.74,518.54 550.56,527.40C551.38,536.25 552.70,548.64 553.49,554.92C554.35,561.66 555.46,566.68 556.22,567.17C556.92,567.63 559.30,568.50 561.50,569.11C563.70,569.72 567.52,570.60 570.00,571.05C572.48,571.50 580.65,571.78 588.16,571.67zM378.75,570.50C376.41,570.76 372.33,570.36 369.67,569.62C367.01,568.87 363.66,567.39 362.23,566.32C360.79,565.25 358.26,562.70 356.60,560.65C354.13,557.59 353.52,555.80 353.19,550.60C352.88,545.80 353.26,543.19 354.78,539.77C355.88,537.28 358.44,533.41 360.48,531.16C362.51,528.90 366.63,525.86 369.63,524.39C374.30,522.11 375.93,521.81 381.11,522.28C385.45,522.67 388.25,523.60 391.13,525.59C393.33,527.11 396.28,530.32 397.68,532.72C399.41,535.67 400.40,539.13 400.74,543.40C401.05,547.18 400.75,551.24 399.99,553.52C399.30,555.62 396.90,559.32 394.66,561.75C392.42,564.18 388.88,567.04 386.80,568.10C384.71,569.17 381.09,570.25 378.75,570.50zM251.60,565.88C249.35,565.82 246.60,565.55 245.50,565.28C244.40,565.01 242.05,563.71 240.28,562.37C238.30,560.88 236.59,558.38 235.85,555.88C234.92,552.80 234.89,550.26 235.72,545.42C236.32,541.91 237.80,537.44 239.00,535.49C240.21,533.55 242.61,531.21 244.35,530.29C246.08,529.38 249.83,528.61 252.67,528.57C256.78,528.51 258.35,528.98 260.36,530.87C261.74,532.17 264.09,535.56 265.58,538.40C267.85,542.73 268.18,544.30 267.60,548.04C267.23,550.49 265.89,554.52 264.63,557.00C263.38,559.48 260.86,562.51 259.03,563.75C256.80,565.26 254.35,565.96 251.60,565.88zM284.75,563.99C274.00,564.00 274.00,564.00 274.01,558.25C274.02,555.09 274.29,551.52 274.61,550.33C274.93,549.14 276.52,547.61 278.15,546.94C280.10,546.13 283.58,545.92 288.40,546.33C293.69,546.78 296.18,546.59 297.50,545.63C298.49,544.90 298.99,543.79 298.59,543.15C298.20,542.52 295.96,542.00 293.61,542.00C291.26,542.00 286.77,542.52 283.63,543.14C279.40,543.99 277.29,544.00 275.47,543.17C274.09,542.54 273.00,541.19 273.00,540.13C273.00,539.08 273.79,537.88 274.75,537.47C275.71,537.06 282.91,536.51 290.75,536.24C302.42,535.84 305.00,536.00 304.98,537.12C304.96,537.88 303.90,543.67 302.62,550.00C300.61,559.90 299.95,561.67 297.89,562.74C296.44,563.49 291.29,563.98 284.75,563.99zM370.35,561.96C372.47,561.98 375.72,561.28 377.57,560.40C380.03,559.23 381.75,557.18 383.91,552.87C385.54,549.61 387.39,544.44 388.02,541.39C388.91,537.10 388.90,535.17 387.95,532.88C387.28,531.25 385.79,529.26 384.64,528.46C383.47,527.64 380.30,527.00 377.42,527.00C373.13,527.00 371.60,527.54 368.18,530.25C365.92,532.04 362.92,535.06 361.52,536.97C360.11,538.88 358.50,542.13 357.95,544.19C357.40,546.24 357.24,549.18 357.61,550.71C357.98,552.25 358.90,554.73 359.65,556.22C360.41,557.72 362.26,559.62 363.76,560.43C365.27,561.25 368.23,561.94 370.35,561.96zM206.63,558.90C212.04,558.97 215.09,558.58 215.76,557.75C216.31,557.06 217.52,552.67 218.46,548.00C219.39,543.33 221.30,536.58 222.72,533.00C224.13,529.42 226.58,523.90 228.17,520.73C230.67,515.71 230.84,514.88 229.45,514.34C228.57,514.01 224.96,514.21 221.42,514.80C217.88,515.38 212.56,516.97 209.59,518.33C206.63,519.69 202.38,522.62 200.16,524.84C197.93,527.07 195.34,530.38 194.40,532.20C193.46,534.01 192.09,537.75 191.36,540.50C190.62,543.25 190.02,547.84 190.01,550.69C190.01,553.57 190.52,556.20 191.16,556.60C191.80,557.00 193.71,557.65 195.41,558.06C197.11,558.46 202.16,558.84 206.63,558.90zM249.25,558.92C250.76,558.96 252.88,558.12 253.95,557.05C255.02,555.98 256.65,553.65 257.57,551.87C258.48,550.10 259.26,546.59 259.30,544.07C259.33,541.56 258.80,538.47 258.12,537.20C257.44,535.94 255.72,534.46 254.30,533.92C252.57,533.27 250.65,533.29 248.50,534.00C246.74,534.58 244.38,536.06 243.27,537.28C242.15,538.50 240.99,540.85 240.68,542.50C240.37,544.15 239.82,546.74 239.44,548.26C239.06,549.79 239.30,552.32 239.98,553.96C240.65,555.58 242.39,557.34 243.85,557.87C245.31,558.41 247.74,558.88 249.25,558.92zM289.50,557.32C292.80,557.03 295.90,556.42 296.38,555.97C296.87,555.51 297.01,554.47 296.70,553.65C296.27,552.54 295.06,552.30 291.81,552.70C289.44,553.00 285.96,553.53 284.07,553.90C282.19,554.26 280.48,555.07 280.27,555.70C280.06,556.32 280.70,557.06 281.69,557.33C282.69,557.61 286.20,557.60 289.50,557.32zM248.47,557.00C247.80,557.00 246.79,556.44 246.23,555.75C245.67,555.06 244.71,552.70 244.11,550.50C243.51,548.30 243.02,546.05 243.03,545.50C243.04,544.95 243.87,543.43 244.87,542.13C246.62,539.84 246.79,539.82 249.25,541.43C250.65,542.35 252.33,544.39 252.99,545.98C253.65,547.56 253.86,549.90 253.47,551.18C253.08,552.45 252.07,554.29 251.23,555.25C250.38,556.21 249.14,557.00 248.47,557.00zM372.13,552.98C370.69,552.98 368.90,552.59 368.17,552.12C367.19,551.51 367.02,550.03 367.53,546.64C368.11,542.75 367.97,542.00 366.61,542.00C365.73,542.00 365.00,541.58 365.00,541.06C365.00,540.54 365.49,539.82 366.09,539.45C366.69,539.08 367.68,539.28 368.29,539.89C368.90,540.50 370.44,541.00 371.70,541.00C373.30,541.00 374.00,540.42 374.00,539.08C374.00,537.90 372.94,536.78 371.25,536.16C368.50,535.16 368.50,535.16 371.03,535.08C372.42,535.04 374.56,535.70 375.78,536.56C377.07,537.46 378.00,539.16 378.00,540.62C378.00,542.00 377.27,545.35 376.38,548.06C374.99,552.33 374.41,553.00 372.13,552.98zM397.18,540.22C397.99,539.41 397.95,538.30 397.04,536.09C396.35,534.43 395.15,532.54 394.37,531.89C393.59,531.24 392.73,530.94 392.45,531.22C392.18,531.49 392.88,533.88 394.01,536.52C395.52,540.04 396.37,541.03 397.18,540.22zM577.00,523.71C575.08,523.82 571.45,523.35 568.94,522.66C566.43,521.97 562.92,520.36 561.13,519.09C559.35,517.82 558.08,516.59 558.32,516.35C558.55,516.11 561.84,516.58 565.62,517.39C569.41,518.20 574.30,519.50 576.50,520.28C578.70,521.06 580.50,522.11 580.50,522.60C580.50,523.10 578.92,523.59 577.00,523.71zM351.42,488.98C353.11,488.97 359.31,488.32 365.19,487.54C371.07,486.76 381.35,484.73 388.04,483.03C394.73,481.33 401.48,479.28 403.04,478.48C404.60,477.67 406.13,476.59 406.45,476.08C406.77,475.56 406.20,474.88 405.19,474.56C404.18,474.24 391.25,474.67 376.45,475.51C361.66,476.36 349.26,477.37 348.90,477.77C348.54,478.17 348.02,480.62 347.75,483.21C347.48,485.80 347.50,488.16 347.79,488.46C348.09,488.76 349.72,488.99 351.42,488.98zM369.32,470.00C373.27,470.00 380.55,469.51 385.50,468.93C390.45,468.34 396.18,467.43 398.24,466.90C400.86,466.22 402.12,465.27 402.46,463.71C402.73,462.50 403.01,460.82 403.09,460.00C403.17,459.18 403.18,457.71 403.12,456.75C403.03,455.46 402.13,455.00 399.67,455.00C397.84,455.00 391.66,455.63 385.92,456.41C380.19,457.19 372.06,458.12 367.85,458.49C361.12,459.07 360.12,459.42 359.61,461.33C359.29,462.52 359.02,464.26 359.01,465.18C359.01,466.10 359.71,467.56 360.57,468.43C361.71,469.57 364.13,470.00 369.32,470.00zM536.74,435.41C538.81,435.04 542.08,434.22 544.00,433.59C547.50,432.44 547.50,432.44 547.24,426.47C547.09,423.19 546.75,419.88 546.47,419.11C546.07,418.03 544.54,417.87 539.49,418.39C535.94,418.75 532.29,419.33 531.39,419.68C530.05,420.19 529.87,421.25 530.38,425.59C530.72,428.50 531.45,432.05 531.99,433.49C532.90,435.85 533.33,436.03 536.74,435.41zM606.98,430.00C608.21,430.00 609.35,428.28 610.80,424.25C611.93,421.09 613.00,417.65 613.18,416.60C613.44,415.03 612.20,414.29 606.00,412.37C601.88,411.09 597.95,410.03 597.29,410.02C596.62,410.01 595.58,411.83 594.98,414.07C594.38,416.31 594.02,419.55 594.19,421.28C594.45,423.93 595.31,424.83 599.86,427.20C602.81,428.74 606.02,430.00 606.98,430.00zM533.36,413.72C536.19,413.43 539.71,412.64 541.19,411.96C542.68,411.28 544.08,410.23 544.32,409.61C544.55,409.00 543.90,404.23 542.87,399.00C541.83,393.77 540.47,388.15 539.84,386.50C539.21,384.85 538.00,382.94 537.15,382.25C536.31,381.56 534.61,381.00 533.39,381.00C532.16,381.00 529.71,382.22 527.94,383.70C524.73,386.40 524.73,386.40 525.30,394.95C525.62,399.65 526.40,405.92 527.05,408.88C528.22,414.26 528.22,414.26 533.36,413.72zM389.77,407.97C387.38,409.85 386.78,410.03 387.31,408.72C387.69,407.78 388.30,406.25 388.67,405.34C389.24,403.91 388.86,403.79 385.92,404.42C384.04,404.82 379.12,405.78 375.00,406.54C370.88,407.31 363.20,407.95 357.95,407.97C349.67,408.00 347.71,407.66 343.27,405.45C340.45,404.04 334.04,399.03 329.02,394.30C323.93,389.51 320.27,385.33 320.75,384.85C321.23,384.37 327.44,384.50 334.80,385.13C344.86,386.00 350.54,385.99 358.75,385.08C366.05,384.27 373.35,382.61 381.50,379.91C388.12,377.72 397.87,373.49 403.24,370.49C408.82,367.37 413.63,365.31 414.52,365.64C415.56,366.05 415.85,366.93 415.41,368.37C415.06,369.54 412.53,374.89 409.79,380.25C407.05,385.61 402.14,393.48 398.87,397.75C395.61,402.01 391.51,406.61 389.77,407.97zM611.63,406.90C612.25,406.95 613.30,406.34 613.97,405.54C614.63,404.74 615.41,402.34 615.70,400.22C616.22,396.36 616.22,396.36 610.48,394.16C606.14,392.51 604.41,392.24 603.39,393.09C602.64,393.71 601.58,395.86 601.02,397.86C600.47,399.86 600.01,401.82 600.01,402.21C600.00,402.61 601.01,403.47 602.25,404.14C603.49,404.80 605.85,405.67 607.50,406.07C609.15,406.47 611.01,406.84 611.63,406.90zM364.00,400.70C372.34,400.45 375.59,399.91 379.77,398.06C382.67,396.78 386.16,394.41 387.52,392.79C388.89,391.17 390.00,389.21 390.00,388.42C390.00,387.53 388.96,387.00 387.20,387.00C385.66,387.00 380.38,387.87 375.45,388.92C370.53,389.98 362.00,391.36 356.50,391.98C351.00,392.60 345.41,393.34 344.09,393.62C341.68,394.12 341.68,394.12 343.68,396.12C344.78,397.22 347.44,398.78 349.59,399.57C352.34,400.59 356.62,400.93 364.00,400.70zM617.13,390.96C617.47,390.98 618.29,390.35 618.95,389.56C619.61,388.77 621.46,383.99 623.07,378.94C624.68,373.89 626.00,368.93 626.00,367.91C626.00,366.90 625.08,365.58 623.95,364.98C622.83,364.37 620.47,364.02 618.70,364.19C615.74,364.48 615.13,365.23 610.72,374.00C608.09,379.23 606.07,384.40 606.22,385.50C606.42,386.91 607.98,388.00 611.50,389.21C614.25,390.14 616.78,390.93 617.13,390.96zM534.85,366.45C534.36,366.99 534.00,365.92 534.00,363.95C534.00,362.05 534.91,352.62 536.03,343.00C537.15,333.37 538.71,317.15 539.50,306.94C540.28,296.73 541.22,280.53 541.57,270.94C542.07,257.58 541.82,249.87 540.50,238.00C539.56,229.47 538.48,219.43 538.10,215.68C537.72,211.93 537.73,208.66 538.13,208.42C538.52,208.18 539.75,210.40 540.86,213.37C541.97,216.33 543.79,223.48 544.91,229.25C546.02,235.03 547.22,243.30 547.57,247.63C547.92,251.96 547.47,269.00 546.57,285.50C545.67,302.00 544.48,320.45 543.93,326.50C543.38,332.55 542.03,341.91 540.93,347.31C539.84,352.70 538.21,359.00 537.32,361.31C536.43,363.61 535.32,365.93 534.85,366.45zM367.28,361.10C365.74,361.66 364.59,361.44 363.53,360.39C362.69,359.55 362.00,358.49 362.00,358.04C362.00,357.59 362.86,356.16 363.90,354.87C365.79,352.54 365.83,352.53 367.95,354.45C369.13,355.52 369.96,357.27 369.79,358.34C369.63,359.41 368.50,360.65 367.28,361.10zM350.58,361.00C349.99,360.99 348.04,360.10 346.25,359.01C344.46,357.92 342.95,356.24 342.88,355.26C342.82,354.29 342.86,352.83 342.98,352.02C343.10,351.20 344.75,347.26 346.64,343.27C348.54,339.27 350.47,336.00 350.93,336.00C351.39,336.00 352.03,337.00 352.35,338.22C352.67,339.44 352.18,343.25 351.26,346.69C349.72,352.48 349.72,353.19 351.23,356.37C352.13,358.25 352.60,360.07 352.27,360.40C351.94,360.73 351.18,361.00 350.58,361.00zM472.04,348.92C467.89,348.88 462.63,348.18 460.34,347.37C458.05,346.55 455.92,345.24 455.62,344.45C455.17,343.27 456.40,343.00 462.28,342.98C466.25,342.98 472.04,342.37 475.15,341.64C478.25,340.91 482.78,339.14 485.22,337.72C487.65,336.29 491.07,333.66 492.83,331.86C494.58,330.07 497.14,326.35 498.51,323.60C499.89,320.83 500.62,318.22 500.15,317.75C499.67,317.27 498.19,317.17 496.84,317.50C495.49,317.84 491.31,320.57 487.56,323.56C483.66,326.67 479.73,329.00 478.38,329.00C477.09,329.00 474.67,327.76 473.00,326.25C471.33,324.74 468.49,321.25 466.70,318.50C463.44,313.50 463.44,313.50 454.07,313.50C444.70,313.50 444.70,313.50 442.84,308.00C441.82,304.98 440.73,301.82 440.43,301.00C439.97,299.78 439.65,299.87 438.73,301.50C438.07,302.65 437.63,307.44 437.70,312.76C437.80,320.89 438.19,322.82 440.94,328.68C443.11,333.32 443.74,335.66 443.01,336.39C442.28,337.12 441.13,336.95 439.23,335.84C437.73,334.96 434.41,331.52 431.85,328.19C429.29,324.87 426.23,319.56 425.04,316.39C423.86,313.22 422.63,307.84 422.31,304.43C421.86,299.64 422.24,296.57 423.97,290.88C425.20,286.83 427.10,281.72 428.21,279.51C429.31,277.31 432.68,272.25 435.70,268.27C438.72,264.29 443.28,259.51 445.84,257.64C448.40,255.78 452.36,253.31 454.64,252.16C456.91,251.01 461.75,249.60 465.39,249.02C470.04,248.27 474.00,248.28 478.75,249.02C482.46,249.61 488.32,251.40 491.78,253.00C495.52,254.74 500.03,257.95 502.96,260.96C505.67,263.74 509.28,268.86 510.99,272.34C512.71,275.81 514.74,282.23 515.52,286.58C516.30,290.94 516.95,297.11 516.97,300.29C516.98,303.48 516.29,309.55 515.43,313.79C514.57,318.03 512.80,323.84 511.51,326.70C510.22,329.55 507.17,333.88 504.75,336.31C502.32,338.74 498.34,341.89 495.92,343.31C493.49,344.73 488.82,346.59 485.54,347.45C482.26,348.30 476.19,348.96 472.04,348.92zM264.50,330.89C266.15,330.95 268.90,330.14 270.60,329.10C272.31,328.06 274.70,325.60 275.91,323.64C277.12,321.68 278.36,318.55 278.67,316.67C278.97,314.79 278.50,310.79 277.61,307.74C276.49,303.86 274.95,301.29 272.48,299.12C270.55,297.42 267.85,295.75 266.48,295.41C265.12,295.06 262.88,295.06 261.52,295.41C260.15,295.75 257.50,297.38 255.63,299.02C253.76,300.67 251.50,303.54 250.61,305.41C249.72,307.27 249.01,311.21 249.02,314.15C249.03,317.20 249.85,321.27 250.92,323.63C251.95,325.90 253.36,328.11 254.06,328.54C254.76,328.97 256.71,329.65 258.41,330.06C260.11,330.46 262.85,330.84 264.50,330.89zM588.90,313.00C589.36,313.00 590.86,312.11 592.25,311.02C593.63,309.93 595.52,307.15 596.44,304.85C597.37,302.54 598.32,296.80 598.57,292.08C598.99,284.01 598.93,283.68 597.55,286.50C596.75,288.15 596.07,290.88 596.05,292.56C596.02,294.24 595.36,296.49 594.57,297.56C593.20,299.42 593.11,299.42 592.43,297.67C592.04,296.66 591.99,292.61 592.32,288.67C592.65,284.73 594.13,277.88 595.61,273.44C597.61,267.40 598.11,264.42 597.59,261.63C597.20,259.57 596.01,257.01 594.94,255.94C593.87,254.87 592.57,254.00 592.04,254.00C591.51,254.00 590.21,254.93 589.15,256.07C588.09,257.20 586.48,260.81 585.56,264.07C584.36,268.34 583.90,273.86 583.93,283.68C583.96,291.20 584.47,300.07 585.07,303.40C585.68,306.73 586.60,310.25 587.12,311.22C587.64,312.20 588.44,313.00 588.90,313.00zM461.58,309.78C466.46,309.46 470.34,308.54 473.59,306.91C476.23,305.58 479.32,303.23 480.45,301.67C482.03,299.49 482.50,297.32 482.49,292.17C482.49,286.58 481.99,284.63 479.42,280.08C477.51,276.70 475.06,273.97 472.94,272.83C471.07,271.82 467.91,271.00 465.92,271.00C463.94,271.00 460.40,272.01 458.06,273.25C455.71,274.49 452.42,277.41 450.73,279.74C448.45,282.88 447.55,285.39 447.21,289.50C446.96,292.54 447.33,297.10 448.04,299.63C448.75,302.16 450.46,305.58 451.85,307.24C454.31,310.16 454.56,310.23 461.58,309.78zM573.23,303.34C575.03,302.99 576.58,302.66 576.68,302.60C576.77,302.53 577.32,294.14 577.90,283.94C578.65,270.56 579.50,263.61 580.95,258.95C582.06,255.40 584.32,250.47 585.98,248.00C587.64,245.53 588.99,243.16 589.00,242.75C589.00,242.34 587.04,242.00 584.63,242.00C581.72,242.00 579.39,242.70 577.61,244.09C576.14,245.25 574.03,247.98 572.91,250.18C571.79,252.37 569.97,257.61 568.86,261.83C567.47,267.11 566.67,274.22 566.28,284.61C565.75,299.06 565.82,299.82 567.84,301.84C569.49,303.49 570.69,303.82 573.23,303.34zM412.25,283.40C411.42,283.76 411.00,283.00 411.00,281.12C411.00,279.57 411.50,276.77 412.10,274.90C412.71,273.03 415.00,266.63 417.20,260.69C419.40,254.74 420.95,249.61 420.63,249.30C420.31,248.98 418.28,250.32 416.11,252.28C413.95,254.23 411.22,256.35 410.06,256.97C408.08,258.03 407.98,257.91 408.60,255.30C408.96,253.76 410.42,250.25 411.85,247.50C413.27,244.75 417.83,239.12 421.97,234.99C426.11,230.87 432.72,225.55 436.65,223.19C440.59,220.82 447.01,217.54 450.92,215.90C454.83,214.25 461.51,211.99 465.77,210.86C471.23,209.41 477.98,208.64 488.74,208.27C503.97,207.73 503.97,207.73 503.33,205.12C502.98,203.68 500.50,197.12 497.83,190.53C495.16,183.95 491.16,175.38 488.93,171.49C486.70,167.59 482.88,161.74 480.45,158.49C478.02,155.24 474.16,151.09 471.87,149.29C469.59,147.48 467.28,146.00 466.75,146.00C466.22,146.00 466.03,147.01 466.32,148.25C466.62,149.49 467.17,152.19 467.54,154.25C468.05,157.03 467.88,158.00 466.90,158.00C466.18,158.00 463.00,155.19 459.84,151.75C454.09,145.50 454.09,145.50 454.05,148.82C454.01,151.67 453.69,152.09 451.76,151.82C450.30,151.61 447.72,148.92 444.26,144.00C441.36,139.88 438.49,135.64 437.87,134.59C436.81,132.76 437.08,132.71 444.63,133.31C448.96,133.65 456.10,134.84 460.50,135.96C464.90,137.07 472.26,139.84 476.86,142.10C482.83,145.03 487.16,148.11 491.98,152.85C495.69,156.51 500.98,162.95 503.73,167.17C506.48,171.39 510.75,179.94 513.23,186.17C515.71,192.40 518.94,202.12 520.42,207.76C521.89,213.41 524.00,223.98 525.10,231.26C526.20,238.54 527.36,251.70 527.67,260.50C528.00,269.90 527.83,277.94 527.24,280.00C526.60,282.29 526.06,282.98 525.68,282.00C525.36,281.18 524.58,278.48 523.96,276.00C523.14,272.80 521.46,270.20 518.15,267.00C515.58,264.52 509.55,259.44 504.74,255.69C499.93,251.95 493.60,247.79 490.67,246.45C487.75,245.11 482.97,243.56 480.05,243.01C476.45,242.33 472.62,242.34 468.12,243.04C464.48,243.62 458.72,245.38 455.32,246.96C451.92,248.54 446.30,251.74 442.82,254.09C439.35,256.43 434.25,260.28 431.50,262.64C428.75,265.01 423.57,270.52 420.00,274.90C416.43,279.27 412.94,283.10 412.25,283.40zM454.81,180.72C454.57,183.59 454.33,184.02 453.80,182.50C453.42,181.40 452.59,177.73 451.94,174.34C451.30,170.95 450.99,167.57 451.25,166.84C451.52,166.10 452.50,168.07 453.43,171.22C454.36,174.37 454.98,178.64 454.81,180.72zM284.68,162.98C284.23,162.99 284.10,162.21 284.39,161.25C284.67,160.29 285.20,158.15 285.57,156.50C285.94,154.85 287.29,151.65 288.58,149.39C289.86,147.13 292.06,144.53 293.46,143.62C295.76,142.11 296.00,142.11 296.00,143.55C296.00,144.43 293.64,149.15 290.75,154.05C287.86,158.95 285.13,162.96 284.68,162.98zM291.04,87.00C291.64,87.00 294.36,86.27 297.09,85.37C299.83,84.48 302.44,83.02 302.89,82.12C303.35,81.23 303.98,78.82 304.30,76.76C304.70,74.14 304.42,72.56 303.36,71.51C302.54,70.68 300.35,70.00 298.51,70.00C296.37,70.00 294.05,70.93 292.11,72.56C290.26,74.12 288.81,76.49 288.41,78.64C288.04,80.59 288.24,83.23 288.85,84.58C289.46,85.91 290.44,87.00 291.04,87.00zM455.25,83.88C456.21,83.94 456.99,83.44 456.97,82.75C456.95,82.06 456.33,80.70 455.59,79.73C454.51,78.30 453.74,78.15 451.62,78.95C450.18,79.50 449.00,80.30 449.00,80.74C449.00,81.17 450.01,82.03 451.25,82.64C452.49,83.25 454.29,83.81 455.25,83.88zM455.93,69.38C459.54,69.02 463.02,68.32 463.65,67.82C464.29,67.33 465.08,65.82 465.42,64.47C465.76,63.12 465.37,60.44 464.57,58.51C463.76,56.58 461.98,54.49 460.60,53.86C458.68,52.99 457.37,53.02 455.01,54.00C453.32,54.70 451.05,56.40 449.97,57.77C448.72,59.35 448.00,61.81 448.00,64.47C448.00,66.78 448.30,68.97 448.68,69.34C449.05,69.72 452.31,69.73 455.93,69.38z"/>
</svg>