<?xml version="1.0" encoding="UTF-8" standalone="no"?>
<svg 
  version="1.1" 
  xmlns="http://www.w3.org/2000/svg" 
  xmlns:xlink="http://www.w3.org/1999/xlink" 
  xmlns:svg="http://www.w3.org/2000/svg"
  xmlns:rdf="http://www.w3.org/1999/02/22-rdf-syntax-ns#"
  xmlns:cc="http://creativecommons.org/ns#"
  xmlns:dc="http://purl.org/dc/elements/1.1/"
  viewBox="0 0 768 768"
  width="768"
  height="768"
>
<style>svg {background-color: white; }</style>"
<metadata id="metadata1">
Created by https://svgstud.io and licensed under CC-BY-SA 4.0 license. Please attribute https://svgstud.io
</metadata>
<metadata id="prompt">
logo!!, monochrome, robot saying hi, plain background
</metadata>
<metadata id="version">
7
</metadata>
<metadata id="metadata2">
<rdf:RDF>
<cc:Work
    rdf:about="">
    <cc:license
    rdf:resource="http://creativecommons.org/licenses/by-sa/4.0/" />
    <dc:creator>
        <cc:Agent>
            <dc:title>https://svgstud.io</dc:title>
        </cc:Agent>
    </dc:creator>
</cc:Work>
<cc:License
    rdf:about="http://creativecommons.org/licenses/by-sa/4.0/">
    <cc:permits
    rdf:resource="http://creativecommons.org/ns#Reproduction" />
    <cc:permits
    rdf:resource="http://creativecommons.org/ns#Distribution" />
    <cc:requires
    rdf:resource="http://creativecommons.org/ns#Notice" />
    <cc:requires
    rdf:resource="http://creativecommons.org/ns#Attribution" />
    <cc:permits
    rdf:resource="http://creativecommons.org/ns#DerivativeWorks" />
    <cc:requires
    rdf:resource="http://creativecommons.org/ns#ShareAlike" />
</cc:License>
</rdf:RDF>
</metadata>
<metadata id="uid">
6ccf5d02855564b2668133d1333950be27fe18d6ae849e24ef76b58402d90439
</metadata>
<path stroke="none" fill="black" fill-rule="evenodd" d="M346.00,688.82C340.23,688.76 327.62,688.14 318.00,687.43C308.38,686.72 294.10,685.68 286.29,685.12C277.17,684.46 270.99,683.53 269.05,682.53C267.33,681.64 265.70,679.79 265.26,678.23C264.84,676.73 264.52,671.45 264.55,666.50C264.59,659.18 265.02,656.70 266.85,653.19C268.09,650.83 274.14,640.94 280.30,631.22C286.46,621.49 293.15,611.89 295.16,609.86C297.88,607.12 300.25,605.86 304.45,604.92C307.55,604.23 310.27,603.38 310.48,603.03C310.70,602.68 310.96,591.39 311.07,577.95C311.27,553.51 311.27,553.51 307.88,552.69C306.02,552.24 302.83,551.43 300.80,550.91C298.76,550.38 295.77,548.84 294.16,547.48C292.56,546.13 290.48,543.42 289.55,541.46C288.15,538.52 287.62,531.53 286.46,501.20C285.68,481.01 285.04,462.59 285.03,460.25C285.01,457.91 284.54,456.00 283.97,456.00C283.40,456.00 278.49,460.20 273.06,465.34C264.93,473.04 261.37,475.60 252.85,479.87C246.87,482.87 239.99,485.50 236.54,486.12C233.26,486.70 228.09,486.88 225.04,486.51C221.99,486.15 217.17,484.80 214.32,483.51C211.48,482.23 207.02,479.23 204.42,476.84C201.51,474.18 192.90,462.26 182.12,446.00C172.46,431.43 162.29,415.24 159.53,410.04C154.50,400.58 154.50,400.58 149.00,398.96C145.97,398.06 142.06,396.58 140.29,395.66C138.53,394.74 135.47,391.87 133.49,389.28C131.51,386.69 128.16,380.93 126.05,376.49C123.94,372.04 119.92,362.29 117.12,354.81C114.31,347.33 110.89,336.55 109.51,330.86C108.13,325.16 107.00,318.88 107.00,316.90C107.00,314.81 107.96,311.86 109.27,309.90C110.52,308.03 113.58,305.42 116.08,304.09C119.20,302.43 121.42,301.89 123.21,302.34C124.79,302.73 126.20,304.06 126.83,305.74C127.40,307.26 129.66,313.16 131.87,318.85C134.08,324.54 136.52,329.71 137.30,330.35C138.08,330.98 138.98,332.26 139.30,333.19C139.74,334.45 138.77,335.42 135.44,337.03C133.00,338.21 131.00,339.83 131.00,340.62C131.00,341.41 131.61,343.51 132.35,345.28C133.08,347.05 134.38,349.07 135.22,349.76C136.50,350.83 137.32,350.39 140.37,347.01C142.37,344.80 144.00,342.29 144.00,341.43C144.00,340.57 142.89,335.49 141.54,330.15C140.19,324.81 137.92,317.38 136.51,313.64C135.10,309.89 133.06,305.08 131.98,302.95C130.89,300.82 130.00,297.69 130.00,295.99C130.00,294.29 130.67,291.61 131.48,290.04C132.29,288.46 134.14,286.25 135.58,285.11C137.02,283.98 139.73,282.77 141.59,282.42C143.98,281.97 146.17,282.37 148.99,283.77C153.00,285.75 153.00,285.75 153.00,281.34C153.00,278.92 153.66,275.36 154.47,273.43C155.57,270.80 157.11,269.40 160.61,267.85C163.85,266.42 166.50,265.94 169.19,266.30C171.33,266.59 174.18,267.54 175.52,268.42C176.87,269.31 178.64,271.05 179.46,272.30C180.28,273.56 183.05,282.66 185.62,292.54C188.18,302.42 190.61,310.87 191.01,311.32C191.41,311.77 192.93,310.09 194.40,307.58C195.86,305.08 197.92,302.58 198.97,302.02C200.01,301.46 202.26,301.00 203.97,301.00C205.67,301.00 208.51,301.62 210.28,302.38C212.05,303.13 214.71,305.05 216.19,306.63C217.66,308.21 219.36,310.78 219.95,312.34C220.77,314.51 220.53,318.50 218.97,329.22C217.84,336.94 215.87,348.54 214.58,355.00C212.24,366.75 212.24,366.75 219.37,374.17C223.29,378.24 231.37,388.43 237.32,396.79C243.26,405.16 248.77,412.00 249.55,412.00C250.32,412.00 254.42,408.85 258.65,404.99C262.87,401.14 268.62,396.91 271.42,395.58C274.21,394.26 279.43,392.65 283.00,392.00C287.16,391.25 294.36,388.47 303.00,384.28C313.88,379.00 316.11,377.58 314.50,376.93C313.40,376.50 305.30,376.10 296.50,376.05C287.70,376.00 276.28,375.52 271.12,374.98C264.11,374.24 260.46,373.30 256.65,371.24C253.85,369.74 250.54,366.98 249.29,365.12C248.04,363.26 246.56,360.11 245.99,358.12C245.43,356.13 244.53,343.77 243.99,330.66C243.02,306.82 243.02,306.82 240.00,303.00C238.34,300.90 236.31,297.28 235.49,294.96C234.40,291.89 234.01,286.39 234.02,274.62C234.04,260.57 234.31,257.92 236.08,254.00C237.20,251.53 239.29,248.27 240.73,246.77C243.22,244.16 243.41,243.18 244.69,226.27C245.42,216.49 246.74,206.03 247.60,203.00C248.46,199.97 250.55,195.25 252.23,192.50C253.91,189.75 257.97,184.25 261.26,180.27C264.55,176.29 271.12,169.61 275.87,165.42C280.62,161.23 289.18,154.67 294.90,150.84C300.62,147.01 308.76,142.13 313.00,140.00C317.24,137.87 326.76,134.07 334.16,131.56C341.56,129.05 351.58,126.13 356.44,125.07C361.29,124.01 365.59,122.77 366.00,122.32C366.41,121.87 367.01,119.37 367.35,116.77C367.87,112.74 367.63,111.74 365.79,110.02C364.60,108.91 363.28,108.00 362.85,108.00C362.43,108.00 360.94,106.05 359.54,103.66C357.73,100.58 357.00,97.88 357.00,94.31C357.00,91.55 357.51,87.77 358.14,85.90C358.76,84.03 360.40,80.99 361.77,79.14C363.14,77.29 366.12,74.94 368.38,73.91C370.65,72.89 373.62,72.04 375.00,72.03C376.38,72.02 379.20,72.48 381.28,73.06C383.35,73.64 386.64,75.50 388.59,77.21C390.53,78.92 393.04,82.12 394.17,84.33C395.72,87.38 396.12,89.68 395.81,93.95C395.50,98.19 394.63,100.68 392.20,104.21C390.44,106.77 389.00,109.90 389.01,111.18C389.02,112.46 389.29,115.14 389.62,117.13C390.22,120.77 390.22,120.77 409.36,121.25C423.51,121.61 431.33,122.31 439.37,123.93C445.35,125.13 455.03,127.83 460.87,129.91C466.72,132.00 473.98,134.95 477.00,136.48C480.02,138.00 485.38,141.25 488.90,143.69C492.42,146.14 497.75,150.24 500.76,152.82C503.76,155.39 509.72,161.68 514.00,166.78C518.52,172.17 523.50,179.52 525.87,184.28C528.21,189.00 530.57,195.70 531.41,200.00C532.21,204.12 533.58,213.80 534.44,221.50C535.82,233.74 536.30,235.73 538.26,237.31C539.49,238.30 541.81,240.32 543.41,241.79C545.01,243.27 547.12,246.28 548.10,248.49C549.08,250.70 550.35,255.43 550.93,259.01C551.51,262.58 551.99,268.16 551.99,271.42C552.00,274.67 551.49,280.24 550.88,283.78C550.04,288.59 548.67,291.81 545.51,296.44C541.26,302.64 541.26,302.64 540.20,321.07C539.62,331.21 538.59,341.07 537.92,343.00C537.25,344.93 535.83,347.74 534.77,349.27C533.71,350.79 531.42,352.78 529.67,353.70C527.93,354.62 522.00,356.63 516.50,358.18C511.00,359.73 501.17,362.43 494.64,364.19C487.82,366.03 482.56,367.98 482.25,368.79C481.95,369.57 482.26,370.54 482.93,370.95C483.60,371.37 488.50,371.98 493.82,372.30C499.14,372.63 505.98,373.43 509.00,374.07C512.02,374.72 516.13,376.07 518.12,377.08C521.67,378.87 521.84,378.87 527.12,376.74C531.65,374.92 534.55,374.57 545.50,374.54C557.01,374.50 559.07,374.76 563.50,376.80C566.25,378.07 570.62,381.36 573.20,384.12C576.02,387.12 578.76,391.40 580.06,394.81C582.05,400.07 582.28,403.29 583.10,437.21C583.59,457.40 584.38,482.79 584.86,493.64C585.71,513.04 585.76,513.40 588.24,515.43C589.63,516.57 592.20,518.62 593.95,520.00C596.05,521.65 597.45,523.86 598.04,526.50C598.54,528.70 598.96,536.19 598.98,543.14C599.00,555.23 599.14,556.07 602.19,562.59C604.74,568.04 605.47,571.06 605.81,577.63C606.15,584.02 605.78,587.36 604.16,592.67C603.02,596.43 600.77,601.56 599.18,604.07C597.58,606.59 594.30,610.25 591.88,612.21C589.47,614.17 584.35,617.34 580.50,619.27C576.65,621.19 570.42,623.72 566.64,624.88C561.95,626.33 557.12,627.00 551.33,627.00C543.73,627.00 542.92,627.18 543.39,628.75C543.68,629.71 544.65,634.83 545.54,640.13C546.43,645.43 547.01,651.06 546.83,652.63C546.55,655.08 545.48,656.00 539.63,658.86C535.85,660.71 521.45,666.48 507.63,671.67C493.81,676.87 478.07,682.67 472.65,684.56C467.23,686.46 459.80,688.27 456.15,688.59C452.49,688.92 436.15,688.46 419.84,687.59C403.53,686.72 385.53,686.02 379.84,686.04C374.15,686.05 366.57,686.71 363.00,687.50C359.39,688.29 351.83,688.88 346.00,688.82zM444.50,675.21C445.60,674.96 446.64,674.63 446.81,674.48C446.98,674.34 447.33,672.03 447.59,669.36C447.88,666.28 449.93,660.65 453.17,654.00C455.98,648.23 461.35,638.08 465.08,631.46C468.82,624.84 473.75,617.30 476.02,614.71C480.17,610.00 480.17,610.00 476.16,610.00C473.96,610.00 468.18,610.95 463.33,612.11C455.31,614.02 452.21,614.18 429.50,613.86C404.50,613.50 404.50,613.50 395.21,627.50C390.10,635.20 383.37,645.73 380.25,650.90C375.25,659.19 374.53,661.05 374.17,666.65C373.77,673.00 373.77,673.00 380.63,673.10C384.41,673.15 399.88,673.75 415.00,674.43C430.12,675.12 443.40,675.47 444.50,675.21zM337.39,674.63C340.01,674.51 340.41,674.01 341.61,669.30C342.34,666.45 344.22,661.27 345.80,657.80C347.38,654.34 352.45,645.42 357.05,638.00C361.66,630.58 367.13,622.65 369.22,620.39C371.30,618.13 373.00,616.05 373.00,615.78C373.00,615.51 367.04,615.33 359.75,615.39C352.46,615.45 336.62,615.34 324.54,615.15C302.57,614.80 302.57,614.80 300.27,617.65C299.01,619.22 293.09,628.15 287.11,637.50C281.14,646.85 275.52,655.94 274.62,657.70C273.73,659.46 273.00,663.19 273.00,665.98C273.00,669.19 273.47,671.24 274.28,671.55C274.99,671.83 288.82,672.66 305.03,673.40C321.24,674.14 335.80,674.70 337.39,674.63zM522.95,648.53C523.46,648.21 524.12,646.05 524.41,643.73C524.69,641.40 525.20,636.95 525.53,633.82C526.13,628.15 526.13,628.15 521.37,626.04C518.75,624.89 515.24,622.91 513.56,621.65C511.87,620.39 509.94,619.03 509.25,618.62C508.56,618.21 508.00,618.29 508.00,618.79C508.00,619.29 510.28,622.71 513.06,626.39C516.95,631.52 518.37,634.39 519.18,638.79C519.76,641.93 520.63,645.54 521.12,646.81C521.61,648.07 522.43,648.85 522.95,648.53zM550.99,618.00C552.85,618.00 555.22,616.87 557.44,614.91C559.38,613.22 562.43,608.84 564.23,605.19C567.30,598.96 567.50,597.90 567.49,588.03C567.49,582.24 567.08,574.89 566.60,571.69C565.76,566.23 565.84,565.85 567.86,565.33C569.04,565.02 570.00,563.99 570.00,563.04C570.00,562.09 568.01,559.50 565.58,557.28C561.33,553.42 561.19,553.10 562.00,549.38C562.46,547.25 563.15,541.53 563.54,536.67C564.16,528.95 564.52,527.74 566.37,527.00C567.54,526.54 572.00,525.60 576.28,524.93C580.56,524.26 584.29,523.34 584.56,522.90C584.83,522.46 584.17,521.63 583.09,521.05C582.01,520.47 578.15,520.00 574.50,520.00C570.85,520.00 566.98,519.53 565.90,518.95C564.35,518.12 564.05,517.20 564.48,514.70C564.79,512.94 564.42,494.73 563.66,474.22C562.90,453.72 561.99,436.66 561.64,436.31C561.28,435.95 558.86,436.63 556.25,437.82C553.64,439.01 549.27,440.46 546.54,441.04C543.81,441.63 539.76,441.80 537.54,441.43C535.32,441.07 532.32,440.16 530.87,439.42C529.42,438.68 527.06,436.67 525.62,434.96C524.10,433.15 523.00,430.62 523.00,428.92C523.00,426.99 523.51,426.00 524.50,426.00C525.33,426.00 526.00,425.88 526.00,425.74C526.00,425.60 525.58,424.03 525.07,422.24C524.56,420.46 524.34,419.00 524.59,419.00C524.84,419.00 526.81,420.12 528.98,421.49C531.15,422.85 535.04,424.45 537.63,425.03C540.22,425.61 543.62,425.80 545.19,425.46C546.76,425.11 549.39,423.70 551.02,422.33C552.95,420.70 554.55,417.93 555.56,414.43C556.75,410.34 557.01,406.29 556.61,397.77C556.14,387.51 555.89,386.37 553.85,385.00C552.26,383.94 549.09,383.52 543.05,383.57C536.48,383.63 533.34,384.16 529.50,385.88C526.75,387.10 523.22,389.32 521.66,390.80C520.09,392.29 517.70,395.68 516.34,398.35C514.98,401.02 513.40,405.83 512.83,409.05C512.09,413.26 512.13,416.87 512.98,421.90C513.81,426.81 515.32,430.81 518.03,435.30C520.15,438.82 522.12,442.78 522.41,444.10C522.69,445.42 523.41,457.07 524.00,470.00C524.59,482.93 525.75,499.73 526.58,507.34C527.71,517.69 527.81,521.53 526.96,522.55C526.20,523.47 525.93,528.92 526.13,539.39C526.43,554.87 526.43,554.87 521.75,558.99C518.82,561.56 515.85,565.60 513.80,569.76C510.78,575.90 510.52,577.15 510.56,585.96C510.59,593.73 511.00,596.26 512.75,599.62C513.94,601.88 516.10,605.16 517.57,606.90C519.04,608.65 521.51,610.73 523.07,611.54C524.63,612.34 527.97,613.00 530.50,613.00C534.15,613.00 535.59,612.47 537.47,610.44C538.78,609.03 540.14,606.14 540.50,604.01C540.87,601.82 540.68,599.28 540.07,598.12C539.20,596.51 538.22,596.18 535.24,596.49C533.18,596.71 531.16,596.91 530.75,596.94C530.34,596.97 530.00,598.12 530.00,599.50C530.00,601.33 530.53,602.00 532.00,602.00C533.10,602.00 534.00,602.42 534.00,602.93C534.00,603.45 533.12,604.14 532.05,604.48C530.98,604.82 528.76,604.41 527.13,603.57C525.20,602.57 523.18,600.02 521.35,596.28C519.19,591.86 518.53,589.07 518.52,584.30C518.50,579.69 518.95,577.62 520.25,576.32C521.91,574.66 522.00,574.66 522.00,576.32C522.00,577.28 522.64,579.59 523.42,581.46C524.84,584.87 524.84,584.87 528.63,582.93C530.77,581.84 534.45,581.00 537.08,581.00C540.26,581.00 542.56,581.65 544.34,583.05C545.80,584.20 547.46,586.97 548.10,589.30C548.85,592.04 549.04,597.78 548.65,605.75C548.04,618.00 548.04,618.00 550.99,618.00zM348.18,606.80C360.46,606.98 361.92,606.82 362.36,605.25C362.63,604.29 363.15,593.46 363.53,581.19C364.21,558.88 364.21,558.88 359.36,559.19C354.50,559.50 354.50,559.50 354.19,563.75C353.89,568.00 353.89,568.00 344.07,568.00C334.26,568.00 334.26,568.00 333.75,563.45C333.47,560.95 332.92,558.59 332.54,558.21C332.16,557.83 329.07,557.51 325.67,557.51C319.50,557.50 319.50,557.50 319.23,579.78C319.06,593.69 319.35,602.78 319.99,603.98C320.82,605.53 322.35,605.98 327.76,606.26C331.47,606.45 340.66,606.70 348.18,606.80zM441.63,607.00C462.19,607.00 464.01,606.86 464.91,605.18C465.44,604.17 466.20,593.16 466.59,580.70C467.26,559.50 467.19,558.01 465.52,557.37C464.53,556.99 463.00,557.14 462.11,557.69C461.23,558.25 460.27,560.46 460.00,562.60C459.50,566.50 459.50,566.50 446.50,566.78C439.35,566.93 432.49,567.28 431.25,567.55C430.02,567.82 428.67,568.14 428.25,568.27C427.84,568.40 427.27,566.48 427.00,564.00C426.52,559.66 426.37,559.49 422.89,559.20C419.51,558.92 419.23,559.11 418.61,562.20C418.24,564.01 417.99,574.57 418.05,585.66C418.10,596.74 418.41,606.08 418.74,606.41C419.07,606.73 429.37,607.00 441.63,607.00zM429.53,603.97C428.52,604.81 427.99,604.79 427.43,603.89C427.03,603.23 426.74,599.11 426.80,594.73C426.85,590.35 427.15,586.52 427.46,586.21C427.77,585.90 428.65,586.51 429.43,587.57C430.65,589.25 432.49,589.57 443.54,590.00C456.11,590.49 456.25,590.48 457.12,588.18C457.60,586.91 458.04,584.44 458.10,582.68C458.19,579.64 458.23,579.61 459.00,582.00C459.44,583.38 459.85,588.77 459.90,594.00C460.00,603.50 460.00,603.50 445.44,603.18C435.69,602.96 430.44,603.22 429.53,603.97zM338.75,603.23C326.00,603.59 326.00,603.59 326.00,596.28C326.00,588.98 326.00,588.98 329.75,589.53C331.81,589.84 337.77,590.18 343.00,590.29C348.23,590.41 352.83,590.95 353.23,591.50C353.64,592.05 353.98,594.65 353.98,597.28C353.99,600.24 353.52,602.22 352.75,602.47C352.06,602.69 345.76,603.03 338.75,603.23zM404.46,592.79C409.50,592.50 409.50,592.50 409.50,575.50C409.50,558.50 409.50,558.50 406.11,558.18C404.25,558.00 401.66,558.12 400.36,558.45C398.00,559.04 398.00,559.04 398.00,575.35C398.00,584.33 398.32,591.99 398.71,592.38C399.10,592.77 401.69,592.96 404.46,592.79zM586.87,589.00C587.89,586.67 588.41,582.31 588.42,576.00C588.43,568.21 588.01,565.56 586.11,561.30C584.84,558.44 582.78,555.43 581.54,554.62C580.31,553.81 577.65,552.84 575.65,552.46C573.01,551.97 572.00,552.13 572.00,553.05C572.00,553.74 573.79,556.63 575.97,559.46C578.15,562.29 580.83,566.62 581.92,569.08C583.14,571.84 584.17,577.17 584.62,583.02C585.34,592.50 585.34,592.50 586.87,589.00zM499.07,589.00C499.52,589.00 500.13,588.60 500.44,588.10C500.74,587.61 501.46,583.67 502.04,579.35C502.62,575.03 503.98,568.77 505.07,565.42C506.44,561.21 508.61,557.59 512.14,553.63C514.95,550.48 516.99,547.66 516.69,547.36C516.39,547.05 511.83,547.79 506.57,548.98C497.00,551.16 497.00,551.16 497.01,566.33C497.02,574.67 497.30,583.19 497.64,585.25C497.98,587.31 498.63,589.00 499.07,589.00zM383.50,540.83C404.58,540.92 425.48,540.42 438.50,539.51C450.05,538.70 462.25,537.76 465.60,537.42C468.96,537.08 472.27,536.45 472.95,536.03C473.74,535.54 474.51,530.92 475.07,523.38C475.55,516.85 476.42,501.82 477.01,490.00C477.59,478.18 478.31,454.55 478.60,437.50C479.06,410.51 478.95,406.73 477.70,408.26C476.91,409.22 475.70,412.72 474.99,416.04C474.29,419.35 473.27,422.33 472.73,422.67C472.10,423.06 471.90,420.08 472.17,414.39C472.51,407.49 473.21,404.19 475.30,399.64C476.78,396.42 479.57,391.63 481.49,389.01C483.42,386.38 485.00,383.89 485.00,383.46C485.00,383.04 479.49,382.98 472.75,383.32C466.01,383.66 453.17,384.42 444.22,385.01C435.26,385.59 426.71,386.53 425.22,387.09C423.72,387.65 420.20,390.37 417.40,393.13C413.96,396.51 411.02,398.43 408.40,399.03C406.25,399.51 389.61,400.45 371.40,401.12C353.20,401.79 337.56,402.05 336.65,401.70C335.74,401.35 335.00,400.22 335.00,399.18C335.00,398.15 336.34,395.45 337.97,393.19C339.61,390.94 343.29,387.51 346.16,385.58C349.73,383.18 350.90,381.90 349.90,381.51C349.10,381.21 343.02,381.36 336.40,381.85C328.22,382.46 322.94,383.38 319.93,384.71C317.49,385.80 310.47,390.00 304.31,394.06C298.16,398.11 292.65,402.48 292.06,403.76C291.48,405.04 291.00,411.63 291.00,418.40C291.00,425.17 291.45,439.66 292.01,450.60C292.56,461.55 293.66,484.77 294.45,502.21C295.25,519.82 296.36,534.81 296.96,535.92C297.55,537.02 299.47,538.17 301.26,538.48C303.04,538.79 314.62,539.41 327.00,539.87C339.38,540.32 364.80,540.76 383.50,540.83zM490.62,532.68C493.85,532.33 499.65,531.24 503.50,530.27C510.14,528.59 510.48,528.36 510.19,525.82C510.02,524.34 510.36,518.80 510.95,513.49C511.54,508.19 511.74,503.39 511.40,502.83C511.04,502.26 509.05,503.49 506.81,505.66C504.63,507.77 498.78,514.86 493.79,521.41C484.73,533.31 484.73,533.31 490.62,532.68zM542.75,519.93C537.00,520.00 537.00,520.00 537.02,515.75C537.02,513.41 537.36,511.05 537.77,510.50C538.17,509.95 539.79,509.41 541.37,509.30C542.95,509.18 544.98,508.44 545.87,507.64C546.77,506.84 548.62,506.03 549.98,505.84C552.12,505.55 552.56,504.81 553.21,500.50C553.63,497.75 554.47,493.06 555.09,490.07C555.83,486.51 556.49,485.14 557.00,486.07C557.42,486.86 558.24,494.24 558.82,502.49C559.39,510.73 559.66,517.67 559.42,517.92C559.17,518.16 556.62,518.70 553.74,519.11C550.86,519.52 545.91,519.89 542.75,519.93zM419.25,517.99C404.54,517.97 397.77,517.60 396.00,516.71C394.63,516.01 392.55,513.43 391.39,510.97C390.23,508.51 388.98,505.56 388.62,504.41C387.98,502.38 388.36,502.29 400.73,501.66C407.75,501.30 418.50,501.01 424.62,501.00C435.73,501.00 435.73,501.00 438.38,497.00C439.84,494.80 441.67,493.00 442.46,493.00C443.24,493.00 444.18,493.49 444.55,494.09C444.92,494.68 444.90,499.45 444.51,504.69C443.96,512.05 443.37,514.63 441.90,516.10C440.15,517.85 438.31,518.00 419.25,517.99zM326.91,517.00C317.22,517.00 315.96,516.80 315.04,515.07C314.47,514.00 314.00,510.40 314.00,507.07C314.00,501.00 314.00,501.00 319.09,501.00C321.88,501.00 333.02,501.46 343.84,502.03C354.65,502.59 364.54,503.28 365.81,503.56C367.52,503.94 368.05,504.65 367.81,506.28C367.60,507.81 366.58,508.68 364.50,509.13C362.85,509.48 358.07,509.82 353.88,509.88C349.68,509.95 344.88,510.27 343.20,510.61C341.08,511.03 339.79,512.10 338.95,514.11C337.76,517.00 337.76,517.00 326.91,517.00zM319.33,490.98C314.16,491.00 314.16,491.00 313.48,484.64C313.10,481.15 312.96,477.44 313.16,476.39C313.51,474.59 314.97,474.49 342.51,474.26C359.87,474.11 372.10,474.40 373.00,474.98C374.16,475.72 374.25,476.35 373.40,477.72C372.64,478.94 370.16,479.81 365.47,480.50C361.72,481.05 358.62,481.95 358.58,482.50C358.53,483.05 360.30,483.89 362.50,484.36C364.70,484.83 367.40,485.57 368.50,486.00C370.34,486.72 370.26,486.88 367.58,487.93C365.98,488.56 355.63,489.50 344.58,490.02C333.54,490.53 322.17,490.97 319.33,490.98zM394.00,490.97C391.52,490.97 388.97,490.63 388.32,490.22C387.68,489.81 386.85,486.06 386.49,481.88C385.84,474.29 385.84,474.29 410.17,473.75C423.55,473.45 435.20,472.92 436.05,472.57C436.91,472.22 438.41,470.58 439.39,468.91C440.66,466.77 441.82,465.98 443.34,466.19C445.35,466.48 445.48,466.97 445.18,473.50C445.01,477.35 444.44,481.90 443.91,483.60C443.35,485.39 441.84,487.21 440.36,487.88C438.94,488.53 428.94,489.49 418.14,490.01C407.34,490.53 396.48,490.97 394.00,490.97zM230.24,474.59C234.56,474.29 239.14,473.15 242.98,471.43C246.27,469.95 249.54,468.06 250.23,467.23C251.07,466.21 250.08,466.43 247.19,467.90C244.02,469.52 240.33,470.25 233.05,470.69C223.20,471.29 223.20,471.29 220.35,468.39C217.50,465.50 217.50,465.50 220.28,465.18C222.20,464.96 223.79,463.72 225.42,461.18C226.72,459.16 229.29,456.11 231.14,454.42C232.99,452.72 236.04,450.17 237.93,448.76C241.35,446.18 241.35,446.18 243.25,448.59C244.29,449.91 245.80,451.00 246.60,451.00C247.40,451.00 248.50,449.81 249.05,448.36C249.75,446.52 249.71,444.65 248.91,442.23C248.27,440.29 245.01,436.03 241.56,432.63C238.15,429.26 232.72,422.90 229.49,418.50C226.26,414.10 221.07,407.12 217.94,403.00C214.82,398.88 210.86,393.27 209.13,390.55C207.41,387.83 206.00,384.30 206.00,382.70C206.00,380.02 205.77,379.84 203.25,380.46C201.74,380.82 196.00,383.77 190.50,387.01C185.00,390.24 177.01,394.54 172.75,396.56C168.49,398.57 165.00,400.61 165.00,401.09C165.00,401.57 168.53,407.26 172.83,413.73C177.14,420.20 186.77,434.73 194.23,446.00C201.68,457.27 208.94,467.58 210.36,468.89C211.77,470.21 215.31,472.13 218.22,473.17C222.16,474.58 225.22,474.94 230.24,474.59zM253.43,464.39C254.22,464.08 256.54,461.41 258.58,458.45C261.88,453.66 262.27,452.42 262.20,447.11C262.15,443.82 261.60,439.22 260.97,436.88C260.33,434.52 258.35,431.15 256.51,429.31C254.69,427.49 252.59,426.01 251.85,426.02C251.11,426.02 249.86,426.44 249.07,426.94C247.89,427.68 248.10,428.44 250.30,431.32C251.76,433.24 254.09,436.94 255.48,439.55C257.14,442.68 257.99,445.87 257.98,448.90C257.97,451.43 257.11,455.36 256.08,457.63C255.05,459.90 253.71,462.06 253.10,462.44C252.50,462.81 252.00,463.53 252.00,464.03C252.00,464.53 252.65,464.69 253.43,464.39zM331.85,462.56C314.48,463.22 314.18,463.20 313.05,461.09C312.41,459.91 312.03,456.59 312.20,453.72C312.50,448.50 312.50,448.50 345.75,448.24C379.00,447.97 379.00,447.97 379.00,451.33C379.00,453.31 378.28,455.29 377.25,456.15C376.29,456.96 374.20,458.17 372.62,458.84C371.04,459.52 365.19,460.48 359.62,460.98C354.05,461.47 341.56,462.18 331.85,462.56zM412.92,461.70C390.18,462.26 388.28,462.18 387.67,460.57C387.30,459.62 387.00,456.17 387.00,452.92C387.00,447.00 387.00,447.00 391.25,446.91C393.59,446.86 404.93,446.30 416.47,445.66C437.43,444.50 437.43,444.50 440.28,440.25C442.10,437.54 443.88,436.00 445.20,436.00C447.20,436.00 447.25,436.33 446.56,445.71C446.17,451.05 445.44,456.17 444.95,457.10C444.45,458.03 442.57,459.31 440.77,459.95C438.85,460.63 427.35,461.35 412.92,461.70zM321.11,441.88C319.12,441.82 316.70,441.56 315.73,441.31C314.76,441.05 313.07,439.10 311.98,436.96C310.89,434.83 310.00,431.91 310.00,430.49C310.00,429.07 310.63,426.68 311.40,425.20C312.17,423.71 313.69,421.69 314.77,420.70C315.86,419.72 318.39,418.65 320.40,418.32C323.72,417.78 324.41,418.11 328.03,421.91C330.21,424.20 332.00,425.65 332.00,425.11C332.00,424.58 334.36,423.90 337.25,423.60C340.14,423.30 350.49,422.78 360.25,422.44C376.63,421.87 378.05,421.95 378.67,423.59C379.07,424.64 378.52,426.81 377.30,428.93C376.18,430.89 374.11,433.07 372.70,433.77C371.22,434.51 362.08,435.52 350.87,436.19C333.38,437.23 331.27,437.56 328.15,439.67C325.98,441.14 323.39,441.96 321.11,441.88zM319.88,434.00C320.91,434.00 322.30,433.34 322.96,432.54C323.63,431.74 323.88,430.62 323.53,430.04C323.17,429.47 321.78,429.00 320.44,429.00C318.50,429.00 318.00,429.52 318.00,431.50C318.00,433.28 318.54,434.00 319.88,434.00zM497.12,434.00C497.60,434.00 498.00,431.51 498.00,428.46C498.00,425.41 498.48,418.55 499.07,413.21C499.66,407.87 501.00,401.57 502.04,399.21C503.08,396.84 504.89,393.56 506.07,391.90C507.25,390.24 507.95,388.62 507.62,388.29C507.29,387.96 505.16,388.53 502.89,389.55C500.39,390.68 497.71,392.99 496.13,395.39C493.60,399.20 493.50,399.91 493.50,413.43C493.50,423.10 493.93,428.52 494.87,430.75C495.63,432.54 496.64,434.00 497.12,434.00zM413.40,432.62C401.72,433.02 393.08,432.93 392.77,432.40C392.47,431.91 391.91,429.17 391.53,426.33C390.89,421.61 391.04,421.03 393.17,419.70C394.79,418.68 402.51,417.75 418.68,416.62C431.43,415.73 442.99,414.58 444.35,414.06C446.21,413.35 447.15,413.48 448.06,414.57C448.87,415.55 449.08,417.93 448.69,421.68C448.37,424.78 447.44,427.99 446.61,428.82C445.78,429.64 442.50,430.68 439.30,431.13C436.11,431.57 424.46,432.24 413.40,432.62zM265.74,432.00C266.47,432.00 269.92,429.64 273.41,426.75C276.90,423.86 280.23,420.60 280.80,419.50C281.37,418.40 282.11,413.51 282.44,408.64C283.03,399.78 283.03,399.78 280.26,400.47C278.74,400.85 275.93,402.35 274.00,403.81C272.07,405.27 267.01,409.54 262.75,413.29C258.49,417.04 255.00,420.63 255.00,421.27C255.00,421.91 257.12,424.58 259.71,427.22C262.30,429.85 265.02,432.00 265.74,432.00zM540.64,421.98C538.91,421.98 536.89,421.58 536.15,421.11C535.07,420.43 535.31,419.48 537.35,416.38C538.75,414.25 540.11,411.15 540.36,409.50C540.62,407.85 540.87,406.16 540.92,405.75C540.96,405.34 542.11,405.00 543.48,405.00C545.02,405.00 546.58,405.95 547.61,407.52C548.78,409.32 549.09,411.26 548.69,414.26C548.34,416.89 547.30,419.14 545.95,420.24C544.76,421.21 542.37,421.99 540.64,421.98zM562.11,420.29C562.73,419.67 563.46,417.14 563.74,414.65C564.02,412.16 563.88,408.41 563.43,406.31C562.62,402.50 562.62,402.50 561.91,408.00C561.52,411.02 561.15,415.28 561.10,417.45C561.03,420.35 561.30,421.10 562.11,420.29zM238.09,420.00C238.59,420.00 239.00,419.75 239.00,419.45C239.00,419.14 237.12,416.10 234.83,412.70C232.53,409.29 229.05,404.48 227.10,402.00C225.15,399.52 222.00,395.70 220.10,393.50C218.20,391.30 216.05,389.14 215.33,388.70C214.28,388.07 214.22,388.46 215.06,390.66C215.64,392.18 217.95,396.14 220.20,399.46C222.45,402.78 227.19,408.76 230.73,412.75C234.28,416.74 237.59,420.00 238.09,420.00zM380.32,392.38C387.02,392.01 393.37,391.40 394.42,391.02C395.48,390.64 396.47,389.47 396.61,388.41C396.76,387.36 397.18,384.63 397.56,382.35C398.24,378.20 398.24,378.20 385.37,378.65C378.29,378.89 370.98,379.33 369.12,379.62C365.73,380.14 365.73,380.14 366.29,385.54C366.60,388.52 367.14,391.42 367.50,392.00C367.93,392.70 372.20,392.83 380.32,392.38zM154.00,387.55C157.03,387.28 165.39,385.08 172.58,382.65C179.78,380.23 187.28,377.48 189.26,376.55C191.45,375.51 193.48,373.51 194.47,371.41C195.37,369.52 199.02,357.07 202.57,343.74C206.13,330.41 209.31,317.86 209.64,315.85C210.14,312.70 209.87,311.96 207.67,310.52C206.27,309.60 204.12,308.99 202.89,309.17C201.08,309.44 200.14,311.07 197.78,318.00C195.64,324.27 195.02,327.61 195.42,330.75C195.72,333.09 195.75,335.00 195.49,335.00C195.24,335.00 194.35,333.37 193.52,331.38C192.00,327.77 192.00,327.77 185.75,328.20C181.90,328.47 176.50,329.86 171.67,331.82C167.37,333.57 163.21,335.00 162.42,335.00C161.45,335.00 161.00,333.82 160.98,331.25C160.98,329.19 160.58,326.88 160.09,326.12C159.48,325.15 158.20,324.93 155.86,325.38C154.01,325.74 151.89,326.42 151.14,326.89C150.21,327.48 150.00,328.72 150.47,330.84C150.84,332.54 152.29,335.62 153.68,337.68C155.50,340.36 155.95,341.85 155.27,342.93C154.75,343.76 151.89,345.66 148.91,347.16C145.94,348.66 141.10,351.03 138.16,352.44C135.22,353.85 131.76,355.00 130.47,355.00C129.17,355.00 127.85,355.44 127.51,355.98C127.18,356.52 128.34,360.23 130.09,364.23C131.83,368.23 135.23,374.56 137.65,378.30C140.51,382.75 143.15,385.62 145.27,386.58C147.41,387.55 150.35,387.88 154.00,387.55zM314.50,362.47C336.50,362.23 360.35,361.57 367.50,361.01C374.65,360.45 393.55,358.87 409.50,357.49C425.45,356.11 445.70,354.07 454.50,352.96C463.30,351.85 472.62,350.25 475.22,349.40C477.88,348.53 481.03,346.56 482.43,344.90C483.80,343.27 485.41,340.26 485.99,338.22C486.58,336.17 487.53,326.40 488.09,316.50C488.65,306.60 488.84,290.40 488.51,280.50C488.18,270.60 487.47,254.40 486.93,244.50C486.38,234.60 485.04,217.28 483.95,206.00C482.86,194.72 481.49,182.80 480.92,179.50C480.34,176.20 479.27,171.43 478.54,168.91C477.80,166.38 476.19,162.34 474.96,159.93C473.73,157.51 469.97,152.78 466.60,149.41C462.19,145.01 458.08,142.13 451.98,139.19C447.32,136.94 440.12,134.20 436.00,133.09C431.88,131.98 424.69,130.61 420.03,130.04C415.37,129.47 407.49,129.00 402.53,129.01C397.56,129.01 388.10,129.66 381.50,130.44C374.90,131.22 365.23,132.81 360.00,133.96C354.77,135.12 346.90,137.23 342.50,138.67C338.10,140.10 330.68,142.83 326.00,144.73C321.32,146.63 314.57,149.79 311.00,151.76C307.43,153.73 301.47,157.32 297.77,159.75C294.06,162.17 286.92,167.91 281.90,172.49C276.87,177.07 271.94,182.07 270.94,183.60C269.93,185.12 269.30,186.68 269.54,187.06C269.77,187.43 278.15,185.77 288.16,183.35C298.17,180.94 318.99,176.73 334.43,174.00C349.87,171.27 377.57,166.58 396.00,163.56C414.43,160.55 433.02,157.61 437.32,157.04C441.62,156.47 447.60,156.00 450.60,156.00C453.61,156.00 457.51,156.61 459.28,157.36C461.05,158.11 463.35,159.68 464.39,160.84C466.09,162.75 466.11,163.02 464.64,163.58C463.52,164.01 463.19,164.93 463.59,166.51C464.15,168.72 463.88,168.84 456.83,169.37C452.80,169.68 437.80,170.86 423.50,172.01C409.20,173.15 394.61,174.54 391.08,175.09C387.12,175.71 384.17,176.75 383.38,177.80C382.69,178.73 380.04,183.18 377.51,187.67C372.91,195.83 372.91,195.83 366.20,196.89C362.52,197.48 350.73,199.09 340.00,200.49C329.27,201.88 319.26,203.27 317.75,203.59C315.78,204.00 314.82,203.71 314.38,202.55C314.03,201.64 314.87,199.28 316.34,197.06C317.76,194.91 319.21,192.00 319.57,190.58C320.07,188.57 319.84,188.00 318.54,188.00C317.62,188.00 306.21,189.58 293.18,191.50C280.16,193.43 267.52,195.34 265.09,195.75C262.09,196.26 260.12,197.29 258.90,199.00C257.65,200.75 256.80,204.82 256.09,212.50C255.52,218.55 254.77,232.95 254.42,244.50C254.06,256.05 254.29,284.62 254.92,308.00C255.92,344.56 256.32,350.98 257.79,353.94C258.73,355.82 260.65,358.21 262.06,359.24C263.47,360.27 266.85,361.52 269.56,362.02C272.28,362.51 292.50,362.72 314.50,362.47zM175.04,359.94C173.91,361.45 173.04,361.88 172.60,361.16C172.22,360.55 172.40,358.24 172.99,356.04C173.58,353.84 176.79,348.43 180.11,344.02C183.43,339.61 186.31,336.00 186.50,336.00C186.69,336.00 184.59,340.86 181.82,346.80C179.06,352.75 176.01,358.66 175.04,359.94zM127.11,354.00C127.60,354.00 127.99,352.54 127.98,350.75C127.96,348.96 127.55,345.93 127.07,344.00C126.58,342.07 124.56,334.32 122.59,326.78C120.62,319.23 119.00,312.82 119.00,312.53C119.00,312.24 118.19,312.00 117.20,312.00C116.21,312.00 114.86,312.54 114.20,313.20C113.54,313.86 113.01,315.77 113.02,317.45C113.03,319.13 114.12,323.43 115.45,327.00C116.77,330.57 119.04,336.65 120.50,340.50C121.95,344.35 123.84,348.96 124.69,350.75C125.53,352.54 126.63,354.00 127.11,354.00zM465.77,348.58C460.50,349.07 460.50,349.07 465.72,346.98C468.97,345.68 472.26,343.35 474.41,340.83C476.31,338.61 479.01,334.02 480.40,330.64C482.93,324.50 482.93,324.50 482.61,331.29C482.34,337.06 481.85,338.63 479.30,341.79C477.66,343.83 475.13,346.08 473.68,346.79C472.23,347.51 468.67,348.31 465.77,348.58zM431.56,336.97C430.98,336.95 429.71,336.48 428.75,335.92C427.26,335.05 427.00,333.35 427.00,324.57C427.00,316.81 427.36,313.95 428.44,313.05C429.23,312.39 431.14,312.00 432.69,312.18C435.50,312.50 435.50,312.50 435.79,323.49C436.03,332.95 435.83,334.65 434.35,335.74C433.40,336.43 432.14,336.99 431.56,336.97zM445.84,334.80C443.83,334.97 441.88,334.62 441.51,334.02C441.14,333.42 441.15,328.04 441.54,322.07C442.17,312.30 442.46,311.12 444.37,310.29C445.54,309.79 447.30,309.55 448.28,309.77C449.89,310.12 450.03,311.34 449.78,322.33C449.50,334.50 449.50,334.50 445.84,334.80zM459.60,334.00C458.35,334.00 457.03,333.70 456.67,333.33C456.30,332.97 456.00,327.21 456.00,320.53C456.00,312.43 456.40,308.00 457.20,307.20C457.86,306.54 459.66,306.00 461.20,306.00C464.00,306.00 464.00,306.00 464.00,315.38C464.00,320.53 464.27,326.08 464.59,327.71C465.00,329.76 464.67,331.19 463.52,332.34C462.61,333.25 460.84,334.00 459.60,334.00zM282.00,332.50C271.52,333.04 268.22,332.91 267.25,331.90C266.56,331.18 266.00,329.60 266.00,328.38C266.00,327.16 266.27,325.47 266.59,324.62C267.12,323.24 267.43,323.23 269.49,324.59C271.20,325.71 273.12,325.92 276.92,325.42C279.74,325.04 282.27,324.37 282.54,323.93C282.82,323.49 281.12,322.88 278.77,322.57C276.42,322.26 272.93,321.86 271.00,321.69C268.77,321.49 267.39,320.79 267.20,319.78C266.95,318.48 268.25,318.06 274.19,317.53C278.21,317.17 284.88,316.79 289.00,316.69C296.50,316.50 296.50,316.50 296.76,323.00C296.90,326.57 296.67,330.02 296.26,330.66C295.79,331.38 290.39,332.07 282.00,332.50zM353.50,330.92C348.04,330.89 342.62,330.25 339.71,329.28C337.07,328.40 333.21,326.03 331.12,324.00C329.04,321.98 325.91,317.83 324.17,314.79C322.42,311.75 321.00,308.97 321.00,308.63C321.00,308.28 326.74,307.99 333.75,307.98C340.76,307.97 351.23,307.33 357.00,306.56C362.77,305.79 373.75,303.97 381.38,302.51C390.46,300.77 395.60,300.20 396.24,300.84C396.88,301.48 396.65,303.54 395.57,306.80C394.65,309.54 392.24,314.15 390.20,317.04C387.84,320.40 384.65,323.34 381.37,325.18C378.56,326.76 373.16,328.71 369.37,329.51C365.59,330.31 358.45,330.95 353.50,330.92zM174.21,326.61C175.95,326.26 178.19,325.24 179.18,324.33C180.20,323.41 180.99,321.33 180.98,319.60C180.98,317.89 180.59,315.90 180.13,315.18C179.54,314.25 178.13,314.05 175.40,314.51C173.25,314.88 170.73,315.39 169.79,315.64C168.45,316.01 168.21,316.81 168.68,319.31C169.02,321.06 169.69,323.57 170.17,324.87C170.92,326.90 171.50,327.15 174.21,326.61zM151.96,321.86C153.57,321.30 155.43,320.18 156.11,319.37C157.08,318.19 156.97,316.74 155.56,312.20C154.58,309.06 152.45,303.01 150.82,298.75C148.46,292.59 147.36,290.88 145.42,290.39C143.91,290.01 142.01,290.42 140.41,291.46C138.95,292.42 138.07,293.75 138.37,294.53C138.67,295.29 140.49,301.00 142.43,307.21C144.37,313.42 146.65,319.49 147.50,320.69C148.82,322.58 149.43,322.74 151.96,321.86zM352.50,321.59C357.45,321.39 364.46,320.47 368.08,319.53C371.70,318.60 375.98,316.79 377.58,315.51C379.19,314.23 380.19,312.87 379.82,312.49C379.44,312.11 374.49,312.62 368.82,313.61C362.70,314.69 353.51,315.44 346.25,315.45C339.51,315.47 334.00,315.75 334.00,316.08C334.00,316.42 334.85,317.46 335.89,318.40C336.93,319.34 339.07,320.53 340.64,321.04C342.21,321.54 347.55,321.79 352.50,321.59zM169.79,310.37C171.28,310.01 173.74,309.10 175.25,308.33C176.76,307.57 178.00,306.48 178.00,305.91C178.00,305.34 177.14,302.76 176.08,300.19C175.02,297.61 173.63,292.35 172.99,288.50C172.35,284.65 171.40,280.08 170.87,278.34C170.34,276.60 169.25,274.92 168.44,274.62C167.64,274.31 165.89,274.47 164.55,274.98C163.22,275.49 161.64,276.81 161.04,277.92C160.24,279.42 160.37,281.82 161.53,287.22C162.40,291.22 163.58,297.43 164.16,301.00C164.74,304.57 165.64,308.29 166.15,309.26C166.84,310.57 167.77,310.85 169.79,310.37zM513.54,299.79C513.81,299.52 513.34,297.67 512.51,295.67C511.67,293.67 510.55,287.76 510.00,282.54C509.38,276.52 509.36,268.90 509.94,261.77C510.44,255.57 511.34,249.23 511.93,247.68C512.52,246.14 513.00,244.22 513.00,243.43C513.00,242.65 512.17,242.00 511.15,242.00C510.14,242.00 508.62,242.79 507.78,243.75C506.94,244.71 505.64,247.30 504.89,249.50C503.98,252.16 503.57,257.76 503.66,266.26C503.75,273.96 504.46,281.97 505.46,286.46C506.67,291.90 507.92,294.77 510.09,297.09C511.72,298.84 513.28,300.06 513.54,299.79zM286.00,296.55C282.43,296.77 278.28,296.55 276.79,296.07C275.30,295.59 272.80,294.28 271.24,293.17C269.68,292.06 267.19,288.92 265.71,286.20C264.01,283.09 262.61,278.34 261.91,273.38C261.30,269.05 261.10,262.35 261.45,258.50C261.85,254.22 263.07,249.47 264.61,246.28C265.99,243.40 268.89,239.54 271.05,237.69C273.22,235.84 276.79,233.78 279.00,233.12C281.24,232.45 284.68,232.20 286.76,232.57C288.82,232.93 292.33,234.27 294.56,235.54C296.79,236.82 300.54,239.95 302.90,242.50C305.25,245.06 308.38,249.70 309.84,252.82C312.10,257.66 312.50,259.84 312.50,267.52C312.50,275.73 312.20,277.15 309.15,283.35C306.96,287.80 304.71,290.82 302.65,292.08C300.92,293.15 297.93,294.50 296.00,295.08C294.07,295.67 289.57,296.33 286.00,296.55zM532.10,291.00C533.08,291.00 534.15,290.57 534.47,290.04C534.80,289.52 534.37,287.44 533.53,285.42C532.55,283.06 532.01,278.68 532.03,273.13C532.06,266.94 532.65,262.95 534.12,259.00C535.25,255.97 536.25,252.39 536.34,251.03C536.44,249.46 535.91,248.44 534.88,248.23C533.99,248.05 531.90,249.06 530.22,250.47C528.54,251.88 526.47,255.11 525.59,257.69C524.68,260.36 524.00,265.64 524.00,270.02C524.00,274.23 524.64,279.82 525.43,282.44C526.22,285.05 527.64,288.05 528.59,289.09C529.53,290.14 531.11,291.00 532.10,291.00zM412.00,286.87C411.18,286.80 408.24,286.42 405.48,286.01C402.72,285.61 398.62,284.34 396.38,283.20C394.14,282.05 390.83,279.43 389.01,277.36C387.20,275.29 384.85,271.65 383.79,269.27C382.74,266.89 381.62,261.81 381.30,258.00C380.95,253.82 381.23,248.63 382.01,244.94C382.78,241.33 384.81,236.51 386.98,233.16C388.99,230.04 392.80,225.59 395.42,223.28C398.05,220.96 402.75,218.05 405.85,216.80C410.65,214.88 413.38,214.54 424.00,214.52C436.35,214.50 436.58,214.54 442.80,217.92C446.27,219.80 451.30,223.74 453.98,226.67C456.66,229.60 459.97,234.37 461.34,237.25C462.70,240.14 464.31,245.17 464.91,248.43C465.51,251.70 466.00,257.86 466.00,262.14C466.00,269.90 466.00,269.90 461.47,273.02C458.98,274.73 454.48,277.22 451.48,278.55C448.47,279.88 442.52,281.88 438.26,283.00C433.99,284.12 426.68,285.47 422.00,286.01C417.32,286.54 412.82,286.93 412.00,286.87zM242.11,275.43C242.60,275.13 242.99,270.97 242.97,266.19C242.94,258.33 242.80,257.69 241.47,259.44C240.62,260.56 240.01,263.52 240.01,266.44C240.02,269.22 240.30,272.51 240.63,273.74C240.96,274.97 241.63,275.73 242.11,275.43zM518.27,267.00C518.72,263.98 519.97,258.52 521.06,254.87C522.42,250.30 524.32,246.79 527.14,243.58C529.40,241.01 531.00,238.66 530.69,238.36C530.39,238.06 528.79,238.11 527.14,238.47C525.50,238.83 523.05,240.23 521.70,241.57C520.36,242.91 518.53,246.63 517.63,249.82C516.73,253.02 516.00,258.60 516.00,262.23C516.00,265.87 516.33,269.66 516.74,270.67C517.26,271.96 517.71,270.87 518.27,267.00zM275.80,270.00C278.02,270.00 279.84,269.20 281.38,267.54C282.63,266.18 284.19,263.32 284.83,261.17C285.47,259.02 286.00,255.69 286.00,253.76C286.00,251.83 286.68,249.68 287.50,249.00C288.32,248.32 289.00,246.98 289.00,246.03C289.00,245.09 288.11,243.51 287.02,242.52C285.53,241.17 283.97,240.86 280.64,241.23C278.22,241.50 275.11,242.57 273.74,243.61C272.37,244.64 270.29,246.95 269.12,248.73C267.96,250.51 266.48,253.92 265.84,256.30C265.21,258.67 264.99,261.84 265.37,263.34C265.75,264.87 267.46,266.92 269.28,268.03C271.05,269.11 273.98,269.99 275.80,270.00zM395.19,261.00C396.29,261.00 397.00,260.27 397.00,259.13C397.00,257.72 397.98,257.10 400.97,256.62C403.63,256.19 406.10,254.83 408.42,252.51C410.33,250.60 412.37,247.34 412.94,245.27C413.52,243.20 413.99,239.93 413.99,238.00C413.99,236.07 413.15,233.11 412.11,231.42C411.08,229.73 408.84,227.76 407.14,227.06C405.43,226.35 402.89,226.06 401.49,226.41C400.09,226.76 397.19,228.64 395.03,230.59C392.88,232.53 390.19,236.04 389.06,238.38C387.75,241.08 387.00,244.62 387.00,248.09C387.00,251.50 387.62,254.49 388.65,256.03C389.55,257.39 390.99,259.06 391.84,259.75C392.69,260.44 394.20,261.00 395.19,261.00zM520.80,189.09C521.01,188.48 520.23,186.04 519.08,183.67C517.93,181.29 513.94,175.58 510.22,170.99C506.50,166.39 500.32,160.22 496.48,157.28C492.64,154.33 486.68,150.53 483.23,148.82C479.78,147.11 476.74,145.92 476.48,146.19C476.21,146.45 479.71,149.53 484.25,153.02C488.79,156.51 496.25,163.00 500.83,167.43C505.41,171.87 511.70,178.81 514.80,182.85C517.90,186.89 520.60,189.70 520.80,189.09zM318.34,169.00C315.65,169.00 315.65,169.00 318.08,166.39C319.41,164.96 325.19,160.25 330.93,155.93C336.66,151.62 344.59,146.50 348.55,144.57C352.51,142.64 359.07,140.17 363.12,139.08C367.18,137.98 375.23,136.43 381.00,135.62C386.77,134.81 395.32,134.04 400.00,133.91C404.68,133.79 410.17,133.76 412.22,133.84C415.94,134.00 415.94,134.00 403.29,146.57C390.64,159.15 390.64,159.15 365.07,162.59C351.01,164.48 335.34,166.70 330.26,167.51C325.18,168.33 319.81,169.00 318.34,169.00zM372.91,127.00C373.84,127.00 375.14,126.46 375.80,125.80C376.46,125.14 377.00,121.98 377.00,118.78C377.00,113.58 376.74,112.84 374.56,111.85C373.22,111.24 371.36,111.03 370.42,111.39C368.99,111.94 368.81,112.95 369.33,117.86C369.66,121.05 370.22,124.42 370.57,125.33C370.93,126.25 371.98,127.00 372.91,127.00zM369.53,99.00C370.92,99.00 373.59,98.36 375.45,97.58C377.32,96.80 379.61,95.00 380.55,93.56C381.49,92.13 382.31,89.12 382.36,86.88C382.45,83.73 381.94,82.37 380.12,80.90C378.83,79.86 376.39,79.00 374.70,79.00C373.01,79.00 370.16,80.00 368.37,81.23C366.58,82.46 364.64,84.51 364.05,85.78C363.47,87.05 363.00,89.65 363.00,91.55C363.00,93.67 363.77,95.77 365.00,97.00C366.10,98.10 368.14,99.00 369.53,99.00z"/>
</svg>